<?xml version="1.0" encoding="UTF-8"?>
<svg width="337px" height="309px" viewBox="0 0 337 309" version="1.1" xmlns="http://www.w3.org/2000/svg" xmlns:xlink="http://www.w3.org/1999/xlink">
    <title>no-events</title>
    <defs>
        <path d="M32.7330169,34.7211636 L236.22093,34.5702094 C241.743776,34.5661123 246.224249,39.0399423 246.228346,44.5627883 C246.228352,44.5709874 246.228348,44.5791865 246.228334,44.5873855 L245.97629,191.304145 C245.966819,196.817381 241.496966,201.282873 235.983723,201.286963 L32.4958099,201.437917 C26.9729639,201.442014 22.4924913,196.968184 22.4883943,191.445338 C22.4883882,191.437139 22.4883922,191.42894 22.4884063,191.420741 L22.74045,44.703982 C22.7499211,39.190746 27.2197743,34.7252535 32.7330169,34.7211636 Z" id="path-1"></path>
        <filter x="-34.8%" y="-35.9%" width="173.3%" height="198.3%" filterUnits="objectBoundingBox" id="filter-2">
            <feMorphology radius="0.5" operator="dilate" in="SourceAlpha" result="shadowSpreadOuter1"></feMorphology>
            <feOffset dx="4" dy="22" in="shadowSpreadOuter1" result="shadowOffsetOuter1"></feOffset>
            <feGaussianBlur stdDeviation="23.5" in="shadowOffsetOuter1" result="shadowBlurOuter1"></feGaussianBlur>
            <feComposite in="shadowBlurOuter1" in2="SourceAlpha" operator="out" result="shadowBlurOuter1"></feComposite>
            <feColorMatrix values="0 0 0 0 0   0 0 0 0 0.247058824   0 0 0 0 1  0 0 0 0.05 0" type="matrix" in="shadowBlurOuter1"></feColorMatrix>
        </filter>
        <path d="M89.4575965,149.722753 L120.599977,149.722753 C126.122824,149.722753 130.599977,154.199906 130.599977,159.722753 L130.599977,197.74142 C130.599977,203.264267 126.122824,207.74142 120.599977,207.74142 L89.4575965,207.74142 C83.934749,207.74142 79.4575965,203.264267 79.4575965,197.74142 L79.4575965,159.722753 C79.4575965,154.199906 83.934749,149.722753 89.4575965,149.722753 Z" id="path-3"></path>
        <filter x="-75.3%" y="-69.8%" width="266.2%" height="246.5%" filterUnits="objectBoundingBox" id="filter-4">
            <feOffset dx="4" dy="2" in="SourceAlpha" result="shadowOffsetOuter1"></feOffset>
            <feGaussianBlur stdDeviation="13.5" in="shadowOffsetOuter1" result="shadowBlurOuter1"></feGaussianBlur>
            <feColorMatrix values="0 0 0 0 0   0 0 0 0 0.247058824   0 0 0 0 1  0 0 0 0.15 0" type="matrix" in="shadowBlurOuter1"></feColorMatrix>
        </filter>
        <path d="M21.1470237,9.46847969 L86.8848169,9.44695994 C92.4076619,9.43860328 96.8862798,13.9142899 96.8880877,19.4371371 C96.8880885,19.4393207 96.8880885,19.4415044 96.881539,19.4436858 L96.856253,96.5989503 C96.8478908,102.119237 92.3732632,106.593863 86.8529763,106.602223 L21.1151831,106.623743 C15.5923381,106.6321 11.1137202,102.156413 11.1119123,96.6335659 C11.1119115,96.6313822 11.1119115,96.6291986 11.118461,96.6270171 L11.143747,19.4717527 C11.1521092,13.9514658 15.6267368,9.47683981 21.1470237,9.46847969 Z" id="path-5"></path>
        <filter x="-90.4%" y="-61.2%" width="290.1%" height="267.7%" filterUnits="objectBoundingBox" id="filter-6">
            <feOffset dx="4" dy="22" in="SourceAlpha" result="shadowOffsetOuter1"></feOffset>
            <feGaussianBlur stdDeviation="23.5" in="shadowOffsetOuter1" result="shadowBlurOuter1"></feGaussianBlur>
            <feColorMatrix values="0 0 0 0 0   0 0 0 0 0.247058824   0 0 0 0 1  0 0 0 0.05 0" type="matrix" in="shadowBlurOuter1"></feColorMatrix>
        </filter>
        <path d="M16.1463356,5.2193381 L43.4211317,5.2104095 C48.9439767,5.20205284 53.4225946,9.67773947 53.4244026,15.2005867 C53.4244033,15.2027703 53.4244033,15.2049539 53.4178538,15.2071354 L53.4068519,48.7773889 C53.3984897,54.2976758 48.9238621,58.7723018 43.4035751,58.7806619 L16.1287791,58.7895905 C10.605934,58.7979472 6.12731611,54.3222605 6.12550816,48.7994133 C6.12550745,48.7972297 6.12550745,48.7950461 6.13205688,48.7928646 L6.14305883,15.2226111 C6.15142099,9.70232418 10.6260486,5.22769822 16.1463356,5.2193381 Z" id="path-7"></path>
        <filter x="-163.9%" y="-111.0%" width="444.7%" height="404.2%" filterUnits="objectBoundingBox" id="filter-8">
            <feOffset dx="4" dy="22" in="SourceAlpha" result="shadowOffsetOuter1"></feOffset>
            <feGaussianBlur stdDeviation="23.5" in="shadowOffsetOuter1" result="shadowBlurOuter1"></feGaussianBlur>
            <feColorMatrix values="0 0 0 0 0   0 0 0 0 0.247058824   0 0 0 0 1  0 0 0 0.05 0" type="matrix" in="shadowBlurOuter1"></feColorMatrix>
        </filter>
    </defs>
    <g id="Page-builder" stroke="none" stroke-width="1" fill="none" fill-rule="evenodd">
        <g id="7" transform="translate(-221.000000, -279.000000)">
            <g id="Group" transform="translate(228.000000, 264.000000)">
                <g id="Group-13" transform="translate(153.553636, 140.048702) rotate(10.000000) translate(-153.553636, -140.048702) translate(19.195266, 22.048702)">
                    <g id="Rectangle-Copy" transform="translate(134.358370, 118.004063) rotate(-21.000000) translate(-134.358370, -118.004063) ">
                        <use fill="black" fill-opacity="1" filter="url(#filter-2)" xlink:href="#path-1"></use>
                        <use stroke="#E0E0E8" stroke-width="1" fill="#FFFFFF" fill-rule="evenodd" xlink:href="#path-1"></use>
                    </g>
                    <path d="M48.3789958,62.7010518 L229.295225,62.5591783 C234.818071,62.5548473 239.298733,67.0284875 239.303064,72.5513333 C239.30307,72.5593643 239.303067,72.5673952 239.303054,72.5754262 L239.136932,174.798397 C239.127972,180.31183 234.658226,184.777819 229.144787,184.782143 L48.2285575,184.924016 C42.7057117,184.928347 38.2250496,180.454707 38.2207186,174.931861 C38.2207123,174.92383 38.2207157,174.915799 38.2207288,174.907768 L38.386851,72.6847978 C38.3958108,67.1713641 42.8655565,62.7053754 48.3789958,62.7010518 Z" id="Rectangle-Copy-2" fill="#F3F3F6" transform="translate(138.761891, 123.741597) rotate(-21.000000) translate(-138.761891, -123.741597) "></path>
                    <path d="M32.3927618,56.2092384 C34.5089647,56.2013599 36.230873,57.9104946 36.2387515,60.0266976 C36.2387708,60.0318899 36.2387796,60.0370822 36.2387778,60.0422745 L36.2338049,74.5699196 C36.2330767,76.6972828 34.5125035,78.4236824 32.3851549,78.4316024 C30.2689519,78.4394809 28.5470436,76.7303463 28.5391651,74.6141433 C28.5391458,74.608951 28.539137,74.6037587 28.5391388,74.5985664 L28.5441117,60.0709213 C28.5448399,57.943558 30.2654131,56.2171584 32.3927618,56.2092384 Z" id="Rectangle-Copy-3" fill="#F3F3F6" transform="translate(32.388958, 67.320420) rotate(-21.000000) translate(-32.388958, -67.320420) "></path>
                    <path d="M179.888007,0.655495961 C182.00421,0.647617459 183.726119,2.35675214 183.733997,4.47295512 C183.734016,4.4781474 183.734025,4.48333972 183.734023,4.48853204 L183.729051,19.0161771 C183.728322,21.1435404 182.007749,22.86994 179.8804,22.87786 C177.764198,22.8857385 176.042289,21.1766038 176.034411,19.0604008 C176.034391,19.0552085 176.034383,19.0500162 176.034384,19.0448239 L176.039357,4.51717884 C176.040086,2.38981557 177.760659,0.663415957 179.888007,0.655495961 Z" id="Rectangle-Copy-4" fill="#F3F3F6" transform="translate(179.884204, 11.766678) rotate(-21.000000) translate(-179.884204, -11.766678) "></path>
                </g>
                <g id="Rectangle-Copy-5" transform="translate(105.028787, 178.732086) rotate(-345.000000) translate(-105.028787, -178.732086) ">
                    <use fill="black" fill-opacity="1" filter="url(#filter-4)" xlink:href="#path-3"></use>
                    <use fill="#FFFFFF" fill-rule="evenodd" xlink:href="#path-3"></use>
                </g>
                <path d="M96.4604329,156.719921 L116.23784,156.719921 C121.760687,156.719921 126.23784,161.197074 126.23784,166.719921 L126.23784,181.531121 C126.23784,187.053969 121.760687,191.531121 116.23784,191.531121 L96.4604329,191.531121 C90.9375854,191.531121 86.4604329,187.053969 86.4604329,181.531121 L86.4604329,166.719921 C86.4604329,161.197074 90.9375854,156.719921 96.4604329,156.719921 Z" id="Rectangle-Copy-6" fill="#ECECF1" transform="translate(106.349136, 174.125521) rotate(-345.000000) translate(-106.349136, -174.125521) "></path>
                <g id="Group-12" transform="translate(203.264672, 106.035003) rotate(-40.000000) translate(-203.264672, -106.035003) translate(149.264672, 47.999651)">
                    <g id="Rectangle-Copy-5" transform="translate(54.000000, 58.035351) rotate(-345.000000) translate(-54.000000, -58.035351) ">
                        <use fill="black" fill-opacity="1" filter="url(#filter-6)" xlink:href="#path-5"></use>
                        <use fill="#FFFFFF" fill-rule="evenodd" xlink:href="#path-5"></use>
                    </g>
                    <path d="M32.9049781,20.5553883 L79.5899286,20.5401056 C85.1127736,20.531749 89.5913915,25.0074356 89.5931995,30.5302828 C89.5932002,30.5324664 89.5932002,30.5346501 89.5866507,30.5368315 L89.574101,68.8299906 C89.5657388,74.3502776 85.0911112,78.8249035 79.5708242,78.8332636 L32.8858738,78.8485463 C27.3630287,78.856903 22.8844108,74.3812163 22.8826029,68.8583691 C22.8826022,68.8561855 22.8826022,68.8540019 22.8891516,68.8518204 L22.9017014,30.5586613 C22.9100635,25.0383744 27.3846912,20.5637484 32.9049781,20.5553883 Z" id="Rectangle-Copy-6" fill="#F3F3F6" transform="translate(56.237901, 49.694326) rotate(-345.000000) translate(-56.237901, -49.694326) "></path>
                </g>
                <g id="Group-12-Copy" transform="translate(189.264672, 228.035003) rotate(12.000000) translate(-189.264672, -228.035003) translate(159.489717, 196.035003)">
                    <g id="Rectangle-Copy-5" transform="translate(29.774955, 32.000000) rotate(-345.000000) translate(-29.774955, -32.000000) ">
                        <use fill="black" fill-opacity="1" filter="url(#filter-8)" xlink:href="#path-7"></use>
                        <use fill="#FFFFFF" fill-rule="evenodd" xlink:href="#path-7"></use>
                    </g>
                    <path d="M22.6295313,11.3325272 L39.3988173,11.3270376 C44.9216624,11.3186809 49.4002803,15.7943676 49.4020882,21.3172148 C49.402089,21.3193984 49.402089,21.321582 49.3955395,21.3237635 L49.3915602,33.465916 C49.383198,38.986203 44.9085704,43.4608289 39.3882834,43.469189 L22.6189974,43.4746786 C17.0961523,43.4830353 12.6175344,39.0073486 12.6157265,33.4845014 C12.6157257,33.4823178 12.6157257,33.4801342 12.6222752,33.4779527 L12.6262545,21.3358002 C12.6346167,15.8155132 17.1092443,11.3408873 22.6295313,11.3325272 Z" id="Rectangle-Copy-6" fill="#F3F3F6" transform="translate(31.008907, 27.400858) rotate(-345.000000) translate(-31.008907, -27.400858) "></path>
                </g>
            </g>
        </g>
    </g>
</svg>