<?xml version="1.0" encoding="UTF-8"?>
<svg width="13px" height="13px" viewBox="0 0 13 13" version="1.1" xmlns="http://www.w3.org/2000/svg" xmlns:xlink="http://www.w3.org/1999/xlink">
    <g id="6.6.1" transform="translate(-771.000000, -242.000000)" fill="#4191FF">
        <g id="Group-7" transform="translate(520.000000, 187.000000)">
            <g id="Group-8" transform="translate(257.500000, 35.250000) rotate(-180.000000) translate(-257.500000, -35.250000) translate(251.000000, 2.500000)">
                <path d="M1.04431913,7.04901079 L4.91320461,2.04473543 C5.58880356,1.17087054 6.84489218,1.01014424 7.71875707,1.68574319 C7.85271365,1.78930717 7.9729765,1.90946301 8.07665969,2.04332735 L11.9529568,7.04797603 C12.6316898,7.92428142 13,9.00127888 13,10.1096965 L13,10.9499015 C13,12.358282 11.858282,13.5 10.4499015,13.5 L2.55009848,13.5 C1.14171798,13.5 1.42337004e-15,12.358282 0,10.9499015 L0,10.1072111 C-1.02373371e-15,9.00031809 0.367299064,7.92471385 1.04431913,7.04901079 Z" id="r®" transform="translate(6.500000, 6.750000) rotate(-180.000000) translate(-6.500000, -6.750000) "></path>
            </g>
        </g>
    </g>
</svg>