<svg width="457" height="281" viewBox="0 0 457 281" fill="none" xmlns="http://www.w3.org/2000/svg">
<rect x="9.53809" y="8.88721" width="405.724" height="261.648" rx="19.5" fill="#E0E0E8" stroke="#111C27"/>
<rect x="21.9756" y="21.0068" width="380.849" height="237.408" rx="20" fill="white"/>
<rect x="21.9756" y="21.0068" width="380.849" height="15.7746" rx="6" fill="#131C26"/>
<path d="M307.324 71.1973H392.398C396.541 71.1973 399.898 74.5551 399.898 78.6973V124.218C399.898 128.361 396.541 131.718 392.398 131.718H307.324C303.182 131.718 299.824 128.361 299.824 124.218V78.6973C299.824 74.5551 303.182 71.1973 307.324 71.1973Z" fill="#FBFBFC" stroke="#E0E0E8"/>
<path d="M320.853 80.9507H310.868C310.3 80.9507 309.836 81.404 309.836 81.9581C309.836 82.5123 310.3 82.9656 310.868 82.9656H320.853C321.421 82.9656 321.886 82.5123 321.886 81.9581C321.886 81.404 321.421 80.9507 320.853 80.9507Z" fill="#CFD1D3"/>
<path d="M307.324 142.972H392.398C396.541 142.972 399.898 146.33 399.898 150.472V240.951C399.898 245.093 396.541 248.451 392.398 248.451H307.324C303.182 248.451 299.824 245.093 299.824 240.951V150.472C299.824 146.33 303.182 142.972 307.324 142.972Z" fill="#FBFBFC" stroke="#E0E0E8"/>
<path d="M372.618 93.2476H310.359C310.071 93.2476 309.836 93.0178 309.836 92.7369C309.836 92.4559 310.071 92.2261 310.359 92.2261H372.618C372.906 92.2261 373.142 92.4559 373.142 92.7369C373.142 93.0178 372.906 93.2476 372.618 93.2476Z" fill="#CFD1D3"/>
<path d="M372.618 109.811H310.359C310.071 109.811 309.836 109.581 309.836 109.3C309.836 109.019 310.071 108.79 310.359 108.79H372.618C372.906 108.79 373.142 109.019 373.142 109.3C373.142 109.581 372.906 109.811 372.618 109.811Z" fill="#CFD1D3"/>
<path d="M372.618 97.4244H310.359C310.071 97.4244 309.836 97.1946 309.836 96.9136C309.836 96.6327 310.071 96.4028 310.359 96.4028H372.618C372.906 96.4028 373.142 96.6327 373.142 96.9136C373.142 97.1946 372.906 97.4244 372.618 97.4244Z" fill="#CFD1D3"/>
<path d="M372.618 113.988H310.359C310.071 113.988 309.836 113.758 309.836 113.477C309.836 113.196 310.071 112.966 310.359 112.966H372.618C372.906 112.966 373.142 113.196 373.142 113.477C373.142 113.758 372.906 113.988 372.618 113.988Z" fill="#CFD1D3"/>
<path d="M372.618 101.601H310.359C310.071 101.601 309.836 101.371 309.836 101.09C309.836 100.809 310.071 100.58 310.359 100.58H372.618C372.906 100.58 373.142 100.809 373.142 101.09C373.142 101.371 372.906 101.601 372.618 101.601Z" fill="#CFD1D3"/>
<path d="M372.618 118.164H310.359C310.071 118.164 309.836 117.934 309.836 117.653C309.836 117.372 310.071 117.143 310.359 117.143H372.618C372.906 117.143 373.142 117.372 373.142 117.653C373.142 117.934 372.906 118.164 372.618 118.164Z" fill="#CFD1D3"/>
<path d="M372.618 89.0709H310.359C310.071 89.0709 309.836 88.8411 309.836 88.5601C309.836 88.2791 310.071 88.0493 310.359 88.0493H372.618C372.906 88.0493 373.142 88.2791 373.142 88.5601C373.142 88.8411 372.906 89.0709 372.618 89.0709Z" fill="#CFD1D3"/>
<path d="M372.618 105.634H310.359C310.071 105.634 309.836 105.405 309.836 105.124C309.836 104.843 310.071 104.613 310.359 104.613H372.618C372.906 104.613 373.142 104.843 373.142 105.124C373.142 105.405 372.906 105.634 372.618 105.634Z" fill="#CFD1D3"/>
<path d="M393.93 148.782H305.793V242.641H393.93V148.782Z" fill="#F3F3F6"/>
<path d="M321.078 180.211H311.453V238.697H321.078V180.211Z" fill="#8DBDFF"/>
<path d="M336.847 163.909H327.222V238.697H336.847V163.909Z" fill="#8DBDFF"/>
<path d="M354.053 194.354H344.427V238.696H354.053V194.354Z" fill="#8DBDFF"/>
<path d="M370.795 173.894H361.17V238.697H370.795V173.894Z" fill="#8DBDFF"/>
<path d="M387.625 203.034H377.999V238.697H387.625V203.034Z" fill="#8DBDFF"/>
<path d="M370.338 165.463H362.187C361.723 165.463 361.344 165.833 361.344 166.285C361.344 166.738 361.723 167.108 362.187 167.108H370.338C370.802 167.108 371.182 166.738 371.182 166.285C371.182 165.833 370.802 165.463 370.338 165.463Z" fill="#CFD1D3"/>
<path d="M364.044 168.456H362.187C361.723 168.456 361.344 168.826 361.344 169.278C361.344 169.731 361.723 170.101 362.187 170.101H364.044C364.507 170.101 364.887 169.731 364.887 169.278C364.887 168.826 364.507 168.456 364.044 168.456Z" fill="#CFD1D3"/>
<path d="M336.75 152.725H328.599C328.135 152.725 327.755 153.095 327.755 153.548C327.755 154 328.135 154.37 328.599 154.37H336.75C337.214 154.37 337.593 154 337.593 153.548C337.593 153.095 337.214 152.725 336.75 152.725Z" fill="#CFD1D3"/>
<path d="M330.455 155.718H328.599C328.135 155.718 327.755 156.088 327.755 156.54C327.755 156.993 328.135 157.363 328.599 157.363H330.455C330.919 157.363 331.298 156.993 331.298 156.54C331.298 156.088 330.919 155.718 330.455 155.718Z" fill="#CFD1D3"/>
<path d="M353.316 185.625H345.165C344.701 185.625 344.321 185.996 344.321 186.448C344.321 186.9 344.701 187.271 345.165 187.271H353.316C353.78 187.271 354.159 186.9 354.159 186.448C354.159 185.996 353.78 185.625 353.316 185.625Z" fill="#CFD1D3"/>
<path d="M347.021 188.619H345.165C344.701 188.619 344.321 188.989 344.321 189.441C344.321 189.894 344.701 190.264 345.165 190.264H347.021C347.485 190.264 347.864 189.894 347.864 189.441C347.864 188.989 347.485 188.619 347.021 188.619Z" fill="#CFD1D3"/>
<path d="M386.888 194.355H378.736C378.273 194.355 377.893 194.725 377.893 195.178C377.893 195.63 378.273 196 378.736 196H386.888C387.351 196 387.731 195.63 387.731 195.178C387.731 194.725 387.351 194.355 386.888 194.355Z" fill="#CFD1D3"/>
<path d="M380.593 197.348H378.736C378.273 197.348 377.893 197.718 377.893 198.171C377.893 198.623 378.273 198.993 378.736 198.993H380.593C381.057 198.993 381.436 198.623 381.436 198.171C381.436 197.718 381.057 197.348 380.593 197.348Z" fill="#CFD1D3"/>
<path d="M158.542 45.1689H281.313C285.455 45.1689 288.813 48.5268 288.813 52.6689V240.81C288.813 244.952 285.455 248.31 281.313 248.31H158.542C154.4 248.31 151.042 244.952 151.042 240.81V52.6689C151.042 48.5268 154.4 45.1689 158.542 45.1689Z" fill="#FBFBFC" stroke="#E0E0E8"/>
<path d="M279.146 59.6553H160.63C159.529 59.6553 158.628 60.72 158.628 62.0215C158.628 63.3229 159.529 64.3877 160.63 64.3877H279.146C280.247 64.3877 281.148 63.3229 281.148 62.0215C281.148 60.72 280.247 59.6553 279.146 59.6553Z" fill="#F3F3F6"/>
<path d="M279.146 125.909H160.63C159.529 125.909 158.628 126.973 158.628 128.275C158.628 129.576 159.529 130.641 160.63 130.641H279.146C280.247 130.641 281.148 129.576 281.148 128.275C281.148 126.973 280.247 125.909 279.146 125.909Z" fill="#F3F3F6"/>
<path d="M279.146 92.7817H160.63C159.529 92.7817 158.628 93.8465 158.628 95.1479C158.628 96.4494 159.529 97.5141 160.63 97.5141H279.146C280.247 97.5141 281.148 96.4494 281.148 95.1479C281.148 93.8465 280.247 92.7817 279.146 92.7817Z" fill="#F3F3F6"/>
<path d="M279.146 159.035H160.63C159.529 159.035 158.628 160.1 158.628 161.401C158.628 162.703 159.529 163.768 160.63 163.768H279.146C280.247 163.768 281.148 162.703 281.148 161.401C281.148 160.1 280.247 159.035 279.146 159.035Z" fill="#F3F3F6"/>
<path d="M279.146 65.1763H160.63C159.529 65.1763 158.628 66.241 158.628 67.5425C158.628 68.8439 159.529 69.9087 160.63 69.9087H279.146C280.247 69.9087 281.148 68.8439 281.148 67.5425C281.148 66.241 280.247 65.1763 279.146 65.1763Z" fill="#FBFBFC"/>
<path d="M279.146 131.43H160.63C159.529 131.43 158.628 132.494 158.628 133.796C158.628 135.097 159.529 136.162 160.63 136.162H279.146C280.247 136.162 281.148 135.097 281.148 133.796C281.148 132.494 280.247 131.43 279.146 131.43Z" fill="#FBFBFC"/>
<path d="M279.146 98.3027H160.63C159.529 98.3027 158.628 99.3675 158.628 100.669C158.628 101.97 159.529 103.035 160.63 103.035H279.146C280.247 103.035 281.148 101.97 281.148 100.669C281.148 99.3675 280.247 98.3027 279.146 98.3027Z" fill="#FBFBFC"/>
<path d="M279.146 164.557H160.63C159.529 164.557 158.628 165.621 158.628 166.923C158.628 168.224 159.529 169.289 160.63 169.289H279.146C280.247 169.289 281.148 168.224 281.148 166.923C281.148 165.621 280.247 164.557 279.146 164.557Z" fill="#FBFBFC"/>
<path d="M279.146 76.2183H160.63C159.529 76.2183 158.628 77.283 158.628 78.5845C158.628 79.8859 159.529 80.9507 160.63 80.9507H279.146C280.247 80.9507 281.148 79.8859 281.148 78.5845C281.148 77.283 280.247 76.2183 279.146 76.2183Z" fill="#FBFBFC"/>
<path d="M279.146 142.472H160.63C159.529 142.472 158.628 143.537 158.628 144.838C158.628 146.14 159.529 147.205 160.63 147.205H279.146C280.247 147.205 281.148 146.14 281.148 144.838C281.148 143.537 280.247 142.472 279.146 142.472Z" fill="#FBFBFC"/>
<path d="M279.146 109.345H160.63C159.529 109.345 158.628 110.41 158.628 111.711C158.628 113.013 159.529 114.078 160.63 114.078H279.146C280.247 114.078 281.148 113.013 281.148 111.711C281.148 110.41 280.247 109.345 279.146 109.345Z" fill="#FBFBFC"/>
<path d="M279.146 175.599H160.63C159.529 175.599 158.628 176.663 158.628 177.965C158.628 179.266 159.529 180.331 160.63 180.331H279.146C280.247 180.331 281.148 179.266 281.148 177.965C281.148 176.663 280.247 175.599 279.146 175.599Z" fill="#FBFBFC"/>
<path d="M279.146 87.2607H160.63C159.529 87.2607 158.628 88.3255 158.628 89.6269C158.628 90.9284 159.529 91.9931 160.63 91.9931H279.146C280.247 91.9931 281.148 90.9284 281.148 89.6269C281.148 88.3255 280.247 87.2607 279.146 87.2607Z" fill="#FBFBFC"/>
<path d="M279.146 153.514H160.63C159.529 153.514 158.628 154.579 158.628 155.88C158.628 157.182 159.529 158.247 160.63 158.247H279.146C280.247 158.247 281.148 157.182 281.148 155.88C281.148 154.579 280.247 153.514 279.146 153.514Z" fill="#FBFBFC"/>
<path d="M279.146 120.388H160.63C159.529 120.388 158.628 121.452 158.628 122.754C158.628 124.055 159.529 125.12 160.63 125.12H279.146C280.247 125.12 281.148 124.055 281.148 122.754C281.148 121.452 280.247 120.388 279.146 120.388Z" fill="#FBFBFC"/>
<path d="M279.146 186.641H160.63C159.529 186.641 158.628 187.706 158.628 189.007C158.628 190.309 159.529 191.374 160.63 191.374H279.146C280.247 191.374 281.148 190.309 281.148 189.007C281.148 187.706 280.247 186.641 279.146 186.641Z" fill="#FBFBFC"/>
<path d="M279.146 70.6973H160.63C159.529 70.6973 158.628 71.762 158.628 73.0635C158.628 74.3649 159.529 75.4297 160.63 75.4297H279.146C280.247 75.4297 281.148 74.3649 281.148 73.0635C281.148 71.762 280.247 70.6973 279.146 70.6973Z" fill="#F3F3F6"/>
<path d="M279.146 136.951H160.63C159.529 136.951 158.628 138.015 158.628 139.317C158.628 140.618 159.529 141.683 160.63 141.683H279.146C280.247 141.683 281.148 140.618 281.148 139.317C281.148 138.015 280.247 136.951 279.146 136.951Z" fill="#F3F3F6"/>
<path d="M279.146 103.824H160.63C159.529 103.824 158.628 104.889 158.628 106.19C158.628 107.492 159.529 108.557 160.63 108.557H279.146C280.247 108.557 281.148 107.492 281.148 106.19C281.148 104.889 280.247 103.824 279.146 103.824Z" fill="#F3F3F6"/>
<path d="M279.146 170.078H160.63C159.529 170.078 158.628 171.142 158.628 172.444C158.628 173.745 159.529 174.81 160.63 174.81H279.146C280.247 174.81 281.148 173.745 281.148 172.444C281.148 171.142 280.247 170.078 279.146 170.078Z" fill="#F3F3F6"/>
<path d="M279.146 81.7397H160.63C159.529 81.7397 158.628 82.8045 158.628 84.1059C158.628 85.4074 159.529 86.4721 160.63 86.4721H279.146C280.247 86.4721 281.148 85.4074 281.148 84.1059C281.148 82.8045 280.247 81.7397 279.146 81.7397Z" fill="#F3F3F6"/>
<path d="M279.146 147.993H160.63C159.529 147.993 158.628 149.058 158.628 150.359C158.628 151.661 159.529 152.726 160.63 152.726H279.146C280.247 152.726 281.148 151.661 281.148 150.359C281.148 149.058 280.247 147.993 279.146 147.993Z" fill="#F3F3F6"/>
<path d="M279.146 114.866H160.63C159.529 114.866 158.628 115.931 158.628 117.232C158.628 118.534 159.529 119.599 160.63 119.599H279.146C280.247 119.599 281.148 118.534 281.148 117.232C281.148 115.931 280.247 114.866 279.146 114.866Z" fill="#F3F3F6"/>
<path d="M279.146 181.12H160.63C159.529 181.12 158.628 182.185 158.628 183.486C158.628 184.788 159.529 185.853 160.63 185.853H279.146C280.247 185.853 281.148 184.788 281.148 183.486C281.148 182.185 280.247 181.12 279.146 181.12Z" fill="#F3F3F6"/>
<path d="M279.146 192.162H160.63C159.529 192.162 158.628 193.227 158.628 194.528C158.628 195.83 159.529 196.895 160.63 196.895H279.146C280.247 196.895 281.148 195.83 281.148 194.528C281.148 193.227 280.247 192.162 279.146 192.162Z" fill="#F3F3F6"/>
<path d="M171.459 56.5002H158.735C158.676 56.5002 158.628 56.3227 158.628 56.1058C158.628 55.8889 158.676 55.7114 158.735 55.7114H171.459C171.518 55.7114 171.566 55.8889 171.566 56.1058C171.566 56.3227 171.518 56.5002 171.459 56.5002Z" fill="#CFD1D3"/>
<path d="M207.037 56.5002H194.314C194.255 56.5002 194.207 56.3227 194.207 56.1058C194.207 55.8889 194.255 55.7114 194.314 55.7114H207.037C207.096 55.7114 207.144 55.8889 207.144 56.1058C207.144 56.3227 207.096 56.5002 207.037 56.5002Z" fill="#CFD1D3"/>
<path d="M242.615 56.5002H229.892C229.833 56.5002 229.785 56.3227 229.785 56.1058C229.785 55.8889 229.833 55.7114 229.892 55.7114H242.615C242.674 55.7114 242.722 55.8889 242.722 56.1058C242.722 56.3227 242.674 56.5002 242.615 56.5002Z" fill="#CFD1D3"/>
<path d="M189.248 56.5002H176.524C176.466 56.5002 176.417 56.3227 176.417 56.1058C176.417 55.8889 176.466 55.7114 176.524 55.7114H189.248C189.307 55.7114 189.355 55.8889 189.355 56.1058C189.355 56.3227 189.307 56.5002 189.248 56.5002Z" fill="#CFD1D3"/>
<path d="M224.826 56.5002H212.103C212.044 56.5002 211.996 56.3227 211.996 56.1058C211.996 55.8889 212.044 55.7114 212.103 55.7114H224.826C224.885 55.7114 224.933 55.8889 224.933 56.1058C224.933 56.3227 224.885 56.5002 224.826 56.5002Z" fill="#CFD1D3"/>
<path d="M260.404 56.5002H247.681C247.622 56.5002 247.574 56.3227 247.574 56.1058C247.574 55.8889 247.622 55.7114 247.681 55.7114H260.404C260.463 55.7114 260.511 55.8889 260.511 56.1058C260.511 56.3227 260.463 56.5002 260.404 56.5002Z" fill="#CFD1D3"/>
<path d="M278.193 56.5002H265.47C265.411 56.5002 265.363 56.3227 265.363 56.1058C265.363 55.8889 265.411 55.7114 265.47 55.7114H278.193C278.252 55.7114 278.3 55.8889 278.3 56.1058C278.3 56.3227 278.252 56.5002 278.193 56.5002Z" fill="#CFD1D3"/>
<path d="M279.146 213.458H160.63C159.529 213.458 158.628 214.523 158.628 215.824C158.628 217.126 159.529 218.19 160.63 218.19H279.146C280.247 218.19 281.148 217.126 281.148 215.824C281.148 214.523 280.247 213.458 279.146 213.458Z" fill="#F3F3F6"/>
<path d="M279.146 218.979H160.63C159.529 218.979 158.628 220.044 158.628 221.345C158.628 222.647 159.529 223.711 160.63 223.711H279.146C280.247 223.711 281.148 222.647 281.148 221.345C281.148 220.044 280.247 218.979 279.146 218.979Z" fill="#FBFBFC"/>
<path d="M279.146 230.021H160.63C159.529 230.021 158.628 231.086 158.628 232.387C158.628 233.689 159.529 234.753 160.63 234.753H279.146C280.247 234.753 281.148 233.689 281.148 232.387C281.148 231.086 280.247 230.021 279.146 230.021Z" fill="#FBFBFC"/>
<path d="M279.146 224.5H160.63C159.529 224.5 158.628 225.565 158.628 226.866C158.628 228.168 159.529 229.232 160.63 229.232H279.146C280.247 229.232 281.148 228.168 281.148 226.866C281.148 225.565 280.247 224.5 279.146 224.5Z" fill="#F3F3F6"/>
<path d="M279.146 235.542H160.63C159.529 235.542 158.628 236.607 158.628 237.909C158.628 239.21 159.529 240.275 160.63 240.275H279.146C280.247 240.275 281.148 239.21 281.148 237.909C281.148 236.607 280.247 235.542 279.146 235.542Z" fill="#F3F3F6"/>
<path d="M171.459 210.303H158.735C158.676 210.303 158.628 210.125 158.628 209.909C158.628 209.692 158.676 209.514 158.735 209.514H171.459C171.518 209.514 171.566 209.692 171.566 209.909C171.566 210.125 171.518 210.303 171.459 210.303Z" fill="#CFD1D3"/>
<path d="M207.037 210.303H194.314C194.255 210.303 194.207 210.125 194.207 209.909C194.207 209.692 194.255 209.514 194.314 209.514H207.037C207.096 209.514 207.144 209.692 207.144 209.909C207.144 210.125 207.096 210.303 207.037 210.303Z" fill="#CFD1D3"/>
<path d="M242.615 210.303H229.892C229.833 210.303 229.785 210.125 229.785 209.909C229.785 209.692 229.833 209.514 229.892 209.514H242.615C242.674 209.514 242.722 209.692 242.722 209.909C242.722 210.125 242.674 210.303 242.615 210.303Z" fill="#CFD1D3"/>
<path d="M189.248 210.303H176.524C176.466 210.303 176.417 210.125 176.417 209.909C176.417 209.692 176.466 209.514 176.524 209.514H189.248C189.307 209.514 189.355 209.692 189.355 209.909C189.355 210.125 189.307 210.303 189.248 210.303Z" fill="#CFD1D3"/>
<path d="M224.826 210.303H212.103C212.044 210.303 211.996 210.125 211.996 209.909C211.996 209.692 212.044 209.514 212.103 209.514H224.826C224.885 209.514 224.933 209.692 224.933 209.909C224.933 210.125 224.885 210.303 224.826 210.303Z" fill="#CFD1D3"/>
<path d="M260.404 210.303H247.681C247.622 210.303 247.574 210.125 247.574 209.909C247.574 209.692 247.622 209.514 247.681 209.514H260.404C260.463 209.514 260.511 209.692 260.511 209.909C260.511 210.125 260.463 210.303 260.404 210.303Z" fill="#CFD1D3"/>
<path d="M278.193 210.303H265.47C265.411 210.303 265.363 210.125 265.363 209.909C265.363 209.692 265.411 209.514 265.47 209.514H278.193C278.252 209.514 278.3 209.692 278.3 209.909C278.3 210.125 278.252 210.303 278.193 210.303Z" fill="#CFD1D3"/>
<path d="M47.6307 122.55H133.052C137.194 122.55 140.552 125.908 140.552 130.05V169.745C140.552 173.887 137.194 177.245 133.052 177.245H47.6307C43.4886 177.245 40.1307 173.887 40.1307 169.745V130.05C40.1307 125.908 43.4886 122.55 47.6307 122.55Z" fill="#FBFBFC" stroke="#E0E0E8"/>
<path d="M80.3337 161.287C87.4952 154.302 87.4951 142.976 80.3337 135.99C73.1723 129.005 61.5614 129.005 54.4 135.99C47.2386 142.976 47.2386 154.302 54.4 161.287C61.5614 168.273 73.1723 168.273 80.3337 161.287Z" fill="#F3F3F6"/>
<path d="M129.651 138.646H99.2721C98.1711 138.646 97.2704 139.525 97.2704 140.599C97.2704 141.673 98.1711 142.552 99.2721 142.552H129.651C130.752 142.552 131.653 141.673 131.653 140.599C131.653 139.525 130.752 138.646 129.651 138.646Z" fill="#F3F3F6"/>
<path d="M129.651 146.687H99.2721C98.1711 146.687 97.2704 147.565 97.2704 148.639C97.2704 149.713 98.1711 150.592 99.2721 150.592H129.651C130.752 150.592 131.653 149.713 131.653 148.639C131.653 147.565 130.752 146.687 129.651 146.687Z" fill="#F3F3F6"/>
<path d="M129.651 154.726H99.2721C98.1711 154.726 97.2704 155.605 97.2704 156.679C97.2704 157.753 98.1711 158.631 99.2721 158.631H129.651C130.752 158.631 131.653 157.753 131.653 156.679C131.653 155.605 130.752 154.726 129.651 154.726Z" fill="#F3F3F6"/>
<path d="M50.5787 148.379H67.3689V132.001C58.0964 132.001 50.5787 139.334 50.5787 148.379Z" fill="#99DBAA"/>
<path d="M84.1588 148.906H67.3689H67.3685H50.5787C50.5787 157.951 58.0963 165.284 67.3686 165.284C67.3688 165.284 67.3689 165.284 67.3691 165.284C76.6413 165.284 84.1588 157.951 84.1588 148.906Z" fill="#FDCE8D"/>
<path d="M64.4688 139.959H55.3564C54.8381 139.959 54.4138 140.373 54.4138 140.879C54.4138 141.385 54.8381 141.799 55.3564 141.799H64.4688C64.9873 141.799 65.4114 141.385 65.4114 140.879C65.4114 140.373 64.9873 139.959 64.4688 139.959Z" fill="#00A42B"/>
<path d="M57.4318 143.305H55.3564C54.8381 143.305 54.4138 143.719 54.4138 144.225C54.4138 144.73 54.8381 145.144 55.3564 145.144H57.4318C57.9502 145.144 58.3745 144.73 58.3745 144.225C58.3745 143.719 57.9502 143.305 57.4318 143.305Z" fill="#00A42B"/>
<path d="M77.9972 152.91H68.8849C68.3665 152.91 67.9423 153.324 67.9423 153.83C67.9423 154.335 68.3665 154.749 68.8849 154.749H77.9972C78.5156 154.749 78.9398 154.335 78.9398 153.83C78.9398 153.324 78.5156 152.91 77.9972 152.91Z" fill="#CA8B35"/>
<path d="M70.9601 156.256H68.8849C68.3665 156.256 67.9423 156.67 67.9423 157.175C67.9423 157.681 68.3665 158.095 68.8849 158.095H70.9601C71.4785 158.095 71.9028 157.681 71.9028 157.175C71.9029 156.67 71.4787 156.256 70.9601 156.256Z" fill="#CA8B35"/>
<path d="M32.9874 236.677V195.718C32.9874 191.576 36.3453 188.218 40.4874 188.218H125.909C130.051 188.218 133.409 191.576 133.409 195.718V236.677C133.409 240.819 130.051 244.177 125.909 244.177H40.4874C36.3453 244.177 32.9874 240.819 32.9874 236.677Z" fill="#FBFBFC" stroke="#E0E0E8"/>
<path d="M60.2242 232.327C70.3521 232.327 78.5623 224.318 78.5623 214.439C78.5623 204.56 70.3521 196.552 60.2242 196.552C50.0964 196.552 41.8861 204.56 41.8861 214.439C41.8861 224.318 50.0964 232.327 60.2242 232.327Z" fill="#F3F3F6"/>
<path d="M92.1276 208.352H122.507C123.608 208.352 124.508 207.473 124.508 206.399C124.508 205.325 123.608 204.446 122.507 204.446H92.1276C91.0266 204.446 90.1259 205.325 90.1259 206.399C90.1259 207.473 91.0266 208.352 92.1276 208.352Z" fill="#F3F3F6"/>
<path d="M122.507 212.486H92.1276C91.0266 212.486 90.1259 213.365 90.1259 214.439C90.1259 215.513 91.0266 216.392 92.1276 216.392H122.507C123.608 216.392 124.508 215.513 124.508 214.439C124.508 213.365 123.608 212.486 122.507 212.486Z" fill="#F3F3F6"/>
<path d="M122.507 220.526H92.1276C91.0266 220.526 90.1259 221.405 90.1259 222.479C90.1259 223.553 91.0266 224.432 92.1276 224.432H122.507C123.608 224.432 124.508 223.553 124.508 222.479C124.509 221.405 123.608 220.526 122.507 220.526Z" fill="#F3F3F6"/>
<path d="M60.2245 214.73L43.4359 214.521C43.4343 214.59 43.4343 214.661 43.4343 214.73C43.4343 223.775 50.952 231.108 60.2245 231.108C63.5395 231.108 66.6298 230.17 69.233 228.551L60.2245 214.73Z" fill="#FDCE8D"/>
<path d="M60.843 219.887H51.7307C51.2123 219.887 50.7881 220.3 50.7881 220.806C50.7881 221.312 51.2123 221.726 51.7307 221.726H60.843C61.3614 221.726 61.7856 221.312 61.7856 220.806C61.7856 220.301 61.3614 219.887 60.843 219.887Z" fill="#CA8B35"/>
<path d="M53.8058 223.233H51.7303C51.212 223.233 50.7877 223.647 50.7877 224.152C50.7877 224.658 51.212 225.072 51.7303 225.072H53.8058C54.3241 225.072 54.7484 224.658 54.7484 224.152C54.7484 223.647 54.3243 223.233 53.8058 223.233Z" fill="#CA8B35"/>
<path d="M40.4874 61.8081H125.909C130.051 61.8081 133.409 65.166 133.409 69.3081V104.923C133.409 109.065 130.051 112.423 125.909 112.423H40.4874C36.3453 112.423 32.9874 109.065 32.9874 104.923V69.3081C32.9874 65.166 36.3453 61.8081 40.4874 61.8081Z" fill="#FBFBFC" stroke="#E0E0E8"/>
<path d="M73.1899 100.522C80.3513 93.5369 80.3513 82.2112 73.1899 75.2257C66.0285 68.2402 54.4176 68.2402 47.2562 75.2257C40.0948 82.2112 40.0948 93.5369 47.2562 100.522C54.4176 107.508 66.0285 107.508 73.1899 100.522Z" fill="#F3F3F6"/>
<path d="M60.2246 71.4976C50.9521 71.4976 43.4344 78.829 43.4344 87.8738C43.4344 94.0697 46.9631 99.4624 52.1666 102.244C54.8562 97.3845 60.2246 87.8738 60.2246 87.8738L68.1743 102.301C73.4375 99.536 77.0132 94.1126 77.0132 87.8738C77.0134 78.829 69.4973 71.4976 60.2246 71.4976Z" fill="#99DBAA"/>
<path d="M122.507 77.8818H92.1278C91.027 77.8818 90.1261 78.7604 90.1261 79.8344C90.1261 80.9083 91.027 81.7869 92.1278 81.7869H122.507C123.608 81.7869 124.509 80.9083 124.509 79.8344C124.509 78.7604 123.608 77.8818 122.507 77.8818Z" fill="#F3F3F6"/>
<path d="M122.507 85.9214H92.1278C91.027 85.9214 90.1261 86.8 90.1261 87.8739C90.1261 88.9478 91.027 89.8264 92.1278 89.8264H122.507C123.608 89.8264 124.509 88.9478 124.509 87.8739C124.509 86.8 123.608 85.9214 122.507 85.9214Z" fill="#F3F3F6"/>
<path d="M122.507 93.9614H92.1278C91.027 93.9614 90.1261 94.8402 90.1261 95.9141C90.1261 96.9879 91.027 97.8666 92.1278 97.8666H122.507C123.608 97.8666 124.509 96.988 124.509 95.9141C124.509 94.8402 123.608 93.9614 122.507 93.9614Z" fill="#F3F3F6"/>
<path d="M60.843 80.0522H51.7307C51.2123 80.0522 50.7881 80.4661 50.7881 80.9717C50.7881 81.4774 51.2123 81.8912 51.7307 81.8912H60.843C61.3614 81.8912 61.7856 81.4774 61.7856 80.9717C61.7856 80.4661 61.3614 80.0522 60.843 80.0522Z" fill="#00A42B"/>
<path d="M53.8061 83.3984H51.7308C51.2124 83.3984 50.7882 83.8122 50.7882 84.3179C50.7882 84.8237 51.2124 85.2374 51.7308 85.2374H53.8061C54.3246 85.2374 54.7487 84.8237 54.7487 84.3179C54.7487 83.8122 54.3246 83.3984 53.8061 83.3984Z" fill="#00A42B"/>
<path d="M428.715 259.863L426.342 269.614L422.786 269.595L422.656 259.863H428.715Z" fill="#F9D0C3"/>
<path d="M398.81 260.279L392.057 269.615L389.425 266.318L393.489 258.996L398.81 260.279Z" fill="#F9D0C3"/>
<path d="M416.368 131.727C417.595 131.047 419.066 130.973 420.095 131.032C419.83 130.765 419.309 130.668 419.309 130.668C419.947 130.575 421.371 131.193 421.371 131.193C430.244 127.857 431.639 140.602 431.453 143.563C431.268 146.524 434.435 147.491 439.051 149.824C447.86 154.275 448.634 160.236 448.634 160.236C448.565 160.275 448.494 160.32 448.417 160.371C447.98 159.649 447.081 158.293 446.322 158.088C446.351 158.154 447.219 159.955 447.542 160.988C444.944 162.916 440.082 167.189 436.694 170.218C436.709 169.626 436.685 168.785 436.463 168.342L436.045 170.8C434.232 172.426 432.982 173.57 432.982 173.57C433.205 171.177 421.887 158.55 415.982 154.768C414.545 152.704 414.034 149.058 413.996 148.771C414.244 151.662 414.751 153.284 415.204 154.197C410.204 149.708 413.115 133.53 416.368 131.727Z" fill="black"/>
<path d="M416.332 154.957C416.302 154.97 419.183 156.429 421.35 155.851C423.388 155.309 424.719 152.731 424.691 152.725C423.828 152.558 423.58 151.401 423.598 146.429L423.207 146.504L416.646 147.771C416.646 147.771 416.796 149.786 416.8 151.683C416.805 153.276 416.706 154.787 416.332 154.957Z" fill="#F9D0C3"/>
<path d="M423.751 133.815C423.751 133.815 420.515 130.454 416.451 133.643C416.451 133.643 418.816 133.244 423.751 133.815Z" fill="#8B0E50"/>
<path d="M416.647 147.771C416.647 147.771 416.796 149.785 416.8 151.683C420.472 151.582 422.412 148.315 423.208 146.504L416.647 147.771Z" fill="#F6B8A6"/>
<path d="M423.885 145.807C423.885 145.807 425.809 142.842 426.271 140.306C426.601 138.496 425.655 131.785 418.743 132.752C418.743 132.752 416.735 132.945 414.847 134.188C413.347 135.177 411.181 137.312 413.602 143.167L414.232 145.145L423.885 145.807Z" fill="black"/>
<path d="M390.496 263.759L393.974 263.862L397.738 263.975C397.738 263.975 406.434 254.532 411.311 239.394C411.425 239.042 411.545 238.686 411.672 238.325C414.341 230.733 419.875 221.203 422.791 212.578C423.255 211.204 423.672 209.911 424.046 208.686C424.166 208.294 424.282 207.909 424.393 207.53C426.542 200.247 427.165 195.464 427.738 190.355L406.68 190.519C406.68 190.519 403.281 225.409 390.496 263.759Z" fill="#3B424A"/>
<path d="M409.629 178.717C409.682 188.491 408.159 192.685 408.159 192.685C408.159 192.685 417.175 197.153 427.89 193.864C428.016 193.825 436.763 191.878 436.763 191.878C436.583 191.482 434.989 184.895 434.814 184.532C432.552 179.793 430.834 177.715 430.565 176.258C430.068 173.538 430.057 170.724 430.305 168.069C430.959 161.042 432.903 155.209 432.903 155.209C429.984 154.561 427.174 153.453 424.135 152.341C423.436 153.19 421.375 154.049 419.521 154.008C417.386 153.962 416.72 153.082 416.798 152.09C414.524 153.324 412.715 154.499 412.715 154.499C410.782 157.774 406.861 160.955 406.578 165.98C406.507 167.215 409.627 178.443 409.629 178.717Z" fill="#F3F3F6"/>
<path d="M415.42 149.567C415.42 149.567 424.107 149.707 424.113 144.429C424.119 139.151 425.244 135.615 419.698 135.302C414.152 134.99 413.072 137.003 412.631 138.764C412.19 140.525 413.161 149.395 415.42 149.567Z" fill="#F9D0C3"/>
<path d="M412.889 135.829C414.23 134.245 415.244 134.589 415.813 135.065C417.69 132.329 423.623 136.286 423.623 136.286C424.204 140.073 427.004 142.242 427.004 142.242C427.004 142.242 425.42 143.196 421.77 142.281C418.898 141.56 416.813 137.572 416.055 135.906C415.539 136.354 414.449 137.389 414.122 138.402C413.689 139.746 413.494 142.513 412.668 142.419C412.668 142.419 410.876 138.21 412.889 135.829Z" fill="black"/>
<path d="M426.461 269.069C426.461 269.069 426.175 271 426.914 273.067C426.914 273.067 427.496 275.653 424.884 275.701C422.273 275.749 421.633 275.509 421.928 273.923C422.224 272.337 422.786 269.594 422.786 269.594L426.461 269.069Z" fill="#F9D0C3"/>
<path d="M421.682 276.97C421.682 276.97 421.685 276.972 421.691 276.976H427.093C427.099 276.972 427.102 276.97 427.102 276.97C427.397 275.618 426.914 273.07 426.914 273.07C423.957 275.827 422.107 273 422.107 273C421.627 274.18 421.682 276.97 421.682 276.97Z" fill="#AE1164"/>
<path d="M383.132 274.303C383.132 274.303 387.947 268.97 389.425 266.318L393.004 268.107L385.003 275.437L383.13 275.197L383.132 274.303Z" fill="#F9D0C3"/>
<path d="M380.18 276.961H386.859C387.447 276.445 388.008 275.403 388.695 274.037C389.089 273.254 389.971 272.823 390.875 272.586V276.961H392.257L393.537 272.309C394.389 270.751 393.749 269.321 393.15 268.09C392.452 268.088 390.429 268.58 386.873 272.566C385.704 273.875 384.415 274.342 383.132 274.303C383.115 274.314 383.097 274.324 383.08 274.331C381.054 275.237 380.394 276.35 380.18 276.961Z" fill="#AE1164"/>
<path d="M380.503 158.327C380.503 158.327 386.206 161.437 388.242 162.334C388.967 162.652 390.279 163.248 391.62 163.859C392.429 164.228 393.249 164.603 393.957 164.929C395.155 165.477 396.579 165.177 397.44 164.196C400.527 160.679 408.518 153.057 416.77 152.102L416.798 152.09C416.798 152.09 416.797 152.093 416.795 152.099C416.798 152.098 416.802 152.098 416.805 152.098L416.759 152.184C416.295 153.309 411.772 164.334 411.632 166.659C411.484 169.11 411.04 206.739 411.04 206.739C411.04 206.739 411.336 208.469 407.937 207.748C404.537 207.028 403.65 206.307 403.65 206.307C403.65 206.307 406.902 183.095 406.015 175.021C405.841 173.437 405.998 171.657 406.361 169.818C401.336 172.787 395.41 174.108 395.41 174.108C395.41 174.108 393.201 173.168 389.766 171.092C388.325 170.219 386.653 168.828 385.007 167.357C383.019 165.579 379.597 161.284 379.597 161.284L380.503 158.327Z" fill="#AE1164"/>
<path d="M393.974 263.862L397.738 263.975C397.738 263.975 406.434 254.532 411.311 239.394C411.425 239.042 411.545 238.686 411.672 238.325C414.341 230.733 419.875 221.203 422.791 212.578C423.255 211.204 423.672 209.91 424.046 208.686C424.166 208.294 424.282 207.909 424.393 207.53L421.292 205.235C421.292 205.235 411.982 219.94 409.1 233.78C406.596 245.801 396.569 260.265 393.974 263.862Z" fill="#131C26"/>
<path d="M420.969 235.068C420.915 241.798 421.264 257.271 422.163 263.676H425.497C427.341 263.676 428.26 263.65 428.26 263.65C430.514 252.513 432.118 243.297 433.285 235.356C434.243 228.84 435.094 223.253 435.749 218.444C436.408 213.604 436.866 209.551 437.03 206.127C437.055 205.588 437.075 205.063 437.085 204.554C437.095 204.042 437.098 203.545 437.094 203.062L418.899 201.332C419.129 213.124 420.998 231.157 420.969 235.068Z" fill="#3B424A"/>
<path d="M425.497 263.677C427.34 263.677 428.26 263.651 428.26 263.651C430.514 252.513 432.117 243.298 433.285 235.357C434.243 228.84 435.094 223.254 435.749 218.444C436.408 213.604 436.866 209.551 437.03 206.127L430.354 209.958C430.354 209.958 434.615 211.424 432.989 222.526C431.364 233.627 427.76 262.105 425.497 263.677Z" fill="#131C26"/>
<path d="M424.638 206.018C424.638 206.018 425.92 210.535 430.354 209.958C434.788 209.381 441.093 206.786 441.093 206.786C441.093 206.786 439.198 200.946 436.842 193.273C433.99 183.984 430.459 172.009 428.794 164.456C428.327 162.339 428.008 160.572 427.89 159.306L424.135 152.341C424.135 152.341 418.726 164.352 418.43 167.38C418.135 170.407 424.638 206.018 424.638 206.018Z" fill="#AE1164"/>
<path d="M408.802 170.759C410.936 171.033 411.755 172.139 412.018 173.631C412.16 174.437 412.586 175.233 412.947 175.795C415.073 175.906 420.136 176.175 424.389 176.438L424.74 181.879C421.246 181.455 416.952 180.59 412.011 178.94C411.631 178.877 411.156 178.647 410.562 178.172C407.5 175.726 405.762 171.629 405.757 171.043C405.751 170.456 406.668 170.486 408.802 170.759Z" fill="#F9D0C3"/>
<path d="M424.835 173.723C425.033 178.625 426.215 188.141 436.758 193.234C436.786 193.247 436.814 193.262 436.842 193.273C433.99 183.984 430.459 172.009 428.794 164.456C426.858 167.279 424.727 171.025 424.835 173.723Z" fill="#8B0E50"/>
<path d="M424.135 152.341C424.135 152.341 433.153 152.965 435.321 157.675C437.488 162.384 438.178 178.051 435.419 182.664C435.419 182.664 431.621 183.72 424.903 182.494C424.82 182.479 424.737 182.464 424.654 182.448C424.654 182.448 422.511 177.33 424.433 176.321C424.433 176.321 430.098 176.609 429.507 174.783C428.916 172.957 424.135 152.341 424.135 152.341Z" fill="#AE1164"/>
<path d="M374.39 154.631C379.242 154.022 380.466 158.327 380.466 158.327L379.56 161.284C378.065 161.485 376.756 161.105 375.55 159.422C374.345 157.739 374.013 158.385 373.246 157.133C372.206 155.434 373.833 154.801 374.39 154.631Z" fill="#F9D0C3"/>
<path d="M388.242 162.334C388.967 162.652 390.279 163.248 391.62 163.859C390.902 165.102 390.005 167.36 389.766 171.092C388.325 170.219 386.458 168.766 384.865 167.241C382.308 164.794 379.597 161.284 379.597 161.284L380.503 158.327C380.503 158.327 386.206 161.437 388.242 162.334Z" fill="#F9D0C3"/>
</svg>
