<svg xmlns="http://www.w3.org/2000/svg" width="32" height="32"><path d="M23.012973,14.0002519 C24.2880664,14.0002519 25.4536436,14.7209089 26.0233098,15.86127 L26.0233098,15.86127 L31.657908,27.1304664 C32.1792209,28.1736788 32.1232568,29.4124283 31.5099991,30.4043832 C30.8967611,31.3963063 29.8136805,31.9999997 28.6474705,31.9999997 L28.6474705,31.9999997 L17.3788848,31.9999997 C16.212376,32.000477 15.1288897,31.3965859 14.5157577,30.4042089 C13.9026257,29.4118319 13.8473835,28.1726485 14.3694295,27.1303499 L14.3694295,27.1303499 L20.0024748,15.8615928 C20.5723024,14.7209089 21.7378795,14.0002519 23.012973,14.0002519 Z M23.012973,16.0001919 C22.4956609,16.0001919 22.0227801,16.2925662 21.7914791,16.7555857 L21.7914791,16.7555857 L16.1579648,28.0252806 C15.946149,28.4481847 15.968548,28.950636 16.2171544,29.3530148 C16.4657609,29.7553936 16.9050819,30.0002533 17.3784754,30.0000596 L17.3784754,30.0000596 L28.6474705,30.0000596 C29.120681,30.0000596 29.5601113,29.7551276 29.8088987,29.3527095 C30.0577006,28.9502682 30.0804055,28.4477011 29.8690067,28.0246655 L29.8690067,28.0246655 L24.2343478,16.7553476 C24.0031658,16.2925662 23.530285,16.0001919 23.012973,16.0001919 Z M23.012973,26.0001794 L23.0667715,26.0011262 C23.8702558,26.0294514 24.512928,26.6897408 24.512928,27.5001344 C24.512928,28.3285366 23.8413752,29.0000893 23.012973,29.0000893 C22.1845707,29.0000893 21.513018,28.3285366 21.513018,27.5001344 C21.513018,26.6897408 22.1556901,26.0294514 22.9591744,26.0011262 L23.012973,26.0001794 Z M23.0135736,19.0003894 C23.5499206,19.0003894 23.9877025,19.4221431 24.0129904,19.95191 L24.0141442,20.0003594 L24.0141442,24.0002394 C24.0141442,24.5525076 23.5661735,25.0002094 23.0135736,25.0002094 C22.4772266,25.0002094 22.0394447,24.5784557 22.0141568,24.0486888 L22.013003,24.0002394 L22.013003,20.0003594 C22.013003,19.4480912 22.4609737,19.0003894 23.0135736,19.0003894 Z M21.4242812,7.4861183 L21.4766417,7.64648716 L21.5496729,7.61461108 C24.0696665,6.52446126 27.0351042,6.89117056 29.228849,8.66130323 L29.3117824,8.72919797 C31.8985829,10.8776974 32.7376583,14.4861673 31.3641691,17.5555507 C31.1385945,18.0596501 30.5470768,18.2854391 30.0429774,18.0598644 C29.538878,17.8342898 29.313089,17.2427721 29.5386637,16.7386727 C30.5456285,14.488374 29.9304657,11.8428475 28.0339695,10.2676889 C26.1374733,8.69253031 23.4239804,8.57340029 21.3967393,9.97629569 C20.8011967,10.3884242 19.9786769,10.0504622 19.8449337,9.33868024 C18.9667041,4.66474135 14.6035547,1.48084584 9.88449471,2.07030749 C5.16543477,2.65976914 1.71953366,6.81909958 2.0180011,11.565457 C2.31348381,16.2643499 6.17783789,19.9327041 10.8708692,19.9994509 L11.0133331,20.0003685 L14.013243,20.0003685 C14.5655112,20.0003685 15.013213,20.4480703 15.013213,21.0003385 C15.013213,21.5363635 14.5914593,21.9738826 14.0616925,21.9991553 L14.013243,22.0003175 L11.0146657,22.0003175 C5.2021083,22.0080538 0.386797064,17.4920739 0.0220036405,11.6909723 C-0.342789902,5.88986873 3.86886701,0.806242644 9.63660694,0.0857895127 C14.8898645,-0.570399199 19.7822635,2.59922858 21.4242812,7.4861183 Z"/></svg>