<svg xmlns="http://www.w3.org/2000/svg" width="32" height="32"><path d="M11.4285715,0 C5.11674574,0 0,5.11674574 0,11.4285715 C0,17.7403972 5.11674574,22.857143 11.4285715,22.857143 L25.1428572,22.857143 C28.9299527,22.857143 32,19.7870955 32,16 C32,12.2129046 28.9299527,9.14285718 25.1428572,9.14285718 L24.6467945,9.16250021 C24.1530564,9.20005602 23.6671924,9.29103772 23.1973024,9.43263354 L22.7085715,9.60000004 L22.6916313,9.47966304 C21.7666914,4.09623135 17.0759945,0 11.4285715,0 Z M11.4285715,2.2857143 C16.3250181,2.2857143 20.3224661,6.1347851 20.5602394,10.9722507 L20.5714287,11.456 C20.5714287,12.4036181 21.6583643,12.9395684 22.410103,12.3626206 C23.195345,11.7599596 24.1567472,11.431801 25.146593,11.4285654 C27.6675875,11.4285715 29.7142858,13.4752698 29.7142858,16.0000001 C29.7142858,18.5247304 27.6675875,20.5714287 25.1428572,20.5714287 L11.4285715,20.5714287 C6.37911089,20.5714287 2.2857143,16.4780321 2.2857143,11.4285715 C2.2857143,6.37911089 6.37911089,2.2857143 11.4285715,2.2857143 Z"/></svg>