<svg xmlns="http://www.w3.org/2000/svg" width="32" height="32"><path d="M18.6189068,15.1459983 C21.3841325,13.5988861 24.7633082,13.6189784 27.5125871,15.2062754 C30.2971132,16.8139223 32.012452,19.7849763 32.012452,23.00027 C32.012452,26.2155639 30.2971132,29.1866179 27.5125871,30.7942648 C24.728061,32.4019117 21.2973834,32.4019117 18.5128573,30.7942648 C15.7283312,29.1866179 14.0129924,26.2155639 14.0129924,23.00027 C14.0129924,19.7849763 15.7283312,16.8139223 18.5128573,15.2062754 L18.5128573,15.2062754 Z M26.5126171,16.9382742 C24.3468746,15.6878821 21.6785698,15.6878821 19.5128273,16.9382742 C17.3470848,18.1886662 16.0129324,20.499486 16.0129324,23.00027 C16.0129324,25.5010542 17.3470848,27.811874 19.5128273,29.062266 C21.6785698,30.3126581 24.3468746,30.3126581 26.5126171,29.062266 C28.6783597,27.811874 30.012512,25.5010542 30.012512,23.00027 C30.012512,20.499486 28.6783596,18.1886662 26.5126171,16.9382742 Z M27.1772029,19.8731521 C27.6055024,20.1937687 27.7034531,20.791932 27.4082656,21.2309532 L27.3784697,21.2729277 L23.5109965,26.4393364 C23.1629962,26.9027296 22.6311025,27.1923883 22.0530345,27.2333134 C21.4990526,27.2725334 20.9548706,27.0796197 20.5497355,26.7027911 L20.497691,26.6526006 L18.497751,24.6526606 C18.1072384,24.262148 18.1072384,23.6290021 18.497751,23.2384895 C18.8756664,22.8605741 19.4808139,22.8483833 19.8733894,23.201917 L19.9119221,23.2384895 L21.9115998,25.2381875 L25.7774273,20.0744189 C26.1083864,19.6323033 26.7350872,19.5421931 27.1772029,19.8731521 Z M21.4238226,7.48476035 L21.4761843,7.64534427 L21.5697813,7.60455729 C23.288583,6.86712531 25.2399048,6.79277792 27.0334553,7.43028879 L27.1430641,7.47020994 C29.4405692,8.32724988 31.1733529,10.2542222 31.7824514,12.6295213 C31.9196313,13.164481 31.597167,13.7093577 31.0622074,13.8465375 C30.5272477,13.9837173 29.982371,13.6612531 29.8451912,13.1262934 C29.3986634,11.3849709 28.1283665,9.97231508 26.4440745,9.34402245 C24.7597825,8.71572982 22.8746426,8.95131081 21.3967659,9.97477135 C20.8012908,10.3871503 19.9785639,10.0493306 19.844708,9.33748119 C18.9658789,4.66384427 14.6025888,1.48057393 9.88376183,2.07039981 C5.16493485,2.66022569 1.71942631,6.81955036 2.01801738,11.5657137 C2.31660839,16.311876 6.25623018,20.0065884 11.0117749,20.0003698 C11.5640426,19.9996476 12.0123295,20.4467636 12.0130516,20.9990313 C12.0137738,21.5512989 11.5666578,21.9995858 11.0143901,22.0003176 C5.20205994,22.0079086 0.386968058,17.4921502 0.0220235308,11.6912858 C-0.342921111,5.89041956 3.868256,0.806800517 9.6357112,0.0859022211 C14.8887094,-0.570691947 19.7812279,2.59826579 21.4238226,7.48476035 Z"/></svg>