<svg xmlns="http://www.w3.org/2000/svg" width="32" height="32"><path d="M20.0121125,23.9990995 C20.5643544,23.9990995 21.012035,24.4467801 21.012035,24.999022 C21.012035,25.5350215 20.5903013,25.9725199 20.0605596,25.9977914 L20.0121125,25.9989445 L17.2519199,25.9987157 C18.1641389,28.2380362 20.2847987,29.8156297 22.7675944,29.9850793 C25.6711532,30.1832458 28.3456848,28.4061117 29.2879201,25.6525474 C29.4667124,25.1300491 30.0352208,24.8514204 30.5577191,25.0302128 C31.0802174,25.2090051 31.3588461,25.7775135 31.1800537,26.3000118 C29.9447133,29.9101391 26.4382038,32.2400939 22.6314227,31.9802829 C19.8443585,31.790067 17.4053561,30.246434 16.0108658,27.9636333 L16.0124225,29.9986345 C16.0124225,30.534634 15.5906888,30.9721324 15.0609471,30.9974039 L15.0125,30.998557 C14.4765004,30.998557 14.0390021,30.5768233 14.0137306,30.0470816 L14.0125775,29.9986345 L14.0125775,24.999022 C14.0125775,24.4630225 14.4343111,24.0255241 14.9640528,24.0002526 L15.0125,23.9990995 L20.0121125,23.9990995 Z M26.0116475,21.9992545 C25.4594055,21.9992545 25.011725,21.5515739 25.011725,20.999332 C25.011725,20.4633325 25.4334586,20.0258341 25.9632003,20.0005626 L26.0116475,19.9994095 L28.771436,19.9986466 C27.8589949,17.7598521 25.7385947,16.1826993 23.2561656,16.0132747 C20.3526068,15.8151082 17.6780752,17.5922423 16.7358399,20.3458066 C16.5570475,20.8683049 15.9885391,21.1469336 15.4660408,20.9681412 C14.9435426,20.7893489 14.6649139,20.2208405 14.8437062,19.6983422 C16.0790466,16.0882149 19.5855561,13.7582601 23.3923373,14.0180711 C26.178782,14.2082447 28.6173196,15.7512339 30.0119642,18.0331987 L30.0113375,15.9997195 C30.0113375,15.46372 30.4330711,15.0262216 30.9628128,15.0009501 L31.01126,14.999797 C31.5472595,14.999797 31.9847579,15.4215307 32.0100294,15.9512724 L32.0111825,15.9997195 L32.0111825,20.999332 C32.0111825,21.5353315 31.5894488,21.9728299 31.0597071,21.9981014 L31.01126,21.9992545 L26.0116475,21.9992545 Z"/><path d="M9.63614926,0.0857854381 C14.8891573,-0.570372108 19.7813239,2.59910513 21.4232636,7.48576275 L21.4758503,7.64680965 L21.5742344,7.60405504 C23.1247503,6.94100089 24.8683237,6.81514414 26.51941,7.27247885 L26.6318374,7.30456501 C28.8025333,7.94238993 30.5687043,9.52705758 31.4372676,11.6161577 C31.6492742,12.1260836 31.4077629,12.7113254 30.897837,12.923332 C30.3879111,13.1353385 29.8026693,12.8938272 29.5906627,12.3839013 C28.9539636,10.8524895 27.6592744,9.69085107 26.0680489,9.22329442 C24.5099738,8.76547853 22.8310257,9.02114877 21.4812975,9.91780641 L21.3955961,9.97590969 C20.800073,10.3878888 19.9777158,10.0499194 19.8439911,9.3382367 C18.9658033,4.6645198 14.6028611,1.4807755 9.88402525,2.07020916 C5.16518944,2.65964282 1.71945199,6.81877571 2.01790526,11.5649077 C2.31635846,16.3110387 6.25597265,20.0057569 11.0114774,19.9994195 C11.5637189,19.9986835 12.0119956,20.4457671 12.0127316,20.9980085 C12.0134675,21.55025 11.566384,21.9985267 11.0141425,21.9992726 C5.20186123,22.0070085 0.386778693,17.4912431 0.0220025955,11.690417 C-0.342773621,5.889589 3.86868326,0.806204351 9.63614926,0.0857854381 Z"/></svg>