<svg xmlns="http://www.w3.org/2000/svg" width="32" height="32"><path d="M26.667,14.667 L7.81699997,14.667 L12.9999999,8.88999997 C13.21,8.65499997 13.339,8.34199997 13.339,7.99999997 C13.339,7.26099996 12.74,6.66099996 11.9999999,6.66099996 C11.603,6.66099996 11.246,6.83399996 11.001,7.10799996 L10.9999999,7.10899996 L4.72999995,14.109 C4.27699995,14.6 3.99999995,15.258 3.99999995,15.982 C3.99999995,15.988 3.99999995,15.994 3.99999995,16 L3.99999995,15.999 C3.99999995,16.005 3.99999995,16.013 3.99999995,16.02 C3.99999995,16.739 4.27599995,17.394 4.72799995,17.884 L4.72599995,17.882 L10.999,24.889 C11.245,25.165 11.602,25.338 11.999,25.338 C12.738,25.338 13.338,24.739 13.338,23.999 C13.338,23.657 13.21,23.344 12.998,23.108 L12.999,23.109 L7.80899997,17.332 L26.666,17.332 C27.402,17.332 27.999,16.735 27.999,15.999 C27.999,15.263 27.402,14.666 26.666,14.666 L26.666,14.666 L26.667,14.667 Z"/></svg>