<?xml version="1.0" encoding="UTF-8"?>
<svg width="32px" height="32px" viewBox="0 0 32 32" version="1.1" xmlns="http://www.w3.org/2000/svg" xmlns:xlink="http://www.w3.org/1999/xlink">
    <title>bell</title>
    <g id="+icon/+Streamline/light/interface-alert-alarm-bell-2" stroke="none" stroke-width="1" fill="none" fill-rule="evenodd">
        <path d="M19.5073515,27.0519025 L19.7109612,27.0848207 C20.3225723,27.2407817 20.6919507,27.8630262 20.5359911,28.4746426 C20.0072585,30.5481383 18.1398285,31.999148 15.9999999,31.999148 C13.8601714,31.999148 11.9927414,30.5481383 11.4640088,28.4746426 C11.3080492,27.8630262 11.6774276,27.2407817 12.2890387,27.0848207 C12.9006497,26.9288597 13.5228886,27.2982415 13.6788482,27.9098579 C13.9494106,28.9709045 14.9050096,29.7134134 15.9999999,29.7134134 C17.0949903,29.7134134 18.0505893,28.9709045 18.3211517,27.9098579 C18.4597824,27.3661989 18.9668314,27.0139351 19.5073515,27.0519025 Z M15.9999999,-4.99998354e-08 C18.9013168,-4.99998354e-08 21.6838033,1.15255381 23.7353441,3.20411285 C25.7868849,5.25567188 26.9394285,8.03818305 26.9394285,10.9395257 C26.9394285,19.0203864 29.2188814,22.8573458 30.8571428,22.8573458 L30.8571428,22.8573458 L31.0970017,22.8777261 C32.3009994,23.0909359 32.3009994,24.9094902 31.0970017,25.1227 L31.0970017,25.1227 L30.8571428,25.1430803 L1.14285709,25.1430803 L0.902998186,25.1227 C-0.376249315,24.8961646 -0.296296346,22.8573458 1.14285709,22.8573458 L1.14285709,22.8573458 L1.29351854,22.8467511 C2.9176525,22.6206155 5.06057138,18.7707241 5.06057138,10.9395257 L5.06057138,10.9395257 L5.0712301,10.4522363 C5.32615016,4.63662454 10.121609,-4.99998354e-08 15.9999999,-4.99998354e-08 Z M15.9999999,2.28573453 C11.2206855,2.28573453 7.34628566,6.16016879 7.34628566,10.9395257 L7.34628566,10.9395257 L7.33760289,11.7885284 C7.23391504,16.8091912 6.21068276,20.5065493 4.75917088,22.7219149 L4.75917088,22.7219149 L4.66514281,22.8573458 L27.3325714,22.8573458 L27.2414758,22.7233967 C25.7788579,20.4921596 24.7506534,16.7560384 24.6602022,11.6745826 L24.6602022,11.6745826 L24.6537142,10.9395257 C24.6537142,8.64439755 23.7419862,6.44327192 22.1191,4.82037127 C20.4962138,3.19747062 18.2951077,2.28573453 15.9999999,2.28573453 Z" id="Combined-Shape" fill="#131C26"></path>
    </g>
</svg>