<svg xmlns="http://www.w3.org/2000/svg" width="32" height="32"><path d="M3.42857 0C1.53502 0 0 1.53502 0 3.42857V28.5714C0 30.465 1.53502 32 3.42857 32H28.5714C30.465 32 32 30.465 32 28.5714V3.42857C32 1.53502 30.465 0 28.5714 0H3.42857ZM3.42857 2.28571H28.5714C29.2026 2.28571 29.7143 2.79739 29.7143 3.42857V28.5714C29.7143 29.2026 29.2026 29.7143 28.5714 29.7143H3.42857C2.79739 29.7143 2.28572 29.2026 2.28572 28.5714V3.42857C2.28572 2.79739 2.79739 2.28571 3.42857 2.28571ZM24 9.14286C23.4389 9.14286 22.9723 9.54714 22.8756 10.0803L22.8571 10.2857V21.7143C22.8571 22.3455 23.3688 22.8571 24 22.8571C24.5611 22.8571 25.0277 22.4529 25.1244 21.9197L25.1429 21.7143V10.2857C25.1429 9.65453 24.6312 9.14286 24 9.14286ZM14.049 10.6204C13.6523 11.0172 13.6082 11.633 13.9168 12.0784L14.049 12.2367L16.67 14.856L8 14.8571C7.36882 14.8571 6.85714 15.3688 6.85714 16C6.85714 16.5611 7.26143 17.0277 7.79457 17.1244L8 17.1429L16.672 17.142L14.049 19.7633C13.6523 20.16 13.6082 20.7759 13.9168 21.2213L14.049 21.3796C14.4457 21.7763 15.0616 21.8204 15.507 21.5118L15.6653 21.3796L20.2367 16.8081C20.287 16.757 20.3264 16.7098 20.3619 16.6597L20.2367 16.8081C20.3017 16.7431 20.3572 16.6723 20.4033 16.5973C20.421 16.5681 20.4375 16.5384 20.4527 16.5079C20.468 16.4772 20.4821 16.4452 20.4946 16.4128C20.5054 16.3849 20.5151 16.3568 20.5236 16.3281C20.5319 16.3 20.5393 16.2712 20.5456 16.2423C20.5533 16.2069 20.5594 16.1706 20.5637 16.1339C20.5668 16.107 20.5689 16.0802 20.5702 16.0533C20.571 16.0356 20.5714 16.0178 20.5714 16L20.5703 15.9488C20.569 15.9205 20.5667 15.8923 20.5634 15.8642L20.5714 16C20.5714 15.9169 20.5626 15.8358 20.5457 15.7578C20.5398 15.7308 20.533 15.7041 20.5252 15.6775C20.5154 15.6438 20.5038 15.6102 20.4907 15.5773C20.4806 15.5518 20.4695 15.5266 20.4574 15.5017C20.4371 15.46 20.4143 15.4195 20.3892 15.3806C20.3829 15.3707 20.376 15.3604 20.3689 15.3502C20.3292 15.2935 20.2886 15.2447 20.2443 15.1996L20.2367 15.1919L15.6653 10.6204C15.219 10.1741 14.4953 10.1741 14.049 10.6204Z"/></svg>