<svg width="32" height="33" viewBox="0 0 32 33" fill="none" xmlns="http://www.w3.org/2000/svg">
<g clip-path="url(#clip0_3676_642808)">
<path d="M30.333 25.333C30.333 26.526 29.573 29.416 26.333 30.043V31.166C26.333 31.902 25.736 32.499 25 32.499C24.264 32.499 23.667 31.902 23.667 31.166V30.073C19.717 29.473 19.667 26.243 19.667 26.206H22.334V26.166C22.334 26.389 22.551 27.499 25.001 27.499C27.451 27.499 27.668 25.832 27.668 25.316C27.668 24.8 27.425 23.166 25.001 23.166C20.624 23.166 19.668 19.676 19.668 18.333C19.668 17.14 20.428 14.25 23.668 13.623V12.5C23.668 11.764 24.265 11.167 25.001 11.167C25.737 11.167 26.334 11.764 26.334 12.5V13.593C30.284 14.193 30.334 17.423 30.334 17.46H27.667V17.5C27.667 17.277 27.45 16.167 25 16.167C22.55 16.167 22.333 17.834 22.333 18.35C22.333 18.866 22.576 20.5 25 20.5C29.377 20.5 30.333 23.99 30.333 25.333ZM20.333 8.5C20.333 4.082 16.751 0.5 12.333 0.5C7.91504 0.5 4.33304 4.082 4.33304 8.5C4.33304 12.918 7.91504 16.5 12.333 16.5C16.751 16.5 20.333 12.918 20.333 8.5ZM17.667 8.5C17.667 11.446 15.279 13.833 12.334 13.833C9.38904 13.833 7.00104 11.445 7.00104 8.5C7.00104 5.554 9.38904 3.167 12.334 3.167C15.28 3.167 17.667 5.555 17.667 8.5ZM15.667 32.5H4.30404C4.30304 32.5 4.30304 32.5 4.30204 32.5C3.46504 32.5 2.72104 32.103 2.24804 31.486L2.24304 31.48C1.88204 31.011 1.66504 30.415 1.66504 29.768C1.66504 29.555 1.68904 29.347 1.73304 29.148L1.72904 29.167C1.76204 28.815 1.81804 28.495 1.89804 28.185L1.88904 28.227C1.98904 27.827 3.57904 21.56 4.86204 19.79C6.77904 17.167 9.96904 17.167 10.382 17.167H13.382C13.898 17.172 14.4 17.211 14.891 17.284L14.832 17.277C15.482 17.374 15.974 17.928 15.974 18.597C15.974 19.334 15.377 19.931 14.64 19.931C14.572 19.931 14.506 19.926 14.441 19.916L14.448 19.917C14.139 19.868 13.779 19.838 13.413 19.834H13.408H10.305C10.305 19.834 8.17204 19.791 7.01504 21.371C6.41504 22.191 5.17804 26.014 4.47504 28.888V28.928C4.43404 29.088 4.40304 29.277 4.38904 29.47L4.38804 29.481C4.38104 29.573 4.36604 29.658 4.34204 29.74L4.34404 29.731C4.33404 29.752 4.32804 29.777 4.32804 29.804C4.32804 29.815 4.32904 29.825 4.33104 29.836V29.835H15.664C16.4 29.835 16.997 30.432 16.997 31.168C16.997 31.904 16.4 32.501 15.664 32.501L15.667 32.5Z" fill="#131C26"/>
</g>
<defs>
<clipPath id="clip0_3676_642808">
<rect width="32" height="32" fill="white" transform="translate(0 0.5)"/>
</clipPath>
</defs>
</svg>
