<svg width="32" height="32" viewBox="0 0 32 32" xmlns="http://www.w3.org/2000/svg">
<path fill-rule="evenodd" clip-rule="evenodd" d="M27.4719 4.12028C27.797 4.2943 28 4.63316 28 5.00195V27.0019C28 27.3707 27.797 27.7096 27.4719 27.8836C27.1467 28.0576 26.7522 28.0386 26.4453 27.834L24.9334 26.8261L24.9333 26.826C20.5089 23.8771 15.3592 22.2176 10.0596 22.0216C10.1566 22.8447 10.3717 23.6514 10.6996 24.4164C11.1619 25.4951 11.8388 26.4685 12.6892 27.2774C13.0894 27.658 13.1052 28.291 12.7246 28.6911C12.344 29.0913 11.711 29.1072 11.3108 28.7265C10.2639 27.7307 9.43044 26.5323 8.86127 25.2043C8.42394 24.1838 8.14964 23.1032 8.04645 22.002H6C4.4087 22.002 2.88258 21.3698 1.75736 20.2446C0.632141 19.1194 0 17.5933 0 16.002C0 14.4107 0.632141 12.8845 1.75736 11.7593C2.88258 10.6341 4.4087 10.002 6 10.002H8.9986L8.99992 10.002C14.6707 10.0015 20.2146 8.32299 24.9333 5.1779L24.9334 5.17785L26.4453 4.1699C26.7522 3.96533 27.1467 3.94626 27.4719 4.12028ZM6 12.002H8V20.002H6C4.93913 20.002 3.92172 19.5805 3.17157 18.8304C2.42143 18.0802 2 17.0628 2 16.002C2 14.9411 2.42143 13.9237 3.17157 13.1735C3.92172 12.4234 4.93913 12.002 6 12.002ZM26 25.1335C21.2401 21.9723 15.6985 20.2042 10 20.0183V11.9856C15.6985 11.7997 21.2401 10.0316 26 6.87041V25.1335ZM32 14.002C32 13.4497 31.5523 13.002 31 13.002C30.4477 13.002 30 13.4497 30 14.002V18.002C30 18.5542 30.4477 19.002 31 19.002C31.5523 19.002 32 18.5542 32 18.002V14.002Z" />
</svg>
