<svg xmlns="http://www.w3.org/2000/svg" width="32" height="32">
<path d="M16.8244 0.0124811L16.8263 0.0124811C17.0819 0.0121101 17.3271 0.113108 17.5083 0.293308L31.4275 14.1342C31.6082 14.3137 31.7516 14.5272 31.8494 14.7624C31.9473 14.9975 31.9977 15.2497 31.9977 15.5044C31.9977 15.7591 31.9473 16.0113 31.8494 16.2464C31.7516 16.4816 31.6082 16.6951 31.4275 16.8746L17.5083 30.7194C17.3254 30.8987 17.079 30.9985 16.8229 30.997C16.5667 30.9956 16.3215 30.8929 16.1408 30.7114C15.96 30.5299 15.8584 30.2844 15.858 30.0283C15.8575 29.7722 15.9584 29.5263 16.1386 29.3443L30.0608 15.5063L16.1386 1.66839C16.0024 1.53329 15.9093 1.36077 15.8713 1.17273C15.8333 0.984691 15.852 0.789595 15.925 0.612194C15.9981 0.434794 16.1222 0.283084 16.2816 0.176313C16.4411 0.0695412 16.6286 0.0125198 16.8205 0.0124811L16.8234 0.0124811L16.8244 0.0124811ZM1.28464 0.29621C1.19397 0.385901 1.12199 0.492677 1.07287 0.610359C1.02374 0.728042 0.998449 0.854294 0.998449 0.981813C0.998449 1.10933 1.02374 1.23559 1.07287 1.35327C1.12199 1.47095 1.19397 1.57773 1.28464 1.66742L15.2107 15.5054L1.28852 29.3433C1.1971 29.433 1.12435 29.5398 1.07443 29.6577C1.02452 29.7756 0.998441 29.9023 0.997696 30.0303C0.996951 30.1583 1.02156 30.2852 1.07009 30.4037C1.11863 30.5222 1.19014 30.6299 1.2805 30.7206C1.37086 30.8113 1.47829 30.8832 1.59659 30.9323C1.71489 30.9813 1.84172 31.0064 1.96978 31.0062C2.09785 31.006 2.2246 30.9805 2.34274 30.9311C2.46089 30.8817 2.56809 30.8094 2.65816 30.7184L16.5803 16.8737C16.761 16.6941 16.9044 16.4806 17.0023 16.2455C17.1001 16.0103 17.1505 15.7581 17.1505 15.5034C17.1505 15.2487 17.1001 14.9966 17.0023 14.7614C16.9044 14.5262 16.761 14.3127 16.5803 14.1332L2.65816 0.292337C2.56845 0.201691 2.46164 0.129731 2.34393 0.0806198C2.22621 0.0315084 2.09993 0.00622213 1.97237 0.00622212C1.84482 0.0062221 1.71853 0.0315084 1.60082 0.0806197C1.4831 0.129731 1.3763 0.201691 1.28658 0.292337L1.28464 0.29621Z"/>
</svg>
