<svg xmlns="http://www.w3.org/2000/svg" width="32" height="32">
<path d="M15.1756 31.9875H15.1737C14.9181 31.9879 14.6729 31.8869 14.4917 31.7067L0.572511 17.8658C0.391812 17.6863 0.248409 17.4728 0.150553 17.2376C0.0526967 17.0025 0.00231934 16.7503 0.00231934 16.4956C0.00231934 16.2409 0.0526967 15.9887 0.150553 15.7536C0.248409 15.5184 0.391812 15.3049 0.572511 15.1254L14.4917 1.28064C14.6746 1.10128 14.921 1.00147 15.1771 1.00296C15.4333 1.00445 15.6785 1.10712 15.8592 1.28859C16.04 1.47006 16.1416 1.71561 16.142 1.97171C16.1425 2.2278 16.0416 2.47367 15.8614 2.65572L1.93925 16.4937L15.8614 30.3316C15.9976 30.4667 16.0907 30.6392 16.1287 30.8273C16.1667 31.0153 16.148 31.2104 16.075 31.3878C16.0019 31.5652 15.8778 31.7169 15.7184 31.8237C15.5589 31.9305 15.3714 31.9875 15.1795 31.9875H15.1766H15.1756ZM30.7154 31.7038C30.806 31.6141 30.878 31.5073 30.9271 31.3896C30.9763 31.272 31.0016 31.1457 31.0016 31.0182C31.0016 30.8907 30.9763 30.7644 30.9271 30.6467C30.878 30.529 30.806 30.4223 30.7154 30.3326L16.7893 16.4946L30.7115 2.65668C30.8029 2.56702 30.8757 2.46016 30.9256 2.34226C30.9755 2.22436 31.0016 2.09775 31.0023 1.96972C31.003 1.8417 30.9784 1.71479 30.9299 1.59632C30.8814 1.47784 30.8099 1.37014 30.7195 1.27942C30.6291 1.1887 30.5217 1.11676 30.4034 1.06773C30.2851 1.01871 30.1583 0.993573 30.0302 0.993776C29.9022 0.993978 29.7754 1.01952 29.6573 1.06891C29.5391 1.11831 29.4319 1.1906 29.3418 1.2816L15.4197 15.1263C15.239 15.3059 15.0956 15.5194 14.9977 15.7545C14.8999 15.9897 14.8495 16.2419 14.8495 16.4966C14.8495 16.7513 14.8999 17.0034 14.9977 17.2386C15.0956 17.4738 15.239 17.6873 15.4197 17.8668L29.3418 31.7077C29.4316 31.7983 29.5384 31.8703 29.6561 31.9194C29.7738 31.9685 29.9001 31.9938 30.0276 31.9938C30.1552 31.9938 30.2815 31.9685 30.3992 31.9194C30.5169 31.8703 30.6237 31.7983 30.7134 31.7077L30.7154 31.7038Z"/>
</svg>
