<svg xmlns="http://www.w3.org/2000/svg" width="32" height="32">
    <title>cart</title>
    <g id="cart" stroke="none" stroke-width="1" fill="none" fill-rule="evenodd">
        <g id="+icon/+Streamline/light/catergories-phone" transform="translate(1.000000, 0.500000)" fill="#131C26">
            <path d="M8.1950714,26.5714286 C9.41798763,26.5714286 10.4093571,27.5627981 10.4093571,28.7857143 C10.4093571,30.0086306 9.41798763,31.0000001 8.1950714,31.0000001 C6.97215516,31.0000001 5.98078567,30.0086306 5.98078567,28.7857143 C5.98078567,27.5627981 6.97215516,26.5714286 8.1950714,26.5714286 Z M18.1593572,26.5714286 C19.3822734,26.5714286 20.3736429,27.5627981 20.3736429,28.7857143 C20.3736429,30.0086306 19.3822734,31.0000001 18.1593572,31.0000001 C16.9364409,31.0000001 15.9450714,30.0086306 15.9450714,28.7857143 C15.9450714,27.5627981 16.9364409,26.5714286 18.1593572,26.5714286 Z M29.2285715,-8.794781e-08 C29.8400296,-8.794781e-08 30.3357143,0.495684655 30.3357143,1.10714277 C30.3357143,1.6506611 29.9440622,2.10270417 29.4275818,2.19644808 L29.2285715,2.21428564 L25.7078572,2.21207137 L24.7785001,6.85998566 L22.567856,19.0194803 C22.5669279,19.0245847 22.5659657,19.0296756 22.5649697,19.0347528 L22.5642143,19.0385572 L21.6333455,23.6928572 C21.4404091,24.6380488 20.6620786,25.3390616 19.7232698,25.4491679 L19.4635714,25.4642858 L7.08571425,25.4642858 C6.47425613,25.4642858 5.97857139,24.968601 5.97857139,24.3571429 C5.97857139,23.8136246 6.37022353,23.3615815 6.88670392,23.2678376 L7.08571425,23.25 L19.4613572,23.25 L20.1273015,19.9279999 L4.6898571,19.9285714 C3.67534344,19.9285714 2.79857455,19.2407447 2.54716402,18.2731522 L2.51113623,18.1093663 L0.69968047,8.14414283 C0.58287204,7.49839532 0.758505517,6.83409989 1.17920034,6.3304632 C1.59990195,5.82681838 2.22233121,5.53571424 2.87857138,5.53571424 L2.87857138,5.53571424 L22.7843015,5.53499991 L23.5380831,1.77142854 C23.7310196,0.826236925 24.50935,0.125224069 25.4481589,0.0151178125 L25.7078572,-8.794781e-08 L29.2285715,-8.794781e-08 Z M2.87843509,7.74906226 L4.68989085,17.7142857 L20.5552143,17.7142857 L22.3665,7.74999997 L2.87843509,7.74906226 Z" id="Combined-Shape"></path>
        </g>
    </g>
</svg>