<svg width="32" height="32" viewBox="0 0 32 32" fill="none" xmlns="http://www.w3.org/2000/svg">
<path d="M21.333 15.5H10.666C10.4008 15.5 10.1464 15.3946 9.95891 15.2071C9.77137 15.0196 9.66602 14.7652 9.66602 14.5V7.83299C9.66602 7.56778 9.77137 7.31342 9.95891 7.12589C10.1464 6.93835 10.4008 6.83299 10.666 6.83299H21.333C21.5982 6.83299 21.8526 6.93835 22.0401 7.12589C22.2277 7.31342 22.333 7.56778 22.333 7.83299V14.5C22.333 14.7652 22.2277 15.0196 22.0401 15.2071C21.8526 15.3946 21.5982 15.5 21.333 15.5ZM11.666 13.5H20.333V8.83299H11.666V13.5ZM29.799 2.66699H27.999V1.66699C27.999 1.40178 27.8937 1.14742 27.7061 0.959885C27.5186 0.772349 27.2642 0.666992 26.999 0.666992H3.66602C3.4008 0.666992 3.14645 0.772349 2.95891 0.959885C2.77137 1.14742 2.66602 1.40178 2.66602 1.66699V6.99999H1.66602C1.4008 6.99999 1.14645 7.10535 0.958909 7.29289C0.771372 7.48042 0.666016 7.73478 0.666016 7.99999C0.666016 8.26521 0.771372 8.51956 0.958909 8.7071C1.14645 8.89464 1.4008 8.99999 1.66602 8.99999H2.66602V15.667H1.66602C1.4008 15.667 1.14645 15.7723 0.958909 15.9599C0.771372 16.1474 0.666016 16.4018 0.666016 16.667C0.666016 16.9322 0.771372 17.1866 0.958909 17.3741C1.14645 17.5616 1.4008 17.667 1.66602 17.667H2.66602V24H1.66602C1.4008 24 1.14645 24.1053 0.958909 24.2929C0.771372 24.4804 0.666016 24.7348 0.666016 25C0.666016 25.2652 0.771372 25.5196 0.958909 25.7071C1.14645 25.8946 1.4008 26 1.66602 26H2.66602V31.667C2.66602 31.9322 2.77137 32.1866 2.95891 32.3741C3.14645 32.5616 3.4008 32.667 3.66602 32.667H26.999C27.2642 32.667 27.5186 32.5616 27.7061 32.3741C27.8937 32.1866 27.999 31.9322 27.999 31.667V22.667H29.799C30.5659 22.6479 31.2949 22.3299 31.8305 21.7809C32.3662 21.2318 32.666 20.4951 32.666 19.728L32.665 19.664V19.667V5.66699L32.666 5.60599C32.666 4.83942 32.3666 4.10316 31.8316 3.55416C31.2966 3.00515 30.5683 2.68681 29.802 2.66699H29.798H29.799ZM27.999 10.667H30.666V14.667H27.999V10.667ZM29.799 4.66699C30.0461 4.68695 30.2754 4.80316 30.4375 4.99058C30.5997 5.17801 30.6818 5.42165 30.666 5.66899V5.66599V8.66599H27.999V4.66599L29.799 4.66699ZM25.999 30.667H4.66602V26H5.66602C5.93123 26 6.18559 25.8946 6.37312 25.7071C6.56066 25.5196 6.66602 25.2652 6.66602 25C6.66602 24.7348 6.56066 24.4804 6.37312 24.2929C6.18559 24.1053 5.93123 24 5.66602 24H4.66602V17.667H5.66602C5.93123 17.667 6.18559 17.5616 6.37312 17.3741C6.56066 17.1866 6.66602 16.9322 6.66602 16.667C6.66602 16.4018 6.56066 16.1474 6.37312 15.9599C6.18559 15.7723 5.93123 15.667 5.66602 15.667H4.66602V8.99999H5.66602C5.93123 8.99999 6.18559 8.89464 6.37312 8.7071C6.56066 8.51956 6.66602 8.26521 6.66602 7.99999C6.66602 7.73478 6.56066 7.48042 6.37312 7.29289C6.18559 7.10535 5.93123 6.99999 5.66602 6.99999H4.66602V2.66699H25.999V30.667ZM29.799 20.667H27.999V16.667H30.666V19.667L30.668 19.727C30.668 20.222 30.287 20.627 29.803 20.667H29.8H29.799Z" fill="#131C26"/>
</svg>
