<svg xmlns="http://www.w3.org/2000/svg" width="32" height="32"><path d="M23.9999999,-6.66667669e-08 C28.4182781,-6.66667669e-08 31.9999999,3.58172195 31.9999999,7.99999993 L31.9999999,7.99999993 L31.9999999,23.9999999 C31.9999999,28.4182781 28.4182781,31.9999999 23.9999999,31.9999999 L23.9999999,31.9999999 L7.99999993,31.9999999 C3.58172195,31.9999999 -6.66666923e-08,28.4182781 -6.66666923e-08,23.9999999 L-6.66666923e-08,23.9999999 L-6.66666923e-08,7.99999993 C-6.66666923e-08,3.58172195 3.58172195,-6.66667669e-08 7.99999993,-6.66667669e-08 L7.99999993,-6.66667669e-08 Z M24,2.28571423 L7.99999997,2.28571423 C4.8440871,2.28571423 2.28571423,4.8440871 2.28571423,7.99999997 L2.28571423,7.99999997 L2.28571423,24 C2.28571423,27.1559129 4.8440871,29.7142858 7.99999997,29.7142858 L7.99999997,29.7142858 L24,29.7142858 C27.1559129,29.7142858 29.7142858,27.1559129 29.7142858,24 L29.7142858,24 L29.7142858,7.99999997 C29.7142858,4.8440871 27.1559129,2.28571423 24,2.28571423 L24,2.28571423 Z M23.4329508,8.15565518 C23.9175878,8.4383307 24.1169671,9.02265434 23.9319419,9.53193724 L23.8443448,9.71866508 L16.5111209,22.2912109 C16.1758688,22.8644963 15.6078534,23.2636251 14.954875,23.3847421 C14.3951791,23.4885566 13.8205015,23.3793182 13.3413013,23.0847946 L13.1101691,22.9222208 L8.42902621,19.1782208 C7.93610847,18.7839829 7.85611267,18.0648011 8.25035059,17.5718834 C8.6007843,17.1337343 9.20796376,17.0218445 9.68475807,17.2792752 L9.85668802,17.3932078 L14.5373695,21.1384778 L21.869941,8.56704915 C22.1879509,8.02183258 22.8877343,7.83764523 23.4329508,8.15565518 Z"/></svg>