<svg xmlns="http://www.w3.org/2000/svg" width="32" height="32"><path d="M16.9999932,7.00398606 C18.6568464,7.00398606 19.999992,8.347142 19.999992,10.0039861 L19.999992,10.0039861 L19.9997634,17.2015931 L24.7822223,18.2651319 C27.2096823,18.8044853 28.8675643,21.0436457 28.6840996,23.5151164 L28.6840996,23.5151164 L28.6772165,23.5985103 L27.9958834,31.0945073 C27.9490542,31.6097204 27.5169928,32.0039861 26.9996558,32.0039861 L26.9996558,32.0039861 L14.9996607,31.9999871 C14.6850647,31.9998822 14.3888581,31.8517403 14.2000691,31.6000871 L14.2000691,31.6000871 L9.06665005,24.7573061 C8.31559533,23.7558546 8.25437204,22.3975744 8.91902149,21.3187172 L8.91902149,21.3187172 L8.96841374,21.2419238 C9.43278394,20.5466384 10.1625922,20.0728584 10.9866877,19.9316922 C11.8107833,19.7905259 12.6566712,19.9943917 13.3275637,20.4966694 L13.3275637,20.4966694 L13.9931372,20.9967916 L13.9933277,10.0040015 C13.9933234,9.23509478 14.2884965,8.49669069 14.8159778,7.94021315 L14.8159778,7.94021315 L14.8755396,7.87913868 C15.4139583,7.34250871 16.1357733,7.03052207 16.9128899,7.00516261 L16.9128899,7.00516261 Z M16.9999932,9.00398526 L16.9604712,9.00451404 C16.7074975,9.01282247 16.466868,9.11682858 16.2873975,9.29570281 C16.0991397,9.48333523 15.9933254,9.7381955 15.9933269,10.003996 L15.9933269,10.003996 L15.9933269,22.9999908 C15.9933269,23.8245557 15.0515184,24.2947959 14.3924252,23.7993129 L14.3924252,23.7993129 L12.1273449,22.096503 C11.8976002,21.9245007 11.6072429,21.8545223 11.324366,21.9029786 C11.041489,21.951435 10.7909769,22.1140635 10.6421534,22.3365558 L10.6421534,22.3365558 L10.6126403,22.3823648 C10.3878816,22.7472911 10.4089013,23.2136269 10.6665876,23.5572241 L10.6665876,23.5572241 L15.4998795,30.0002165 L26.0866181,30.0036451 L26.6854237,23.417518 C26.8197583,21.9387976 25.8527459,20.5882985 24.4180759,20.2338595 L24.4180759,20.2338595 L24.3482941,20.2174903 L18.782963,18.9801574 C18.325473,18.8784443 17.9999928,18.4726532 17.9999928,18.0039853 L17.9999928,18.0039853 L17.9999928,10.003996 C17.9999928,9.45170762 17.5522739,9.00398526 16.9999932,9.00398526 L16.9999932,9.00398526 Z M26.9999892,0 C29.733798,0 31.9551673,2.19402815 31.9993213,4.9173139 L32,5 L32,16.9985865 C32.0017041,18.2170124 31.5573929,19.3939293 30.7509021,20.3072377 C30.385338,20.7212198 29.7533911,20.7604703 29.339409,20.3949062 C28.9383639,20.0407661 28.8889956,19.4366318 29.2186539,19.0228478 L29.2517405,18.9834132 C29.7155349,18.4581905 29.9793797,17.7874352 29.998836,17.0876138 L30,17 L30,5 C30,3.3668148 28.6949454,2.03843883 27.0708022,2.00081853 L5,2 C3.36681375,2 2.0384388,3.30504294 2.00081853,4.92918505 L2,17 C2,18.6331774 3.30504294,19.9615524 4.92918505,19.9991726 L5,20 C5.55228252,20 6,20.447707 6,21 C6,21.5522761 5.55228252,22 5,22 C2.26618958,22 0.0448237918,19.8059635 0.000669856878,17.0826773 L0,5 C0,2.26618958 2.1940277,0.0448237918 4.91731389,0.000669856878 L26.9999892,0 Z"/></svg>