<svg xmlns="http://www.w3.org/2000/svg" width="32" height="32"><path d="M16.6498412,7.0596369 L16.808122,7.19187793 L24.8081221,15.191878 L24.8302364,15.2146108 C24.8497761,15.2352591 24.8685538,15.2566359 24.8865246,15.2786962 L24.8081221,15.191878 C24.8432672,15.2270231 24.8756448,15.2638878 24.9052549,15.3022011 C24.9222938,15.3243827 24.9386601,15.3472661 24.9541822,15.3707564 C24.9655458,15.3877741 24.9762345,15.4049366 24.9864252,15.4223106 C25.0268487,15.4913409 25.0604024,15.5651836 25.08589,15.642687 C25.0902121,15.6560346 25.0945077,15.6700035 25.0985296,15.6840344 C25.10625,15.7106326 25.1129056,15.7374572 25.1185956,15.7646367 C25.121403,15.7785254 25.1240601,15.7925043 25.1264549,15.8065193 C25.131445,15.835185 25.1353099,15.8645874 25.1380359,15.8943193 C25.1394528,15.9101975 25.1405716,15.9258541 25.1413695,15.941524 C25.1423596,15.9607521 25.1428572,15.980318 25.1428572,16 L25.1427997,16.0114992 C25.1425315,16.0383156 25.1413254,16.0651244 25.1391811,16.0918721 L25.1428572,16 C25.1428572,16.0480304 25.1398943,16.0953688 25.1341413,16.1418424 C25.131751,16.160491 25.1290035,16.1788961 25.1258064,16.1972381 C25.1211414,16.2246296 25.1153454,16.2519329 25.1085943,16.2788572 C25.1049966,16.292806 25.1012817,16.3065332 25.0973068,16.3202008 C25.0904634,16.343986 25.082812,16.3673643 25.0744411,16.3903973 C25.0673291,16.409914 25.0595773,16.4295881 25.0512589,16.449078 C25.0426072,16.4692488 25.0336814,16.4885608 25.0242419,16.5075725 C25.0153421,16.5256935 25.0054264,16.5444083 24.9949548,16.5628935 C24.9829265,16.5838951 24.9707349,16.603901 24.9579587,16.6234909 C24.9524058,16.6321927 24.9464532,16.6410501 24.9403631,16.6498412 L24.9315101,16.6622826 C24.8961149,16.711977 24.8568424,16.7587184 24.8141341,16.8020653 L24.8081221,16.808122 L16.808122,24.8081221 C16.3618086,25.2544356 15.6381914,25.2544356 15.191878,24.8081221 C14.7951549,24.411399 14.7510745,23.7955718 15.0596369,23.3501589 L15.191878,23.191878 L21.2409999,17.1421428 L1.14285708,17.1428571 C0.511674507,17.1428571 -6.66666728e-08,16.6311826 -6.66666728e-08,16 C-6.66666728e-08,15.4389488 0.404286016,14.9723237 0.937427063,14.8755558 L1.14285708,14.8571429 L21.2419999,14.8571428 L15.191878,8.80812201 C14.7951549,8.41139891 14.7510745,7.79557171 15.0596369,7.35015881 L15.191878,7.19187793 C15.5886011,6.79515484 16.2044283,6.75107449 16.6498412,7.0596369 Z M30.8571429,6.85714282 C31.4181941,6.85714282 31.8848192,7.2614289 31.9815871,7.79456995 L32.0000001,7.99999997 L32.0000001,24 C32.0000001,24.6311826 31.4883255,25.1428572 30.8571429,25.1428572 C30.2960917,25.1428572 29.8294666,24.7385711 29.7326987,24.2054301 L29.7142858,24 L29.7142858,7.99999997 C29.7142858,7.36881739 30.2259603,6.85714282 30.8571429,6.85714282 Z"/></svg>