<svg width="33" height="32" viewBox="0 0 33 32" fill="none" xmlns="http://www.w3.org/2000/svg">
<path fill-rule="evenodd" clip-rule="evenodd" d="M0.700684 3.79528C0.700684 2.11182 1.91533 0.501953 3.69575 0.501953H19.3951C21.1755 0.501953 22.3901 2.11184 22.3901 3.79528V30.502C22.3901 31.0542 21.9424 31.502 21.3901 31.502C20.8379 31.502 20.3901 31.0542 20.3901 30.502V3.79528C20.3901 2.94561 19.8184 2.50195 19.3951 2.50195H3.69575C3.27248 2.50195 2.70068 2.94563 2.70068 3.79528V30.502C2.70068 31.0542 2.25297 31.502 1.70068 31.502C1.1484 31.502 0.700684 31.0542 0.700684 30.502V3.79528Z"/>
<path fill-rule="evenodd" clip-rule="evenodd" d="M31.7007 13.3901C31.7007 11.7066 30.486 10.0967 28.7056 10.0967H21.5444C20.9921 10.0967 20.5444 10.5445 20.5444 11.0967C20.5444 11.649 20.9921 12.0967 21.5444 12.0967H28.7056C29.1289 12.0967 29.7007 12.5404 29.7007 13.3901V30.324C29.7007 30.8763 30.1484 31.324 30.7007 31.324C31.253 31.324 31.7007 30.8763 31.7007 30.324V13.3901Z"/>
<path fill-rule="evenodd" clip-rule="evenodd" d="M7.89032 23.422C7.89032 22.3243 8.91984 21.814 9.66255 21.814H13.3052C14.0479 21.814 15.0774 22.3243 15.0774 23.422V30.502C15.0774 31.0543 14.6297 31.502 14.0774 31.502C13.5251 31.502 13.0774 31.0543 13.0774 30.502V23.814H9.89032V30.502C9.89032 31.0543 9.44261 31.502 8.89032 31.502C8.33804 31.502 7.89032 31.0543 7.89032 30.502V23.422Z"/>
<path fill-rule="evenodd" clip-rule="evenodd" d="M8.14038 6.10832C8.69267 6.10832 9.14038 6.55603 9.14038 7.10832V9.13533C9.14038 9.68761 8.69267 10.1353 8.14038 10.1353C7.5881 10.1353 7.14038 9.68761 7.14038 9.13533V7.10832C7.14038 6.55603 7.5881 6.10832 8.14038 6.10832Z"/>
<path fill-rule="evenodd" clip-rule="evenodd" d="M8.14038 14.2376C8.69267 14.2376 9.14038 14.6853 9.14038 15.2376V17.2646C9.14038 17.8169 8.69267 18.2646 8.14038 18.2646C7.5881 18.2646 7.14038 17.8169 7.14038 17.2646V15.2376C7.14038 14.6853 7.5881 14.2376 8.14038 14.2376Z"/>
<path fill-rule="evenodd" clip-rule="evenodd" d="M15.1015 6.10832C15.6538 6.10832 16.1015 6.55603 16.1015 7.10832V9.13533C16.1015 9.68761 15.6538 10.1353 15.1015 10.1353C14.5492 10.1353 14.1015 9.68761 14.1015 9.13533V7.10832C14.1015 6.55603 14.5492 6.10832 15.1015 6.10832Z"/>
<path fill-rule="evenodd" clip-rule="evenodd" d="M15.1015 14.2376C15.6538 14.2376 16.1015 14.6853 16.1015 15.2376V17.2646C16.1015 17.8169 15.6538 18.2646 15.1015 18.2646C14.5492 18.2646 14.1015 17.8169 14.1015 17.2646V15.2376C14.1015 14.6853 14.5492 14.2376 15.1015 14.2376Z"/>
<path fill-rule="evenodd" clip-rule="evenodd" d="M26.1225 14.2376C26.6748 14.2376 27.1225 14.6853 27.1225 15.2376V17.2646C27.1225 17.8169 26.6748 18.2646 26.1225 18.2646C25.5702 18.2646 25.1225 17.8169 25.1225 17.2646V15.2376C25.1225 14.6853 25.5702 14.2376 26.1225 14.2376Z"/>
<path fill-rule="evenodd" clip-rule="evenodd" d="M26.1225 21.814C26.6748 21.814 27.1225 22.2618 27.1225 22.814V24.8411C27.1225 25.3933 26.6748 25.8411 26.1225 25.8411C25.5702 25.8411 25.1225 25.3933 25.1225 24.8411V22.814C25.1225 22.2618 25.5702 21.814 26.1225 21.814Z"/>
</svg>
