<svg width="32" height="32" viewBox="0 0 32 32" xmlns="http://www.w3.org/2000/svg">
<path fill-rule="evenodd" clip-rule="evenodd" d="M3.67135 28.9095C4.42149 29.6596 5.43891 30.0811 6.49977 30.0811H14.5032V28.0811H6.49977C5.96934 28.0811 5.46063 27.8703 5.08556 27.4953C4.71049 27.1202 4.49977 26.6115 4.49977 26.0811V6.08105C4.49957 5.81794 4.55128 5.55736 4.65195 5.31427C4.75262 5.07117 4.90027 4.85032 5.08644 4.66439C5.46292 4.29227 5.97043 4.0828 6.49977 4.08106H20.4999V9.08106C20.4999 9.8767 20.8159 10.6398 21.3785 11.2024C21.9411 11.765 22.7042 12.0811 23.4999 12.0811H28.4998V14.0771H30.4998V11.094L30.4999 11.0811L30.4998 11.0681V10.9077C30.5 10.1128 30.1847 9.35034 29.6231 8.78772L23.7931 2.95772C23.2305 2.39617 22.468 2.08087 21.6731 2.08105H21.4999H6.49977C5.44072 2.08276 4.42506 2.50196 3.67311 3.24772C3.29988 3.61893 3.004 4.0605 2.80259 4.54684C2.60119 5.03319 2.49826 5.55466 2.49977 6.08105V26.0811C2.49977 27.1419 2.9212 28.1593 3.67135 28.9095ZM28.0832 10.0811H23.4999C23.2346 10.0811 22.9803 9.9757 22.7927 9.78816C22.6052 9.60063 22.4999 9.34627 22.4999 9.08106V4.49454L28.0832 10.0811Z" />
<path fill-rule="evenodd" clip-rule="evenodd" d="M29.5042 11.0879C30.0564 11.0879 30.5042 11.5356 30.5042 12.0879V15.0918C30.5042 15.6441 30.0564 16.0918 29.5042 16.0918C28.9519 16.0918 28.5042 15.6441 28.5042 15.0918V12.0879C28.5042 11.5356 28.9519 11.0879 29.5042 11.0879Z" />
<path fill-rule="evenodd" clip-rule="evenodd" d="M11.489 29.082C11.489 28.5297 11.9367 28.082 12.489 28.082H14.4844C15.0367 28.082 15.4844 28.5297 15.4844 29.082C15.4844 29.6343 15.0367 30.082 14.4844 30.082H12.489C11.9367 30.082 11.489 29.6343 11.489 29.082Z" />
<path fill-rule="evenodd" clip-rule="evenodd" d="M23.2456 18.7023C24.4736 17.3616 26.4175 16.9367 28.6726 17.6346C29.08 17.7607 29.3626 18.1313 29.3764 18.5575C29.3902 18.9838 29.1321 19.3719 28.7337 19.5241C28.0802 19.7736 27.6104 20.2326 27.4012 20.661C27.2198 21.0325 27.2633 21.2731 27.3832 21.4337C27.512 21.5206 27.6036 21.5377 27.6637 21.5394C27.7413 21.5416 27.8637 21.5199 28.04 21.4117C28.4202 21.1784 28.8838 20.6428 29.3162 19.7995C29.5017 19.4378 29.8876 19.2243 30.2925 19.2595C30.6974 19.2946 31.0408 19.5713 31.1612 19.9595C31.8222 22.0904 31.5167 24.0089 30.2091 25.2515C29.0499 26.3531 27.3254 26.7057 25.4577 26.4183L21.3193 30.5567C21.3037 30.5723 21.2876 30.5874 21.2711 30.6019C20.7605 31.0491 20.1398 31.144 19.6007 31.0424C19.0845 30.9452 18.6261 30.6711 18.2827 30.3394C17.9399 30.0083 17.6435 29.5534 17.5391 29.022C17.4283 28.4576 17.5461 27.8357 17.9989 27.3234C18.0138 27.3065 18.0292 27.2902 18.0452 27.2744L22.1144 23.2528C21.8224 21.5486 22.1766 19.8695 23.2456 18.7023ZM24.7205 20.0531C24.1042 20.726 23.8089 21.9035 24.1748 23.3317C24.263 23.676 24.1618 24.0413 23.909 24.2911L19.5035 28.645C19.5161 28.6951 19.5625 28.795 19.6722 28.901C19.7875 29.0123 19.9049 29.0644 19.9707 29.0769L24.4152 24.6324C24.6557 24.3918 25.002 24.2901 25.3344 24.3622C27.0324 24.7307 28.2103 24.3919 28.8313 23.8018C29.0604 23.5841 29.2533 23.2934 29.3725 22.9205C29.2792 22.9909 29.1838 23.0563 29.0862 23.1163C28.6572 23.3795 28.156 23.5541 27.6073 23.5386C27.0508 23.5229 26.534 23.314 26.0813 22.9578C26.0427 22.9274 26.0063 22.8942 25.9726 22.8585C25.0974 21.9318 25.1449 20.7236 25.604 19.7834C25.6679 19.6526 25.7403 19.5245 25.8207 19.3998C25.3438 19.5277 24.9819 19.7676 24.7205 20.0531Z" />
</svg>
