<svg width="32" height="32" viewBox="0 0 32 32" fill="none" xmlns="http://www.w3.org/2000/svg">
<path d="M27 0.666992H3C2.20435 0.666992 1.44129 0.983063 0.87868 1.54567C0.31607 2.10828 0 2.87134 0 3.66699V25.667C0 26.4626 0.31607 27.2257 0.87868 27.7883C1.44129 28.3509 2.20435 28.667 3 28.667H11C11.2652 28.667 11.5196 28.5616 11.7071 28.3741C11.8946 28.1866 12 27.9322 12 27.667C12 27.4018 11.8946 27.1474 11.7071 26.9599C11.5196 26.7723 11.2652 26.667 11 26.667H3C2.73478 26.667 2.48043 26.5616 2.29289 26.3741C2.10536 26.1866 2 25.9322 2 25.667V8.66699H28V11.667C28 11.9322 28.1054 12.1866 28.2929 12.3741C28.4804 12.5616 28.7348 12.667 29 12.667C29.2652 12.667 29.5196 12.5616 29.7071 12.3741C29.8946 12.1866 30 11.9322 30 11.667V3.66699C30 2.87134 29.6839 2.10828 29.1213 1.54567C28.5587 0.983063 27.7956 0.666992 27 0.666992ZM2 6.66699V3.66699C2 3.40178 2.10536 3.14742 2.29289 2.95989C2.48043 2.77235 2.73478 2.66699 3 2.66699H27C27.2652 2.66699 27.5196 2.77235 27.7071 2.95989C27.8946 3.14742 28 3.40178 28 3.66699V6.66699H2Z" fill="#131C26"/>
<path fill-rule="evenodd" clip-rule="evenodd" d="M27.4849 14.6294C25.6856 14.6294 24.2271 16.088 24.2271 17.8872C24.2271 19.0475 24.8336 20.0661 25.747 20.6432C25.0288 20.8687 24.3944 21.2699 23.8832 21.8739C23.0555 22.8519 22.6665 24.2271 22.5985 25.8651C22.5877 26.1261 22.6438 26.3696 22.7498 26.5824C22.6016 26.5332 22.4421 26.5063 22.2746 26.5063H21.9966L21.1893 24.6853C20.9655 24.1804 20.3748 23.9526 19.8699 24.1764C19.365 24.4002 19.1371 24.9909 19.3609 25.4958L19.8089 26.5063H18.2056L18.6449 25.5154C18.8687 25.0105 18.6409 24.4197 18.136 24.1959C17.6311 23.9721 17.0403 24.2 16.8165 24.7049L16.018 26.5063H15.6961C14.6592 26.5063 13.935 27.5332 14.2832 28.5099L15.4092 31.6692C15.6221 32.2667 16.1878 32.6656 16.8221 32.6656H21.2216C21.8672 32.6656 22.4404 32.2525 22.6446 31.6399L23.6976 28.4806C23.8318 28.0781 23.7862 27.6702 23.6139 27.3304C23.7638 27.3806 23.9234 27.4076 24.0875 27.4076H24.3887L24.8228 31.3324C24.9069 32.0923 25.5491 32.6675 26.3137 32.6675H28.2834C29.048 32.6675 29.6903 32.0923 29.7743 31.3324L30.2085 27.4076H30.5097C31.3292 27.4076 32.0347 26.7339 31.9987 25.8651C31.9307 24.2271 31.5416 22.8519 30.714 21.8739C30.2595 21.3369 29.7077 20.9603 29.0863 20.7249C30.0752 20.1656 30.7427 19.1044 30.7427 17.8872C30.7427 16.088 29.2841 14.6294 27.4849 14.6294ZM26.2271 17.8872C26.2271 17.1925 26.7902 16.6294 27.4849 16.6294C28.1795 16.6294 28.7427 17.1925 28.7427 17.8872C28.7427 18.5819 28.1795 19.145 27.4849 19.145C26.7902 19.145 26.2271 18.5819 26.2271 17.8872ZM16.4946 28.5063H16.4051L17.1747 30.6656H20.8612L21.5809 28.5063H16.8293C16.72 28.5249 16.607 28.5255 16.4946 28.5063ZM27.8357 30.6675H26.7615L26.3274 26.7427C26.2433 25.9827 25.6011 25.4076 24.8364 25.4076H24.6346C24.7453 24.3118 25.0404 23.6025 25.4098 23.166C25.8054 22.6986 26.3912 22.4206 27.2986 22.4185C28.206 22.4206 28.7918 22.6986 29.1873 23.166C29.5568 23.6025 29.8518 24.3118 29.9625 25.4076H29.7607C28.9961 25.4076 28.3539 25.9827 28.2698 26.7427L27.8357 30.6675Z" fill="#131C26"/>
</svg>
