<svg width="32" height="32" viewBox="0 0 32 32" xmlns="http://www.w3.org/2000/svg">
<path fill-rule="evenodd" clip-rule="evenodd" d="M2.25571 1.88672C1.7147 1.88672 1.27612 2.3253 1.27612 2.86631V20.1523V24.0704C1.27612 24.6114 1.7147 25.05 2.25571 25.05H13.2238C13.0169 26.2224 12.5547 27.3377 11.8673 28.3153H10.3973C9.85625 28.3153 9.41767 28.7539 9.41767 29.2949C9.41767 29.8359 9.85625 30.2745 10.3973 30.2745H12.3305C12.3482 30.275 12.3659 30.275 12.3835 30.2745H14.1524C14.6934 30.2745 15.132 29.8359 15.132 29.2949C15.132 28.7553 14.6958 28.3177 14.1568 28.3153C14.6896 27.2968 15.0457 26.1926 15.2073 25.05H16.2706C16.3184 24.3802 16.4212 23.7257 16.5745 23.0908H3.23531V21.1319H17.2317C17.5317 20.4428 17.8945 19.7873 18.3128 19.1728H3.23531V3.8459H29.3169V13.917H31.2761V2.86631C31.2761 2.3253 30.8375 1.88672 30.2965 1.88672H2.25571Z" />
<path fill-rule="evenodd" clip-rule="evenodd" d="M15.2209 20.1548C15.2209 19.62 15.6687 19.1865 16.2209 19.1865H18.2163C18.7686 19.1865 19.2163 19.62 19.2163 20.1548C19.2163 20.6895 18.7686 21.123 18.2163 21.123H16.2209C15.6687 21.123 15.2209 20.6895 15.2209 20.1548Z" />
<path fill-rule="evenodd" clip-rule="evenodd" d="M13.6042 24.0728C13.6042 23.5299 14.052 23.0898 14.6042 23.0898H16.5996C17.1519 23.0898 17.5996 23.5299 17.5996 24.0728C17.5996 24.6156 17.1519 25.0557 16.5996 25.0557H14.6042C14.052 25.0557 13.6042 24.6156 13.6042 24.0728Z" />
<path fill-rule="evenodd" clip-rule="evenodd" d="M30.2761 7.15234C30.8284 7.15234 31.2761 7.60006 31.2761 8.15234L31.2761 14.1477C31.2761 14.7 30.8284 15.1477 30.2761 15.1477C29.7238 15.1477 29.2761 14.7 29.2761 14.1477L29.2761 8.15234C29.2761 7.60006 29.7238 7.15234 30.2761 7.15234Z" />
<path fill-rule="evenodd" clip-rule="evenodd" d="M23.2456 18.7023C24.4736 17.3616 26.4175 16.9367 28.6726 17.6346C29.08 17.7607 29.3626 18.1313 29.3764 18.5575C29.3902 18.9838 29.1321 19.3719 28.7337 19.5241C28.0802 19.7736 27.6104 20.2326 27.4012 20.661C27.2198 21.0325 27.2633 21.2731 27.3832 21.4337C27.512 21.5206 27.6036 21.5377 27.6637 21.5394C27.7413 21.5416 27.8637 21.5199 28.04 21.4117C28.4202 21.1784 28.8838 20.6428 29.3162 19.7995C29.5017 19.4378 29.8876 19.2243 30.2925 19.2595C30.6974 19.2946 31.0408 19.5713 31.1612 19.9595C31.8222 22.0904 31.5167 24.0089 30.2091 25.2515C29.0499 26.3531 27.3254 26.7057 25.4577 26.4183L21.3193 30.5567C21.3037 30.5723 21.2876 30.5874 21.2711 30.6019C20.7605 31.0491 20.1398 31.144 19.6007 31.0424C19.0845 30.9452 18.6261 30.6711 18.2827 30.3394C17.9399 30.0083 17.6435 29.5534 17.5391 29.022C17.4283 28.4576 17.5461 27.8357 17.9989 27.3234C18.0138 27.3065 18.0292 27.2902 18.0452 27.2744L22.1144 23.2528C21.8224 21.5486 22.1766 19.8695 23.2456 18.7023ZM24.7205 20.0531C24.1042 20.726 23.8089 21.9035 24.1748 23.3317C24.263 23.676 24.1618 24.0413 23.909 24.2911L19.5035 28.645C19.5161 28.6951 19.5625 28.795 19.6722 28.901C19.7875 29.0123 19.9049 29.0644 19.9707 29.0769L24.4152 24.6324C24.6557 24.3918 25.002 24.2901 25.3344 24.3622C27.0324 24.7307 28.2103 24.3919 28.8313 23.8018C29.0604 23.5841 29.2533 23.2934 29.3725 22.9205C29.2792 22.9909 29.1838 23.0563 29.0862 23.1163C28.6572 23.3795 28.156 23.5541 27.6073 23.5386C27.0508 23.5229 26.534 23.314 26.0813 22.9578C26.0427 22.9274 26.0063 22.8942 25.9726 22.8585C25.0974 21.9318 25.1449 20.7236 25.604 19.7834C25.6679 19.6526 25.7403 19.5245 25.8207 19.3998C25.3438 19.5277 24.9819 19.7676 24.7205 20.0531Z" />
</svg>
