<svg width="32" height="32" viewBox="0 0 32 32" fill="none" xmlns="http://www.w3.org/2000/svg">
<path fill-rule="evenodd" clip-rule="evenodd" d="M0 21.8772C0 21.3362 0.438578 20.8976 0.979592 20.8976H28.4082C28.9492 20.8976 29.3878 21.3362 29.3878 21.8772C29.3878 22.4182 28.9492 22.8568 28.4082 22.8568H0.979592C0.438578 22.8568 0 22.4182 0 21.8772Z" fill="#131C26"/>
<path fill-rule="evenodd" clip-rule="evenodd" d="M2.28571 7.18335C2.19911 7.18335 2.11606 7.21776 2.05482 7.27899C1.99359 7.34023 1.95918 7.42328 1.95918 7.50988V24.4895C1.95918 24.5761 1.99359 24.6591 2.05482 24.7204C2.11606 24.7816 2.19911 24.816 2.28571 24.816H27.102C27.1886 24.816 27.2717 24.7816 27.3329 24.7204C27.3942 24.6591 27.4286 24.5761 27.4286 24.4895V17.9589C27.4286 17.4179 27.8671 16.9793 28.4082 16.9793C28.9492 16.9793 29.3878 17.4179 29.3878 17.9589V24.4895C29.3878 25.0957 29.1469 25.6771 28.7183 26.1057C28.2896 26.5344 27.7082 26.7752 27.102 26.7752H2.28571C1.67951 26.7752 1.09813 26.5344 0.66947 26.1057C0.240815 25.6771 0 25.0957 0 24.4895V7.50988C0 6.90368 0.240816 6.3223 0.66947 5.89364C1.09812 5.46499 1.6795 5.22417 2.28571 5.22417H12.7347C13.2757 5.22417 13.7143 5.66275 13.7143 6.20376C13.7143 6.74478 13.2757 7.18335 12.7347 7.18335H2.28571Z" fill="#131C26"/>
<path fill-rule="evenodd" clip-rule="evenodd" d="M12.7814 24.8171C13.3218 24.8429 13.739 25.3019 13.7132 25.8423C13.6125 27.9504 12.8537 29.9739 11.5434 31.6283C11.2075 32.0524 10.5914 32.1239 10.1673 31.788C9.74321 31.4522 9.67168 30.836 10.0076 30.4119C11.0635 29.0786 11.6751 27.4478 11.7562 25.7489C11.782 25.2085 12.241 24.7913 12.7814 24.8171Z" fill="#131C26"/>
<path fill-rule="evenodd" clip-rule="evenodd" d="M16.6063 24.8171C17.1467 24.7913 17.6057 25.2085 17.6315 25.7489C17.7127 27.4478 18.3242 29.0786 19.3802 30.4119C19.7161 30.836 19.6445 31.4522 19.2204 31.788C18.7963 32.1239 18.1802 32.0524 17.8443 31.6283C16.5341 29.9739 15.7753 27.9504 15.6746 25.8423C15.6488 25.3019 16.0659 24.8429 16.6063 24.8171Z" fill="#131C26"/>
<path fill-rule="evenodd" clip-rule="evenodd" d="M7.83673 31.0207C7.83673 30.4797 8.27531 30.0411 8.81633 30.0411H20.5714C21.1124 30.0411 21.551 30.4797 21.551 31.0207C21.551 31.5617 21.1124 32.0003 20.5714 32.0003H8.81633C8.27531 32.0003 7.83673 31.5617 7.83673 31.0207Z" fill="#131C26"/>
<path fill-rule="evenodd" clip-rule="evenodd" d="M23.313 0.5625C21.5137 0.5625 20.0552 2.02107 20.0552 3.82031C20.0552 4.9806 20.6617 5.99921 21.5751 6.57635C20.8569 6.80181 20.2226 7.20296 19.7113 7.80705C18.8836 8.78498 18.4946 10.1602 18.4266 11.7982C18.4158 12.0592 18.4719 12.3027 18.5779 12.5155C18.4298 12.4663 18.2703 12.4395 18.1027 12.4395H17.8247L17.0175 10.6184C16.7937 10.1135 16.2029 9.88567 15.698 10.1095C15.1931 10.3333 14.9652 10.924 15.1891 11.4289L15.637 12.4395H14.0338L14.4731 11.4485C14.6969 10.9436 14.469 10.3528 13.9641 10.129C13.4592 9.9052 12.8684 10.1331 12.6446 10.638L11.8461 12.4395H11.5242C10.4873 12.4395 9.76316 13.4663 10.1113 14.443L11.2373 17.6023C11.4502 18.1998 12.016 18.5987 12.6502 18.5987H17.0497C17.6954 18.5987 18.2686 18.1856 18.4727 17.573L19.5257 14.4138C19.6599 14.0113 19.6143 13.6033 19.442 13.2635C19.592 13.3137 19.7515 13.3407 19.9156 13.3407H20.2168L20.651 17.2655C20.735 18.0254 21.3773 18.6006 22.1419 18.6006H24.1116C24.8762 18.6006 25.5184 18.0254 25.6025 17.2655L26.0366 13.3407H26.3378C27.1573 13.3407 27.8629 12.667 27.8268 11.7982C27.7588 10.1602 27.3698 8.78498 26.5421 7.80705C26.0876 7.27005 25.5359 6.8934 24.9144 6.65799C25.9033 6.09872 26.5708 5.03746 26.5708 3.82031C26.5708 2.02107 25.1122 0.5625 23.313 0.5625ZM22.0552 3.82031C22.0552 3.12564 22.6183 2.5625 23.313 2.5625C24.0077 2.5625 24.5708 3.12564 24.5708 3.82031C24.5708 4.51498 24.0077 5.07812 23.313 5.07812C22.6183 5.07812 22.0552 4.51498 22.0552 3.82031ZM12.3228 14.4395H12.2332L13.0028 16.5987H16.6893L17.409 14.4395H12.6574C12.5481 14.4581 12.4351 14.4586 12.3228 14.4395ZM23.6638 16.6006H22.5896L22.1555 12.6758C22.0714 11.9159 21.4292 11.3407 20.6646 11.3407H20.4628C20.5735 10.2449 20.8685 9.53556 21.2379 9.09909C21.6335 8.63167 22.2193 8.35369 23.1267 8.35157C24.0341 8.35369 24.6199 8.63167 25.0155 9.09909C25.3849 9.53556 25.68 10.2449 25.7906 11.3407H25.5888C24.8242 11.3407 24.182 11.9159 24.0979 12.6758L23.6638 16.6006Z" fill="#131C26"/>
</svg>
