<svg width="32" height="32" viewBox="0 0 32 32" xmlns="http://www.w3.org/2000/svg">
<path fill-rule="evenodd" clip-rule="evenodd" d="M10.6954 6.90485C12.5303 6.12846 14.5001 5.72111 16.4924 5.70605H16.5075C20.5304 5.73646 24.3765 7.3636 27.1997 10.2296C28.2812 11.3273 29.1786 12.5724 29.8727 13.917H28.2397C28.0202 13.917 27.802 13.9229 27.5853 13.9345C27.0733 13.1089 26.4676 12.3362 25.7749 11.6331C23.3257 9.14681 19.9898 7.73443 16.4999 7.70606C14.7728 7.7201 13.0654 8.0737 11.4748 8.74675C9.88188 9.42078 8.43733 10.402 7.22364 11.6344C6.00995 12.8667 5.05089 14.3261 4.40124 15.9291C3.75159 17.5321 3.42408 19.2474 3.4374 20.9771L3.43746 20.9848L3.43743 23.581C3.43743 23.8131 3.52965 24.0357 3.69371 24.1998C3.85777 24.3638 4.08032 24.456 4.31243 24.456H11.7283C11.8853 23.0586 12.3811 21.9351 13.1412 21.1259C13.8758 20.3438 14.8069 19.9112 15.7703 19.7985L18.3636 12.0185C18.5383 11.4945 19.1046 11.2114 19.6285 11.386C20.1525 11.5607 20.4356 12.127 20.261 12.6509L17.8305 19.9423C17.4818 20.5487 17.1844 21.1883 16.9445 21.8554C16.7753 21.8108 16.6056 21.7835 16.4388 21.7733C15.7587 21.7315 15.0989 21.963 14.599 22.4952C14.2187 22.9 13.8849 23.5301 13.7448 24.456H16.3278C16.2697 24.9349 16.2397 25.4224 16.2397 25.917V26.456H4.31243C3.54999 26.456 2.81872 26.1532 2.27951 25.614C1.74032 25.0748 1.43743 24.3435 1.43743 23.581V20.9886C1.42261 18.9976 1.79986 17.0232 2.54767 15.1779C3.29597 13.3315 4.40067 11.6505 5.79868 10.231C7.19668 8.81146 8.8606 7.68125 10.6954 6.90485ZM6.12482 20.2998C6.12482 21.1109 6.78238 21.7685 7.59357 21.7685C8.40476 21.7685 9.06232 21.1109 9.06232 20.2998C9.06232 19.4886 8.40476 18.831 7.59357 18.831C6.78238 18.831 6.12482 19.4886 6.12482 20.2998ZM7.99982 15.6159C7.99982 16.427 8.65738 17.0847 9.46857 17.0847C10.2798 17.0847 10.9373 16.427 10.9373 15.6159C10.9373 14.8048 10.2798 14.1472 9.46857 14.1472C8.65738 14.1472 7.99982 14.8048 7.99982 15.6159ZM13.2186 10.3972C14.0297 10.3972 14.6873 11.0548 14.6873 11.8659C14.6873 12.6771 14.0297 13.3347 13.2186 13.3347C12.4074 13.3347 11.7498 12.6771 11.7498 11.8659C11.7498 11.0548 12.4074 10.3972 13.2186 10.3972Z" />
<path fill-rule="evenodd" clip-rule="evenodd" d="M13.2808 25.4561C13.2808 24.9038 13.7285 24.4561 14.2808 24.4561H16.2761C16.8284 24.4561 17.2761 24.9038 17.2761 25.4561C17.2761 26.0083 16.8284 26.4561 16.2761 26.4561H14.2808C13.7285 26.4561 13.2808 26.0083 13.2808 25.4561Z" />
<path fill-rule="evenodd" clip-rule="evenodd" d="M27.8158 12.2737C28.2992 12.0066 28.8608 12.1579 29.1279 12.6412L30.1483 14.3811C30.4154 14.8645 30.2317 15.5035 29.7483 15.7706C29.2649 16.0377 28.6565 15.8624 28.3894 15.3791L27.4243 13.6326C27.1571 13.1492 27.3324 12.5408 27.8158 12.2737Z" />
<path fill-rule="evenodd" clip-rule="evenodd" d="M23.2456 18.7023C24.4736 17.3616 26.4175 16.9367 28.6726 17.6346C29.08 17.7607 29.3626 18.1313 29.3764 18.5575C29.3902 18.9838 29.1321 19.3719 28.7337 19.5241C28.0802 19.7736 27.6104 20.2326 27.4012 20.661C27.2198 21.0325 27.2633 21.2731 27.3832 21.4337C27.512 21.5206 27.6036 21.5377 27.6637 21.5394C27.7413 21.5416 27.8637 21.5199 28.04 21.4117C28.4202 21.1784 28.8838 20.6428 29.3162 19.7995C29.5017 19.4378 29.8876 19.2243 30.2925 19.2595C30.6974 19.2946 31.0408 19.5713 31.1612 19.9595C31.8222 22.0904 31.5167 24.0089 30.2091 25.2515C29.0499 26.3531 27.3254 26.7057 25.4577 26.4183L21.3193 30.5567C21.3037 30.5723 21.2876 30.5874 21.2711 30.6019C20.7605 31.0491 20.1398 31.144 19.6007 31.0424C19.0845 30.9452 18.6261 30.6711 18.2827 30.3394C17.9399 30.0083 17.6435 29.5534 17.5391 29.022C17.4283 28.4576 17.5461 27.8357 17.9989 27.3234C18.0138 27.3065 18.0292 27.2902 18.0452 27.2744L22.1144 23.2528C21.8224 21.5486 22.1766 19.8695 23.2456 18.7023ZM24.7205 20.0531C24.1042 20.726 23.8089 21.9035 24.1748 23.3317C24.263 23.676 24.1618 24.0413 23.909 24.2911L19.5035 28.645C19.5161 28.6951 19.5625 28.795 19.6722 28.901C19.7875 29.0123 19.9049 29.0644 19.9707 29.0769L24.4152 24.6324C24.6557 24.3918 25.002 24.2901 25.3344 24.3622C27.0324 24.7307 28.2103 24.3919 28.8313 23.8018C29.0604 23.5841 29.2533 23.2934 29.3725 22.9205C29.2792 22.9909 29.1838 23.0563 29.0862 23.1163C28.6572 23.3795 28.156 23.5541 27.6073 23.5386C27.0508 23.5229 26.534 23.314 26.0813 22.9578C26.0427 22.9274 26.0063 22.8942 25.9726 22.8585C25.0974 21.9318 25.1449 20.7236 25.604 19.7834C25.6679 19.6526 25.7403 19.5245 25.8207 19.3998C25.3438 19.5277 24.9819 19.7676 24.7205 20.0531Z" />
</svg>
