<svg width="32px" height="32px" viewBox="0 0 32 32" version="1.1" xmlns="http://www.w3.org/2000/svg" xmlns:xlink="http://www.w3.org/1999/xlink">
    <path d="M31,24.0895835 C31,28.0291668 24.3350001,31 15.5,31 C6.66500003,31 0,28.0291668 0,24.0895835 L0,6.45833336 C0,6.33261294 0.0247498375,6.21198809 0.0695836849,6.10112461 C0.801224132,2.58195605 7.19094702,0 15.5,0 C23.8090531,0 30.1987758,2.58195605 30.9300898,6.10196275 C30.9752502,6.21198809 31,6.33261294 31,6.45833336 L31,24.0895835 Z M15.5,22.2812501 C9.52059956,22.2812501 4.53514308,20.9204935 1.93705351,18.819614 L1.9375,24.0895835 C1.9375,26.4404167 7.50458337,29.0625001 15.5,29.0625001 C23.4954167,29.0625001 29.0625,26.4404167 29.0625,24.0895835 L29.0639176,18.8188286 C26.4660993,20.9201543 21.4801455,22.2812501 15.5,22.2812501 Z M15.5,13.5625 C9.52059956,13.5625 4.53514308,12.2254087 1.93705351,10.1638517 L1.9375,15.3708334 C1.9375,17.7216667 7.50458337,20.3437501 15.5,20.3437501 C23.4954167,20.3437501 29.0625,17.7216667 29.0625,15.3708334 L29.0639176,10.1630811 C26.4660993,12.2250755 21.4801455,13.5625 15.5,13.5625 Z M15.5,1.93750001 C7.50458337,1.93750001 1.93750001,4.49500002 1.93750001,6.78125001 C1.93750001,9.06750004 7.50458337,11.625 15.5,11.625 C23.4954167,11.625 29.0625,9.06750004 29.0625,6.78125001 C29.0625,4.49500002 23.4954167,1.93750001 15.5,1.93750001 Z"></path>
</svg>