<svg width="32" height="32" viewBox="0 0 32 32" fill="none" xmlns="http://www.w3.org/2000/svg">
<path d="M23 32.002H5C4.20435 32.002 3.44129 31.6859 2.87868 31.1233C2.31607 30.5607 2 29.7976 2 29.002V7.00195C2 6.73674 2.10536 6.48238 2.29289 6.29485C2.48043 6.10731 2.73478 6.00195 3 6.00195C3.26522 6.00195 3.51957 6.10731 3.70711 6.29485C3.89464 6.48238 4 6.73674 4 7.00195V29.002C4 29.2672 4.10536 29.5215 4.29289 29.7091C4.48043 29.8966 4.73478 30.002 5 30.002H23C23.2652 30.002 23.5196 30.1073 23.7071 30.2948C23.8946 30.4824 24 30.7367 24 31.002C24 31.2672 23.8946 31.5215 23.7071 31.7091C23.5196 31.8966 23.2652 32.002 23 32.002ZM30 27.002V1.00195C30 0.736737 29.8946 0.482383 29.7071 0.294846C29.5196 0.10731 29.2652 0.00195313 29 0.00195312L7 0.00195313C6.73478 0.00195313 6.48043 0.10731 6.29289 0.294846C6.10536 0.482383 6 0.736737 6 1.00195V27.002C6 27.2672 6.10536 27.5215 6.29289 27.7091C6.48043 27.8966 6.73478 28.002 7 28.002H29C29.2652 28.002 29.5196 27.8966 29.7071 27.7091C29.8946 27.5215 30 27.2672 30 27.002ZM8 2.00195H28V26.002H8V2.00195Z" />
<path d="M19.3652 12.9414H24.3652C24.6305 12.9414 24.8848 13.0468 25.0723 13.2343C25.2599 13.4218 25.3652 13.6762 25.3652 13.9414C25.3652 14.2066 25.2599 14.461 25.0723 14.6485C24.8848 14.8361 24.6305 14.9414 24.3652 14.9414H19.3652V19.9414C19.3652 20.2066 19.2599 20.461 19.0723 20.6485C18.8848 20.8361 18.6305 20.9414 18.3652 20.9414C18.1 20.9414 17.8457 20.8361 17.6581 20.6485C17.4706 20.461 17.3652 20.2066 17.3652 19.9414V14.9414H12.3652C12.1 14.9414 11.8457 14.8361 11.6581 14.6485C11.4706 14.461 11.3652 14.2066 11.3652 13.9414C11.3652 13.6762 11.4706 13.4218 11.6581 13.2343C11.8457 13.0468 12.1 12.9414 12.3652 12.9414H17.3652V7.94141C17.3652 7.67619 17.4706 7.42184 17.6581 7.2343C17.8457 7.04676 18.1 6.94141 18.3652 6.94141C18.6305 6.94141 18.8848 7.04676 19.0723 7.2343C19.2599 7.42184 19.3652 7.67619 19.3652 7.94141V12.9414Z" />
</svg>
