<svg width="32" height="32" viewBox="0 0 32 32" fill="none" xmlns="http://www.w3.org/2000/svg">
<path fill-rule="evenodd" clip-rule="evenodd" d="M2 8.99854C2 8.44625 2.44772 7.99854 3 7.99854H29C29.5523 7.99854 30 8.44625 30 8.99854V22.9985C30 23.5508 29.5523 23.9985 29 23.9985H3C2.44772 23.9985 2 23.5508 2 22.9985V8.99854ZM3 5.99854C1.34315 5.99854 0 7.34168 0 8.99854V22.9985C0 24.6554 1.34315 25.9985 3 25.9985H29C30.6569 25.9985 32 24.6554 32 22.9985V8.99854C32 7.34168 30.6569 5.99854 29 5.99854H3ZM8 19.9985V11.9985H7C6.44772 11.9985 6 11.5508 6 10.9985C6 10.4463 6.44772 9.99854 7 9.99854H9H11C11.5523 9.99854 12 10.4463 12 10.9985C12 11.5508 11.5523 11.9985 11 11.9985H10V19.9985H11C11.5523 19.9985 12 20.4462 12 20.9985C12 21.5508 11.5523 21.9985 11 21.9985H9H7C6.44772 21.9985 6 21.5508 6 20.9985C6 20.4462 6.44772 19.9985 7 19.9985H8Z" fill="#131C26"/>
</svg>
