<svg width="32" height="32" viewBox="0 0 32 32" fill="none" xmlns="http://www.w3.org/2000/svg">
<path fill-rule="evenodd" clip-rule="evenodd" d="M13 0.997559C12.4477 0.997559 12 1.44527 12 1.99756C12 2.54984 12.4477 2.99756 13 2.99756H26C26.5523 2.99756 27 2.54984 27 1.99756C27 1.44527 26.5523 0.997559 26 0.997559H13ZM13 6.99756C12.4477 6.99756 12 7.44527 12 7.99756C12 8.54984 12.4477 8.99756 13 8.99756H31C31.5523 8.99756 32 8.54984 32 7.99756C32 7.44527 31.5523 6.99756 31 6.99756H13ZM12 13.9976C12 13.4453 12.4477 12.9976 13 12.9976H26C26.5523 12.9976 27 13.4453 27 13.9976C27 14.5498 26.5523 14.9976 26 14.9976H13C12.4477 14.9976 12 14.5498 12 13.9976ZM13 18.9976C12.4477 18.9976 12 19.4453 12 19.9976V29.9976C12 30.5498 12.4477 30.9976 13 30.9976H31C31.5523 30.9976 32 30.5498 32 29.9976V19.9976C32 19.4453 31.5523 18.9976 31 18.9976H13ZM14 20.9976H30V28.9976H14V20.9976ZM0 24.9976C0 24.4453 0.447715 23.9976 1 23.9976H6.58579L4.29289 21.7047C3.90237 21.3141 3.90237 20.681 4.29289 20.2905C4.68342 19.8999 5.31658 19.8999 5.70711 20.2905L9.70711 24.2905C9.89464 24.478 10 24.7323 10 24.9976C10 25.274 9.88787 25.5242 9.70661 25.7052L5.70711 29.7047C5.31658 30.0952 4.68342 30.0952 4.29289 29.7047C3.90237 29.3141 3.90237 28.681 4.29289 28.2905L6.58578 25.9976H1C0.447715 25.9976 0 25.5498 0 24.9976Z" fill="#131C26"/>
</svg>