<svg xmlns="http://www.w3.org/2000/svg" width="32" height="32"><path d="M20,24 C20.5522847,24 21,24.4477153 21,25 C21,25.5360411 20.5782336,25.9735734 20.0484509,25.9988468 L20,26 L17.2421164,25.9997911 C18.1526852,28.242346 20.2751253,29.8227453 22.7604604,29.991674 C25.6661311,30.1891731 28.3413993,28.4080191 29.2800253,25.6510445 C29.4580205,25.1282289 30.0261399,24.8486967 30.5489555,25.026692 C31.0717711,25.2046872 31.3513033,25.7728066 31.173308,26.2956222 C29.9425786,29.9105765 26.4347579,32.2460314 22.6248329,31.98707 C19.8348621,31.7974351 17.3936622,30.2512646 15.9997868,27.9651086 L16,30 C16,30.5360411 15.5782336,30.9735734 15.0484509,30.9988468 L15,31 C14.4639589,31 14.0264266,30.5782336 14.0011532,30.0484509 L14,30 L14,25 C14,24.4639589 14.4217664,24.0264266 14.9515491,24.0011532 L15,24 L20,24 Z M27,0 C29.7338095,0 31.9551762,2.19402858 31.9993301,4.91731586 L32,5 L32,11 C32,11.5522847 31.5522847,12 31,12 C30.4639589,12 30.0264266,11.5782336 30.0011532,11.0484509 L30,11 L30,5 C30,3.3668151 28.6949557,2.03843962 27.070813,2.00081933 L5,2 C3.3668151,2 2.03843962,3.30504427 2.00081933,4.92918703 L2,14.666 L13,14.6666667 C13.5522847,14.6666667 14,15.1143819 14,15.6666667 C14,16.2027077 13.5782336,16.64024 13.0484509,16.6655135 L13,16.6666667 L2,16.666 L2,17 C2,18.6331849 3.30504427,19.9615604 4.92918703,19.9991807 L5,20 L12,20 L12.0192161,20.000053 C12.0384539,20.0004468 12.0577752,20.0013984 12.0771617,20.0029209 L12,20 C12.0492239,20 12.0976171,20.0035565 12.1449366,20.0104267 C12.1509855,20.0114393 12.15769,20.0124879 12.164399,20.0136061 L12.1958505,20.0191705 C12.2150041,20.0229737 12.2339608,20.0273239 12.2527035,20.0322042 L12.164399,20.0136061 C12.2147559,20.0219989 12.2636026,20.0340183 12.3107162,20.0493524 C12.3252203,20.0539503 12.3395466,20.0589983 12.3537194,20.0643591 C12.3755413,20.0726654 12.3970434,20.0816494 12.4181132,20.0913292 C12.4313058,20.0974204 12.4442955,20.103756 12.4571239,20.1103609 C12.4739753,20.1189501 12.4904223,20.1280003 12.5065582,20.1374814 C12.5229341,20.1472352 12.5395227,20.1576561 12.5557744,20.1685409 C12.5699612,20.1778769 12.5833613,20.1873464 12.5964995,20.1971242 C12.6114368,20.2084176 12.6263871,20.2202116 12.6409842,20.2324141 C12.6544442,20.2434991 12.6675023,20.2550191 12.6802389,20.2668586 C12.693863,20.2796494 12.7072312,20.2927713 12.7202243,20.3062571 C12.7302759,20.3166064 12.7405042,20.3277192 12.7504729,20.3390516 C12.7642812,20.3547316 12.7779096,20.3712083 12.791008,20.3881164 C12.798586,20.3979878 12.8060192,20.4079796 12.8132645,20.4181057 C12.8239501,20.4328725 12.8343431,20.448244 12.844312,20.4639118 L12.8595937,20.48898 C12.8664755,20.5005427 12.8731273,20.5122472 12.879544,20.5240864 C12.8879299,20.5392329 12.8959518,20.5549974 12.9035613,20.5709959 C12.9126529,20.5904455 12.921235,20.6100773 12.9291885,20.6299958 C12.9347672,20.6436714 12.9399382,20.6575352 12.9448066,20.6715407 C12.9631524,20.7244156 12.9772221,20.7790733 12.9865756,20.8350358 C12.9894819,20.8532504 12.9920187,20.871675 12.9940466,20.8902525 C13.0023273,20.9639575 13.0022671,21.0397772 12.9932217,21.1164177 L12.9863939,21.164399 L11.9863939,27.164399 L11.9823447,27.1880572 C11.9779584,27.2111083 11.9727809,27.2338789 11.9668416,27.2563398 L11.9863939,27.164399 C11.9782872,27.2130392 11.966797,27.2602704 11.9522042,27.3058917 C11.946804,27.3231438 11.9409575,27.3397875 11.9346899,27.3562233 C11.9288556,27.3713807 11.9226195,27.3866475 11.9160313,27.4017013 C11.9067446,27.4228757 11.8967819,27.4435683 11.8861433,27.4638507 C11.8784799,27.4786343 11.870508,27.4929808 11.8622063,27.5070893 C11.8563264,27.5168557 11.8501863,27.5268728 11.8438768,27.5367715 C11.8317443,27.5560431 11.8192859,27.5742114 11.8062706,27.5919106 C11.7934366,27.609112 11.7801814,27.6259754 11.7664086,27.6423899 C11.7551535,27.6560034 11.7434105,27.6692551 11.7313379,27.6821739 C11.7227333,27.6912378 11.7141839,27.7000657 11.7054756,27.7087342 C11.689178,27.7250491 11.6719807,27.7409915 11.6542588,27.7563053 C11.6402622,27.7683961 11.6264135,27.779741 11.6122623,27.7907144 C11.5996069,27.8004566 11.5866814,27.8099761 11.5735351,27.8191814 C11.5548757,27.8323842 11.535372,27.8450888 11.515414,27.8571161 C11.5038938,27.8638955 11.492461,27.8704723 11.4808981,27.8768242 C11.4569761,27.8901421 11.4322517,27.9024365 11.4069732,27.9137126 C11.4002738,27.9165549 11.3931798,27.9196283 11.3860475,27.9226206 C11.3682447,27.9302057 11.3507337,27.9369551 11.3329932,27.9432183 C11.3131194,27.9501638 11.2928889,27.956614 11.2724243,27.9624218 C11.2605269,27.9658128 11.2479127,27.9691192 11.2352039,27.9721829 C11.2134934,27.9774679 11.1918022,27.9819632 11.1699084,27.9857364 C11.1562586,27.9879539 11.1429934,27.989945 11.1296457,27.9916729 C11.1088055,27.9945495 11.0875304,27.9966375 11.066114,27.9980377 L11.0484509,27.9988468 L11.0484509,27.9988468 L11,28 L8,28 C7.44771525,28 7,27.5522847 7,27 C7,26.4639589 7.42176636,26.0264266 7.9515491,26.0011532 L8,26 L10.152,26 L10.819,22 L5,22 C2.26619049,22 0.0448238098,19.8059714 0.000669857147,17.0826841 L0,5 C0,2.26619049 2.19402858,0.0448238098 4.91731586,0.000669857147 L27,0 Z M23.3751671,13.9862633 C26.1657522,14.17594 28.6074129,15.7227497 30.0011339,18.009735 L30,16 C30,15.4639589 30.4217664,15.0264266 30.9515491,15.0011532 L31,15 C31.5360411,15 31.9735734,15.4217664 31.9988468,15.9515491 L32,16 L32,21 C32,21.5360411 31.5782336,21.9735734 31.0484509,21.9988468 L31,22 L26,22 C25.4477153,22 25,21.5522847 25,21 C25,20.4639589 25.4217664,20.0264266 25.9515491,20.0011532 L26,20 L28.7683118,19.999386 C27.8635974,17.7431363 25.7344111,16.1512362 23.2395396,15.9816593 C20.3338689,15.7841603 17.6586007,17.5653142 16.7199747,20.3222888 C16.5419795,20.8451044 15.9738601,21.1246366 15.4510445,20.9466414 C14.9282289,20.7686462 14.6486967,20.2005268 14.826692,19.6777112 C16.0574214,16.0627568 19.5652421,13.7273019 23.3751671,13.9862633 Z"/></svg>