<svg width="32px" height="32px" viewBox="0 0 32 32" version="1.1" xmlns="http://www.w3.org/2000/svg" xmlns:xlink="http://www.w3.org/1999/xlink">
    <g id="+icon/+Streamline/light/travel-map-flag" stroke="none" stroke-width="1" fill="none" fill-rule="evenodd">
        <path d="M26.2857143,-6.66658574e-08 C27.262118,-6.66658574e-08 27.7888713,1.14527771 27.1534362,1.88661865 L27.1534362,1.88661865 L20.9325714,9.14285711 L27.1534362,16.3990956 C27.7465089,17.0910138 27.3271865,18.1348059 26.4747886,18.270903 L26.4747886,18.270903 L26.2857143,18.2857143 L6.85642852,18.2849999 L6.85714282,30.8571429 C6.85714282,31.4883255 6.34546825,31.9999999 5.71428567,31.9999999 C5.15323449,31.9999999 4.68660939,31.595714 4.58984148,31.0625729 L4.57142852,30.8571429 L4.57142852,1.14285708 C4.57142852,0.511674507 5.0831031,-6.66661594e-08 5.71428567,-6.66661594e-08 Z M23.7988572,2.28571423 L6.85714282,2.28571423 L6.85714282,16 L23.8011429,16 L18.5608496,9.88661869 C18.2398584,9.51212896 18.1997345,8.98178986 18.4404779,8.56833779 L18.4404779,8.56833779 L18.5608496,8.39909554 L23.7988572,2.28571423 Z" id="Combined-Shape" fill="#131C26"></path>
    </g>
</svg>