<svg width="32" height="32" viewBox="0 0 32 32" xmlns="http://www.w3.org/2000/svg">
    <path d="M31.2728 0.0441247C31.3058 0.0541404 31.3399 0.0741728 31.3729 0.0741728L31.382 0.0751739L31.386 0.0761769C31.4186 0.0905227 31.4498 0.107964 31.4791 0.128262C31.5052 0.142285 31.5292 0.165323 31.5522 0.165323L31.5563 0.167325C31.6644 0.240445 31.7576 0.333597 31.8327 0.445782L31.8698 0.515896L31.8678 0.512893C31.8889 0.54571 31.9074 0.580216 31.9229 0.616062C31.9529 0.649116 31.9529 0.683173 31.9529 0.716227L31.98 0.803371L31.979 0.797359C31.993 0.862466 32 0.930578 32 1.00069V10.349C32 10.6147 31.8945 10.8695 31.7066 11.0573C31.5188 11.2451 31.264 11.3507 30.9983 11.3507C30.7327 11.3507 30.4779 11.2451 30.29 11.0573C30.1022 10.8695 29.9966 10.6147 29.9966 10.349V3.41766L19.6874 13.7266C19.4977 13.9046 19.2462 14.002 18.9861 13.9979C18.726 13.9939 18.4777 13.8888 18.2936 13.7049C18.1096 13.521 18.0044 13.2728 18.0001 13.0127C17.9959 12.7526 18.093 12.501 18.271 12.3112L28.5813 2.00133L21.6497 2.00133C21.384 2.00133 21.1292 1.8958 20.9414 1.70796C20.7535 1.52011 20.648 1.26534 20.648 0.99969C20.648 0.734037 20.7535 0.479265 20.9414 0.291421C21.1292 0.103576 21.384 -0.00195316 21.6497 -0.00195312L30.9993 -0.00195135C31.0619 -0.00127312 31.1243 0.00543458 31.1856 0.018081L31.1916 0.0190821C31.2193 0.0253667 31.2464 0.0337393 31.2728 0.0441247Z" />
    <path d="M0.727219 31.952C0.694163 31.942 0.660108 31.9219 0.627052 31.9219L0.618035 31.9209L0.61403 31.9199C0.581385 31.9056 0.550187 31.8881 0.520872 31.8678C0.494828 31.8538 0.47079 31.8308 0.447751 31.8308L0.443744 31.8288C0.335563 31.7556 0.242406 31.6625 0.16728 31.5503L0.130218 31.4802L0.13222 31.4832C0.111051 31.4504 0.0926233 31.4159 0.0771279 31.38C0.0470768 31.347 0.0470787 31.3129 0.0470788 31.2799L0.020033 31.1927L0.0210342 31.1987C0.0070098 31.1336 -1.51386e-08 31.0655 0 30.9954L2.70304e-06 21.6471C2.7604e-06 21.3814 0.105538 21.1266 0.293389 20.9388C0.48124 20.751 0.736019 20.6454 1.00168 20.6454C1.26734 20.6454 1.52212 20.751 1.70997 20.9388C1.89782 21.1266 2.00336 21.3814 2.00336 21.6471L2.00336 28.5784L12.3126 18.2695C12.5023 18.0914 12.7538 17.9941 13.0139 17.9982C13.274 18.0022 13.5223 18.1073 13.7064 18.2912C13.8904 18.4751 13.9956 18.7233 13.9999 18.9834C14.0041 19.2435 13.907 19.4951 13.729 19.6849L3.41873 29.9948H10.3503C10.616 29.9948 10.8708 30.1003 11.0586 30.2881C11.2465 30.476 11.352 30.7308 11.352 30.9964C11.352 31.2621 11.2465 31.5168 11.0586 31.7047C10.8708 31.8925 10.616 31.998 10.3503 31.998L1.00068 31.998C0.938073 31.9974 0.875679 31.9907 0.814363 31.978L0.808356 31.977C0.780716 31.9707 0.753592 31.9624 0.727219 31.952Z" />
</svg>
