<?xml version="1.0" encoding="UTF-8"?>
<svg width="32px" height="32px" viewBox="0 0 32 32" version="1.1" xmlns="http://www.w3.org/2000/svg" xmlns:xlink="http://www.w3.org/1999/xlink">
    <title>+icon/+Streamline/light/interface-arrows-bend-down-right-2</title>
    <g id="+icon/+Streamline/light/interface-arrows-bend-down-right-2" stroke="none" stroke-width="1" fill="none" fill-rule="evenodd">
        <path d="M1.1428571,3.42857139 C1.70390827,3.42857139 2.17053338,3.83285748 2.26730129,4.36599852 L2.28571425,4.57142854 L2.28571425,9.14285713 C2.28571425,13.4138592 5.63263448,16.9031462 9.84677667,17.1310198 L10.2857143,17.1428572 L28.0979999,17.1425714 L23.191878,12.2366935 C22.7951549,11.8399704 22.7510746,11.2241432 23.059637,10.7787303 L23.191878,10.6204494 C23.5886011,10.2237263 24.2044283,10.179646 24.6498412,10.4882084 L24.8081221,10.6204494 L31.665265,17.4775923 L31.6834936,17.4962391 C31.7001391,17.5136571 31.7162393,17.5316005 31.731767,17.5500419 L31.665265,17.4775923 C31.704282,17.5166093 31.7398882,17.5577457 31.7720835,17.6006307 C31.7813372,17.6130923 31.7905964,17.6259784 31.7995902,17.6390612 C31.8153703,17.6618542 31.829916,17.6847498 31.8435681,17.7080249 C31.8839881,17.7770478 31.9175439,17.850894 31.9430328,17.9284013 C31.947355,17.9417489 31.9516506,17.9557178 31.9556725,17.9697487 C31.9633927,17.9963469 31.9700484,18.0231715 31.9757384,18.050351 C31.9785459,18.0642397 31.981203,18.0782186 31.9835978,18.0922336 C31.9885794,18.1208502 31.9924396,18.1502021 31.9951648,18.1798825 C31.9966568,18.1965762 31.997809,18.2128992 31.9986124,18.2292362 C31.9995271,18.2474489 31.9999999,18.2665264 31.9999999,18.2857143 L31.9999426,18.2972135 C31.9996726,18.3242108 31.9984519,18.3512003 31.9962805,18.3781276 L31.9999999,18.2857143 C31.9999999,18.3337447 31.9970371,18.3810832 31.9912841,18.4275567 C31.9888106,18.4469926 31.9857928,18.4670167 31.9822427,18.4869646 C31.9777226,18.5128485 31.9724086,18.5377417 31.966299,18.5623206 C31.9625675,18.5769688 31.9584834,18.5921072 31.9540831,18.6071729 C31.9468925,18.632027 31.938882,18.6562906 31.9300966,18.6801797 C31.9240958,18.6964115 31.9179182,18.7121395 31.9113787,18.7277519 C31.9015211,18.7512437 31.8907495,18.7746476 31.8792269,18.7976095 C31.8709351,18.8143043 31.8620279,18.8310373 31.8526754,18.8475867 C31.8405638,18.8687974 31.8281369,18.8892179 31.8151015,18.9092052 C31.8095487,18.917907 31.8035961,18.9267644 31.797506,18.9355555 L31.788653,18.9479969 C31.7543274,18.9961895 31.7163553,19.0416049 31.6751395,19.0838404 L31.665265,19.0938364 L24.8081221,25.9509792 C24.3618086,26.3972927 23.6381915,26.3972927 23.191878,25.9509792 C22.7951549,25.5542561 22.7510746,24.9384289 23.059637,24.493016 L23.191878,24.3347352 L28.0979999,19.4285714 L10.2857143,19.4285714 C4.7673752,19.4285714 0.264024892,15.082888 0.0111953546,9.62705303 L-5.00000255e-08,9.14285713 L-5.00000255e-08,4.57142854 C-5.00000255e-08,3.94024597 0.511674524,3.42857139 1.1428571,3.42857139 Z" id="Combined-Shape" fill="#131C26"></path>
    </g>
</svg>