<svg xmlns="http://www.w3.org/2000/svg" width="32" height="32">
    <title>selected</title>
    <g id="Page-1" stroke="none" stroke-width="1" fill="none" fill-rule="evenodd">
        <g id="selected" fill="#71767C" fill-rule="nonzero">
            <path d="M21,0 C21.5522848,0 22,0.447715251 22,1 L22,1 L22,11 C22,11.5522847 21.5522848,12 21,12 L21,12 L17,12 L17,16 L24,16 C25.6331849,16 26.9615604,17.3050443 26.9991807,18.9291871 L27,19 L27,20 L31,20 C31.5062611,20 31.9246547,20.3762052 31.9908712,20.8643059 L32,21 L32,31 C32,31.5522848 31.5522848,32 31,32 L31,32 L21,32 C20.4477152,32 20,31.5522848 20,31 L20,31 L20,21 C20,20.4477152 20.4477152,20 21,20 L21,20 L25,20 L25,19 C25,18.4639589 24.5782336,18.0264267 24.0484509,18.0011532 L8,18 C7.46395892,18 7.02642665,18.4217664 7.00115316,18.9515491 L7,20 L11,20 C11.506261,20 11.9246546,20.3762052 11.9908712,20.8643059 L12,21 L12,31 C12,31.5522848 11.5522847,32 11,32 L11,32 L1,32 C0.447715251,32 0,31.5522848 0,31 L0,31 L0,21 C0,20.4477152 0.447715251,20 1,20 L1,20 L5,20 L5,19 C5,17.3668151 6.30504427,16.0384396 7.92918703,16.0008193 L15,16 L15,12 L11,12 C10.493739,12 10.0753454,11.6237948 10.0091288,11.1356941 L10,11 L10,1 C10,0.447715251 10.4477153,0 11,0 L11,0 L21,0 Z M5.98133333,21.9986667 L2,21.9999239 L2,29.9999239 L10,29.9999239 L10,21.9999239 L6.0190962,21.9998213 C6.01274511,21.9999403 6.00637953,22 6,22 L5.98133333,21.9986667 Z M25.9813333,21.9986667 L22,21.9999239 L22,29.9999239 L30,29.9999239 L30,21.9999239 L26.0190961,21.9998213 C26.0127451,21.9999403 26.0063795,22 26,22 L25.9813333,21.9986667 Z M20,1.99992381 L12,1.99992381 L12,9.99992381 L20,9.99992381 L20,1.99992381 Z" id="Combined-Shape"></path>
        </g>
    </g>
</svg>