<svg xmlns="http://www.w3.org/2000/svg" width="32" height="32"><path d="M2.29289 2.29289C2.48043 2.10536 2.73478 2 3 2L21.7073 6.12155L21.7076 6.12177C21.8947 6.30917 21.9999 6.56315 22 6.828V6.82821V10C22 10.5523 22.4477 11 23 11C23.5523 11 24 10.5523 24 10V6.828V6.82779C23.9998 6.03269 23.684 5.27018 23.122 4.70779L23.1218 4.70756L19.2924 0.878226L19.2922 0.878C18.7298 0.315963 17.9673 0.000169814 17.1722 0H17.172H3C2.20435 0 1.44129 0.316071 0.87868 0.87868C0.316071 1.44129 0 2.20435 0 3V25C0 25.7957 0.316071 26.5587 0.87868 27.1213C1.44129 27.6839 2.20435 28 3 28H10C10.5523 28 11 27.5523 11 27C11 26.4477 10.5523 26 10 26H3C2.73478 26 2.48043 25.8946 2.29289 25.7071C2.10536 25.5196 2 25.2652 2 25V3C2 2.73478 2.10536 2.48043 2.29289 2.29289ZM3 2L17.8782 2.29244C17.6908 2.10529 17.4368 2.00011 17.172 2H17.1718H3ZM4 9C4 8.44771 4.44772 8 5 8H19C19.5523 8 20 8.44771 20 9C20 9.55229 19.5523 10 19 10H5C4.44772 10 4 9.55229 4 9ZM23 14C20.6131 14 18.3239 14.9482 16.636 16.636C14.9482 18.3239 14 20.6131 14 23C14 25.3869 14.9482 27.6761 16.636 29.364C18.3239 31.0518 20.6131 32 23 32C25.3869 32 27.6761 31.0518 29.364 29.364C31.0518 27.6761 32 25.3869 32 23C32 20.6131 31.0518 18.3239 29.364 16.636C27.6761 14.9482 25.3869 14 23 14ZM18.0503 18.0503C19.363 16.7375 21.1435 16 23 16C24.8565 16 26.637 16.7375 27.9497 18.0503C29.2625 19.363 30 21.1435 30 23C30 24.8565 29.2625 26.637 27.9497 27.9497C26.637 29.2625 24.8565 30 23 30C21.1435 30 19.363 29.2625 18.0503 27.9497C16.7375 26.637 16 24.8565 16 23C16 21.1435 16.7375 19.363 18.0503 18.0503ZM24 19.4639C24 18.9116 23.5523 18.4639 23 18.4639C22.4477 18.4639 22 18.9116 22 19.4639V22.9999C22 23.5522 22.4477 23.9999 23 23.9999H26.536C27.0883 23.9999 27.536 23.5522 27.536 22.9999C27.536 22.4476 27.0883 21.9999 26.536 21.9999H24V19.4639ZM5 14C4.44772 14 4 14.4477 4 15C4 15.5523 4.44772 16 5 16H13C13.5523 16 14 15.5523 14 15C14 14.4477 13.5523 14 13 14H5ZM4 21C4 20.4477 4.44772 20 5 20H10C10.5523 20 11 20.4477 11 21C11 21.5523 10.5523 22 10 22H5C4.44772 22 4 21.5523 4 21Z"/></svg>