<svg xmlns="http://www.w3.org/2000/svg" width="32" height="32"><path d="M20,24 C20.5522847,24 21,24.4477153 21,25 C21,25.5360411 20.5782336,25.9735734 20.0484509,25.9988468 L20,26 L17.2399976,26.000763 C18.1525094,28.239731 20.2730739,29.817006 22.7556955,29.9864438 C25.6594793,30.1846257 28.3342182,28.4073537 29.2765265,25.653576 C29.4553327,25.1310372 30.0238852,24.8523869 30.546424,25.0311932 C31.0689628,25.2099994 31.3476131,25.7785519 31.1688068,26.3010907 C29.9333707,29.9114977 26.4265894,32.2416331 22.6195132,31.981802 C19.8330453,31.7916268 17.3944633,30.2487184 15.9996627,27.9668368 L16,30 C16,30.5360411 15.5782336,30.9735734 15.0484509,30.9988468 L15,31 C14.4639589,31 14.0264266,30.5782336 14.0011532,30.0484509 L14,30 L14,25 C14,24.4639589 14.4217664,24.0264266 14.9515491,24.0011532 L15,24 L20,24 Z M16,0 C24.6604998,0 31.7844747,2.7975419 31.9952014,6.81648506 L32,7 L32,12.02 C32,12.5722847 31.5522847,13.02 31,13.02 C30.4639589,13.02 30.0264266,12.5982336 30.0011532,12.0684509 L30,12.02 L30.0011165,10.5026491 C29.617002,10.8043399 29.1821189,11.0903241 28.700517,11.3594164 L28.5138824,11.4615995 C28.0101493,11.7318741 27.4582701,11.9843887 26.8625527,12.2178823 L26.6371122,12.3045483 C26.561286,12.3331381 26.4847832,12.3614283 26.4076123,12.3894164 C25.8884188,12.5777154 25.3148827,12.3094725 25.1265836,11.7902789 C24.9382846,11.2710854 25.2065275,10.6975494 25.7257211,10.5092503 C28.4927785,9.50570484 30,8.17512921 30,7 C30,4.48844532 23.7781227,2 16,2 C8.2230013,2 2,4.48927694 2,7 C2,9.51072306 8.2230013,12 16,12 C16.5522847,12 17,12.4477153 17,13 C17,13.5522847 16.5522847,14 16,14 C10.0002221,14 4.73697934,12.6565696 1.99981391,10.4948402 L2,15 C2,16.9904328 6.1151448,19.1243677 12.0902937,19.7874343 C12.639209,19.8483478 13.0348126,20.3427118 12.973899,20.891627 C12.9129855,21.4405423 12.4186216,21.8361459 11.8697063,21.7752324 C7.60004309,21.3014247 4.07155336,20.1356853 2.00056867,18.5027812 L2,23 C2,24.1751485 3.44922139,25.4151824 5.89665197,26.3658892 L6.13274419,26.4555466 C6.33197866,26.5295133 6.53741049,26.6015867 6.74881421,26.6715898 L7.00535074,26.7545884 C8.12930551,27.1098446 9.41230149,27.4072041 10.8226367,27.6217691 L11.1503447,27.669803 C11.6972153,27.746945 12.0780057,28.2528073 12.0008636,28.799678 C11.9237216,29.3465487 11.4178594,29.727339 10.8709887,29.650197 C4.53411404,28.7563123 0.089595182,26.313081 0.00133849224,23.0976722 L0,23 L0,7 C0,2.8838722 7.20945917,0 16,0 Z M23.3808399,14.0212113 C26.1678766,14.2116847 28.6069573,15.7552531 30.0017493,18.0380557 L30,16 C30,15.4639589 30.4217664,15.0264266 30.9515491,15.0011532 L31,15 C31.5360411,15 31.9735734,15.4217664 31.9988468,15.9515491 L32,16 L32,21 C32,21.5360411 31.5782336,21.9735734 31.0484509,21.9988468 L31,22 L26,22 C25.4477153,22 25,21.5522847 25,21 C25,20.4639589 25.4217664,20.0264266 25.9515491,20.0011532 L26,20 L28.7592113,19.9993319 C27.8457279,17.7619596 25.7259099,16.1861448 23.2444727,16.0165569 C20.3416455,15.81817 17.6672709,17.5935979 16.7232341,20.3457894 C16.544042,20.8681959 15.9752839,21.1464262 15.4528773,20.9672341 C14.9304707,20.788042 14.6522404,20.2192839 14.8314326,19.6968773 C16.069074,16.0887275 19.5752051,13.7611241 23.3808399,14.0212113 Z"/></svg>