<svg xmlns="http://www.w3.org/2000/svg" width="32" height="32"><path d="M27 0H3C2.20435 0 1.44129 0.31607 0.87868 0.87868C0.31607 1.44129 0 2.20435 0 3L0 25C0 25.7956 0.31607 26.5587 0.87868 27.1213C1.44129 27.6839 2.20435 28 3 28H11C11.2652 28 11.5196 27.8946 11.7071 27.7071C11.8946 27.5196 12 27.2652 12 27C12 26.7348 11.8946 26.4804 11.7071 26.2929C11.5196 26.1054 11.2652 26 11 26H3C2.73478 26 2.48043 25.8946 2.29289 25.7071C2.10536 25.5196 2 25.2652 2 25V8H28V17C28 17.2652 28.1054 17.5196 28.2929 17.7071C28.4804 17.8946 28.7348 18 29 18C29.2652 18 29.5196 17.8946 29.7071 17.7071C29.8946 17.5196 30 17.2652 30 17V3C30 2.20435 29.6839 1.44129 29.1213 0.87868C28.5587 0.31607 27.7956 0 27 0V0ZM2 6V3C2 2.73478 2.10536 2.48043 2.29289 2.29289C2.48043 2.10536 2.73478 2 3 2H27C27.2652 2 27.5196 2.10536 27.7071 2.29289C27.8946 2.48043 28 2.73478 28 3V6H2ZM23 29C22.4067 29 21.8266 28.8241 21.3333 28.4944C20.8399 28.1648 20.4554 27.6962 20.2284 27.1481C20.0013 26.5999 19.9419 25.9967 20.0576 25.4147C20.1734 24.8328 20.4591 24.2982 20.8787 23.8787C21.2982 23.4591 21.8328 23.1734 22.4147 23.0576C22.9967 22.9419 23.5999 23.0013 24.1481 23.2284C24.6962 23.4554 25.1648 23.8399 25.4944 24.3333C25.8241 24.8266 26 25.4067 26 26C26 26.7956 25.6839 27.5587 25.1213 28.1213C24.5587 28.6839 23.7956 29 23 29ZM23 25C22.7348 25 22.4804 25.1054 22.2929 25.2929C22.1054 25.4804 22 25.7348 22 26C22 26.2652 22.1054 26.5196 22.2929 26.7071C22.4804 26.8946 22.7348 27 23 27C23.2652 27 23.5196 26.8946 23.7071 26.7071C23.8946 26.5196 24 26.2652 24 26C24.0004 25.8686 23.9748 25.7384 23.9247 25.6168C23.8746 25.4953 23.8009 25.3849 23.708 25.292C23.6151 25.1991 23.5047 25.1254 23.3832 25.0753C23.2616 25.0252 23.1314 24.9996 23 25V25ZM22.897 32C19.65 32 16.464 29.667 14.564 27.48C14.224 27.085 14.017 26.566 14.017 26C14.017 25.434 14.224 24.915 14.566 24.517L14.563 24.52C16.463 22.333 19.666 20 22.896 20H22.999C26.276 19.94 29.512 22.3 31.449 24.517C31.789 24.912 31.996 25.431 31.996 25.997C31.996 26.563 31.789 27.082 31.447 27.48L31.45 27.477C29.517 29.7 26.277 32.057 23 32H22.897ZM22.897 22C20.334 22 17.607 24.057 16.057 25.833C16.0192 25.8805 15.9986 25.9393 15.9986 26C15.9986 26.0607 16.0192 26.1195 16.057 26.167V26.166C17.697 28.046 20.39 30.053 22.977 29.996H23.1C25.667 29.999 28.333 28.026 29.943 26.166C29.9808 26.1185 30.0014 26.0597 30.0014 25.999C30.0014 25.9383 29.9808 25.8795 29.943 25.832V25.833C28.39 24.056 25.666 22 23.1 22H22.897V22Z"/></svg>
