<svg xmlns="http://www.w3.org/2000/svg" width="32" height="33"><path d="M17 7.00399C18.6568 7.00399 20 8.34714 20 10.004L19.9998 17.2016L24.7822 18.2651C27.2097 18.8045 28.8676 21.0436 28.6841 23.5151L28.6772 23.5985L27.9959 31.0945C27.9491 31.6097 27.517 32.004 26.9997 32.004L14.9997 32C14.6851 31.9999 14.3889 31.8517 14.2001 31.6001L9.06665 24.7573C8.3156 23.7559 8.25437 22.3976 8.91902 21.3187L8.96841 21.2419C9.43278 20.5466 10.1626 20.0729 10.9867 19.9317C11.8108 19.7905 12.6567 19.9944 13.3276 20.4967L13.9931 20.9968L13.9933 10.004C13.9933 9.23509 14.2885 8.49669 14.816 7.94021L14.8755 7.87914C15.414 7.34251 16.1358 7.03052 16.9129 7.00516L17 7.00399ZM17 9.00399L16.9605 9.00451C16.7075 9.01282 16.4669 9.11683 16.2874 9.2957C16.0991 9.48334 15.9933 9.7382 15.9933 10.004V23C15.9933 23.8246 15.0515 24.2948 14.3924 23.7993L12.1273 22.0965C11.8976 21.9245 11.6072 21.8545 11.3244 21.903C11.0415 21.9514 10.791 22.1141 10.6422 22.3366L10.6126 22.3824C10.3879 22.7473 10.4089 23.2136 10.6666 23.5572L15.4999 30.0002L26.0866 30.0036L26.6854 23.4175C26.8198 21.9388 25.8527 20.5883 24.4181 20.2339L24.3483 20.2175L18.783 18.9802C18.3255 18.8784 18 18.4727 18 18.004V10.004C18 9.45171 17.5523 9.00399 17 9.00399ZM27 0C29.7338 0 31.9552 2.19403 31.9993 4.91731L32 5V16.9986C32.0017 18.217 31.5574 19.3939 30.7509 20.3072C30.3853 20.7212 29.7534 20.7605 29.3394 20.3949C28.9384 20.0408 28.889 19.4366 29.2187 19.0228L29.2517 18.9834C29.7155 18.4582 29.9794 17.7874 29.9988 17.0876L30 17V5C30 3.36681 28.6949 2.03844 27.0708 2.00082L5 2C3.36681 2 2.03844 3.30504 2.00082 4.92918L2 17C2 18.6332 3.30504 19.9616 4.92918 19.9992L5 20C5.55228 20 6 20.4477 6 21C6 21.5523 5.55228 22 5 22C2.26619 22 0.0448238 19.806 0.000669857 17.0827L0 5C0 2.26619 2.19403 0.0448238 4.91731 0.000669857L27 0Z"/></svg>
