<?xml version="1.0" encoding="UTF-8"?>
<svg width="32px" height="32px" viewBox="0 0 32 32" version="1.1" xmlns="http://www.w3.org/2000/svg" xmlns:xlink="http://www.w3.org/1999/xlink">
    <title>localize</title>
    <g id="sketch" stroke="none" stroke-width="1" fill="none" fill-rule="evenodd">
        <g id="Desktop-HD" transform="translate(-524.000000, -417.000000)" fill="#131C26">
            <g id="localize_-streamline" transform="translate(524.000000, 417.000000)">
                <path d="M16,-6.66662648e-08 C16.5610512,-6.66662648e-08 17.0276763,0.404286016 17.1244442,0.937427063 L17.1428571,1.14285708 L17.1425733,4.6278292 C22.5421344,5.16379472 26.8362053,9.45786561 27.3721708,14.8574267 L30.8571429,14.8571429 C31.4883255,14.8571429 32.0000001,15.3688174 32.0000001,16 C32.0000001,16.5610512 31.595714,17.0276763 31.0625729,17.1244442 L30.8571429,17.1428571 L27.3721708,17.1425733 C26.8362053,22.5421344 22.5421344,26.8362053 17.1425733,27.3721708 L17.1428571,30.8571429 C17.1428571,31.4883255 16.6311826,32.0000001 16,32.0000001 C15.4389488,32.0000001 14.9723237,31.595714 14.8755558,31.0625729 L14.8571429,30.8571429 L14.8574267,27.3721708 C9.45786561,26.8362053 5.16379472,22.5421344 4.6278292,17.1425733 L1.14285708,17.1428571 C0.511674507,17.1428571 -6.66666674e-08,16.6311826 -6.66666674e-08,16 C-6.66666674e-08,15.4389488 0.404286016,14.9723237 0.937427063,14.8755558 L1.14285708,14.8571429 L4.6278292,14.8574267 C5.16379472,9.45786561 9.45786561,5.16379472 14.8574267,4.6278292 L14.8571429,1.14285708 C14.8571429,0.511674507 15.3688174,-6.66662648e-08 16,-6.66662648e-08 Z M16,6.85714282 C10.9505394,6.85714282 6.85714282,10.9505394 6.85714282,16 C6.85714282,21.0494606 10.9505394,25.1428572 16,25.1428572 C21.0494606,25.1428572 25.1428572,21.0494606 25.1428572,16 C25.1428572,10.9505394 21.0494606,6.85714282 16,6.85714282 Z M16,13.7142857 C17.2623651,13.7142857 18.2857143,14.7376349 18.2857143,16 C18.2857143,17.2623651 17.2623651,18.2857143 16,18.2857143 C14.7376349,18.2857143 13.7142857,17.2623651 13.7142857,16 C13.7142857,14.7376349 14.7376349,13.7142857 16,13.7142857 Z" id="Combined-Shape"></path>
            </g>
        </g>
    </g>
</svg>