<svg xmlns="http://www.w3.org/2000/svg" width="32" height="32">
<path d="M22.4653062,2.67763343 C22.9115969,3.12396968 22.9115599,3.8475868 22.4652237,4.29387751 C22.0188874,4.74016821 21.2952703,4.74013129 20.8489796,4.29379504 C18.8878419,2.33245714 15.9382876,1.74569229 13.3758181,2.80713363 C10.9482154,3.81270963 9.32098955,6.10993202 9.15659745,8.70734535 L9.14285711,9.14285711 L9.14257138,11.4281553 L25.1428572,11.4285714 C26.9732866,11.4285714 28.4686953,12.8629658 28.5663555,14.6690267 L28.5714286,14.8571429 L28.5714286,28.5714286 C28.5714286,30.4649763 27.0364049,32.0000001 25.1428572,32.0000001 L25.1428572,32.0000001 L6.85714282,32.0000001 C4.9635951,32.0000001 3.42857138,30.4649763 3.42857138,28.5714286 L3.42857138,28.5714286 L3.42857138,14.8571429 C3.42857138,12.9635951 4.9635951,11.4285714 6.85714282,11.4285714 L6.85714282,11.4285714 L6.85714282,9.14293958 C6.85687598,5.44479407 9.08446476,2.11067333 12.5010908,0.695418215 C15.9177168,-0.719836905 19.8504558,0.0625162332 22.4653062,2.67763343 Z M25.1428572,13.7142857 L6.85714282,13.7142857 C6.22596025,13.7142857 5.71428567,14.2259603 5.71428567,14.8571429 L5.71428567,14.8571429 L5.71428567,28.5714286 C5.71428567,29.2026112 6.22596025,29.7142857 6.85714282,29.7142857 L6.85714282,29.7142857 L25.1428572,29.7142857 C25.7740398,29.7142857 26.2857143,29.2026112 26.2857143,28.5714286 L26.2857143,28.5714286 L26.2857143,14.8571429 C26.2857143,14.2259603 25.7740398,13.7142857 25.1428572,13.7142857 L25.1428572,13.7142857 Z M16,19.4285714 C17.2623651,19.4285714 18.2857143,20.4519206 18.2857143,21.7142857 C18.2857143,22.9766509 17.2623651,24 16,24 C14.7376349,24 13.7142857,22.9766509 13.7142857,21.7142857 C13.7142857,20.4519206 14.7376349,19.4285714 16,19.4285714 Z"/>
</svg>