<svg xmlns="http://www.w3.org/2000/svg" width="32" height="32">
<path d="M16,-6.66677803e-08 C20.8964466,-6.66677803e-08 24.8938946,3.84907074 25.1316679,8.68653633 L25.1428572,9.14285711 L25.1428572,11.4285714 C27.0364049,11.4285714 28.5714286,12.9635951 28.5714286,14.8571429 L28.5714286,14.8571429 L28.5714286,28.5714286 C28.5714286,30.4649763 27.0364049,32.0000001 25.1428572,32.0000001 L25.1428572,32.0000001 L6.85714282,32.0000001 C4.9635951,32.0000001 3.42857138,30.4649763 3.42857138,28.5714286 L3.42857138,28.5714286 L3.42857138,14.8571429 C3.42857138,12.9635951 4.9635951,11.4285714 6.85714282,11.4285714 L6.85714282,11.4285714 L6.85714282,9.14285711 C6.85714282,4.09339652 10.9505394,-6.66677803e-08 16,-6.66677803e-08 Z M25.1428572,13.7142857 L6.85714282,13.7142857 C6.22596025,13.7142857 5.71428567,14.2259603 5.71428567,14.8571429 L5.71428567,14.8571429 L5.71428567,28.5714286 C5.71428567,29.2026112 6.22596025,29.7142857 6.85714282,29.7142857 L6.85714282,29.7142857 L25.1428572,29.7142857 C25.7740398,29.7142857 26.2857143,29.2026112 26.2857143,28.5714286 L26.2857143,28.5714286 L26.2857143,14.8571429 C26.2857143,14.2259603 25.7740398,13.7142857 25.1428572,13.7142857 L25.1428572,13.7142857 Z M16,19.4285714 C17.2623651,19.4285714 18.2857143,20.4519206 18.2857143,21.7142857 C18.2857143,22.9766509 17.2623651,24 16,24 C14.7376349,24 13.7142857,22.9766509 13.7142857,21.7142857 C13.7142857,20.4519206 14.7376349,19.4285714 16,19.4285714 Z M16,2.28571423 C12.348158,2.28571423 9.36306082,5.14038844 9.15449756,8.73994788 L9.14285711,9.14285711 L9.14257138,11.4279999 L22.8565714,11.4279999 L22.8571428,9.14285711 C22.8571428,5.35576167 19.7870954,2.28571423 16,2.28571423 Z"/>
</svg>