<svg width="32" height="32" viewBox="0 0 32 32" xmlns="http://www.w3.org/2000/svg">
<path fill-rule="evenodd" clip-rule="evenodd" d="M31 12.2105V3.08105C31 2.81584 30.8946 2.56148 30.7071 2.37395C30.5196 2.18641 30.2652 2.08105 30 2.08105H3C2.73478 2.08105 2.48043 2.18641 2.29289 2.37395C2.10536 2.56148 2 2.81584 2 3.08105V29.0811C2 29.3463 2.10536 29.6006 2.29289 29.7882C2.48043 29.9757 2.73478 30.0811 3 30.0811H12.7799L11.6147 29.4075L13.9094 28.0811H4V4.08105H29V9.93517L31 12.2105ZM17.9058 19.8134C16.7201 18.8988 15.3628 18.2184 13.906 17.8171L13.984 17.8361C13.026 17.5661 12.016 17.4211 10.972 17.4211C8.9117 17.4153 6.89149 17.9903 5.143 19.0801L5.138 19.0831C4.92138 19.2259 4.7688 19.4474 4.71248 19.7008C4.65616 19.9541 4.70051 20.2194 4.83618 20.4406C4.97184 20.6618 5.18818 20.8216 5.4395 20.8863C5.68203 20.9487 5.9388 20.9177 6.15919 20.8002C6.15446 20.8031 6.14973 20.8061 6.145 20.8091L6.183 20.7871C6.17511 20.7915 6.16718 20.7959 6.15919 20.8002C7.60281 19.8981 9.27152 19.4211 10.974 19.4241C11.7857 19.4216 12.5938 19.5302 13.376 19.7471L13.445 19.7641C14.7702 20.1455 15.9801 20.7992 17.0138 21.6679C17.2587 21.0212 17.5579 20.4012 17.9058 19.8134ZM22.1573 9.3032C22.7068 10.1254 23 11.0921 23 12.0811C23 13.4071 22.4732 14.6789 21.5355 15.6166C20.5979 16.5543 19.3261 17.0811 18 17.0811C17.0111 17.0811 16.0444 16.7878 15.2221 16.2384C14.3999 15.689 13.759 14.9081 13.3806 13.9945C13.0022 13.0808 12.9031 12.0755 13.0961 11.1056C13.289 10.1357 13.7652 9.24478 14.4645 8.54552C15.1637 7.84626 16.0546 7.37005 17.0245 7.17713C17.9945 6.9842 18.9998 7.08322 19.9134 7.46166C20.827 7.84009 21.6079 8.48096 22.1573 9.3032ZM20.4944 13.7478C20.8241 13.2544 21 12.6744 21 12.0811C21 11.2854 20.6839 10.5223 20.1213 9.95973C19.5587 9.39712 18.7956 9.08105 18 9.08105C17.4067 9.08105 16.8266 9.257 16.3333 9.58665C15.8399 9.91629 15.4554 10.3848 15.2284 10.933C15.0013 11.4812 14.9419 12.0844 15.0576 12.6663C15.1734 13.2483 15.4591 13.7828 15.8787 14.2024C16.2982 14.6219 16.8328 14.9077 17.4147 15.0234C17.9967 15.1392 18.5999 15.0798 19.1481 14.8527C19.6962 14.6256 20.1648 14.2411 20.4944 13.7478Z" />
<path fill-rule="evenodd" clip-rule="evenodd" d="M10.8452 29.0811C10.8452 28.5288 11.2929 28.0811 11.8452 28.0811H13.8406C14.3929 28.0811 14.8406 28.5288 14.8406 29.0811C14.8406 29.6333 14.3929 30.0811 13.8406 30.0811H11.8452C11.2929 30.0811 10.8452 29.6333 10.8452 29.0811Z" />
<path fill-rule="evenodd" clip-rule="evenodd" d="M30 7.01367C30.5523 7.01367 31 7.46139 31 8.01367L31 14.009C31 14.5613 30.5523 15.009 30 15.009C29.4477 15.009 29 14.5613 29 14.009L29 8.01367C29 7.46139 29.4477 7.01367 30 7.01367Z" />
<path fill-rule="evenodd" clip-rule="evenodd" d="M23.2456 18.7023C24.4736 17.3616 26.4175 16.9367 28.6726 17.6346C29.08 17.7607 29.3626 18.1313 29.3764 18.5575C29.3902 18.9838 29.1321 19.3719 28.7337 19.5241C28.0802 19.7736 27.6104 20.2326 27.4012 20.661C27.2198 21.0325 27.2633 21.2731 27.3832 21.4337C27.512 21.5206 27.6036 21.5377 27.6637 21.5394C27.7413 21.5416 27.8637 21.5199 28.04 21.4117C28.4202 21.1784 28.8838 20.6428 29.3162 19.7995C29.5017 19.4378 29.8876 19.2243 30.2925 19.2595C30.6974 19.2946 31.0408 19.5713 31.1612 19.9595C31.8222 22.0904 31.5167 24.0089 30.2091 25.2515C29.0499 26.3531 27.3254 26.7057 25.4577 26.4183L21.3193 30.5567C21.3037 30.5723 21.2876 30.5874 21.2711 30.6019C20.7605 31.0491 20.1398 31.144 19.6007 31.0424C19.0845 30.9452 18.6261 30.6711 18.2827 30.3394C17.9399 30.0083 17.6435 29.5534 17.5391 29.022C17.4283 28.4576 17.5461 27.8357 17.9989 27.3234C18.0138 27.3065 18.0292 27.2902 18.0452 27.2744L22.1144 23.2528C21.8224 21.5486 22.1766 19.8695 23.2456 18.7023ZM24.7205 20.0531C24.1042 20.726 23.8089 21.9035 24.1748 23.3317C24.263 23.676 24.1618 24.0413 23.909 24.2911L19.5035 28.645C19.5161 28.6951 19.5625 28.795 19.6722 28.901C19.7875 29.0123 19.9049 29.0644 19.9707 29.0769L24.4152 24.6324C24.6557 24.3918 25.002 24.2901 25.3344 24.3622C27.0324 24.7307 28.2103 24.3919 28.8313 23.8018C29.0604 23.5841 29.2533 23.2934 29.3725 22.9205C29.2792 22.9909 29.1838 23.0563 29.0862 23.1163C28.6572 23.3795 28.156 23.5541 27.6073 23.5386C27.0508 23.5229 26.534 23.314 26.0813 22.9578C26.0427 22.9274 26.0063 22.8942 25.9726 22.8585C25.0974 21.9318 25.1449 20.7236 25.604 19.7834C25.6679 19.6526 25.7403 19.5245 25.8207 19.3998C25.3438 19.5277 24.9819 19.7676 24.7205 20.0531Z" />
<path fill-rule="evenodd" clip-rule="evenodd" d="M16.2199 19.7565C16.5638 19.3177 17.1444 19.2361 17.5818 19.5789L19.2108 20.7897C19.6482 21.1325 19.7282 21.7978 19.3842 22.2367C19.0403 22.6755 18.4069 22.7533 17.9695 22.4105L16.3891 21.1719C15.9517 20.829 15.8759 20.1953 16.2199 19.7565Z" />
</svg>
