<svg xmlns="http://www.w3.org/2000/svg" width="32" height="32">
    <title>Combined Shape</title>
    <g id="icons" stroke="none" stroke-width="1" fill="none" fill-rule="evenodd">
        <g id="Artboard" transform="translate(0.000000, -3.000000)" fill="#131C26">
            <path d="M19.4285714,26.4285714 C20.059754,26.4285714 20.5714286,26.940246 20.5714286,27.5714285 C20.5714286,28.1324797 20.1671425,28.5991048 19.6340014,28.6958727 L19.4285714,28.7142857 L1.14285714,28.7142857 C0.511674572,28.7142857 1.77635684e-15,28.2026111 1.77635684e-15,27.5714285 C1.77635684e-15,27.0103774 0.404286081,26.5437523 0.937427126,26.4469843 L1.14285714,26.4285714 L19.4285714,26.4285714 Z M25.1428571,15 C25.7740397,15 26.2857143,15.5116745 26.2857143,16.1428571 C26.2857143,16.7039083 25.8814282,17.1705334 25.3482872,17.2673013 L25.1428571,17.2857142 L8,17.2857142 C7.36881743,17.2857142 6.85714286,16.7740397 6.85714286,16.1428571 C6.85714286,15.5818059 7.26142894,15.1151808 7.79456998,15.0184129 L8,15 L25.1428571,15 Z M30.8571429,3.57142853 C31.4883254,3.57142853 32,4.0831031 32,4.71428567 C32,5.27533685 31.5957139,5.74196195 31.0625729,5.83872986 L30.8571429,5.85714282 L13.7142857,5.85714282 C13.0831031,5.85714282 12.5714286,5.34546825 12.5714286,4.71428567 C12.5714286,4.1532345 12.9757147,3.6866094 13.5088557,3.58984149 L13.7142857,3.57142853 L30.8571429,3.57142853 Z" id="Combined-Shape"></path>
        </g>
    </g>
</svg>