<svg width="32" height="32" viewBox="0 0 32 32" xmlns="http://www.w3.org/2000/svg">
<path d="M3 2C2.73478 2 2.48043 2.10536 2.29289 2.29289C2.10536 2.48043 2 2.73478 2 3V25C2 25.2652 2.10536 25.5196 2.29289 25.7071C2.48043 25.8946 2.73478 26 3 26H10C10.5523 26 11 26.4477 11 27C11 27.5523 10.5523 28 10 28H3C2.20435 28 1.44129 27.6839 0.87868 27.1213C0.316071 26.5587 0 25.7957 0 25V3C0 2.20435 0.316071 1.44129 0.87868 0.87868C1.44129 0.316071 2.20435 0 3 0H17.172C17.9671 0.000169814 18.7298 0.315963 19.2922 0.878L23.1218 4.70756C23.6838 5.26996 23.9998 6.0327 24 6.82779V10C24 10.5523 23.5523 11 23 11C22.4477 11 22 10.5523 22 10V6.82821C21.9999 6.56336 21.8947 6.30917 21.7076 6.12177M21.7076 6.12177L17.8785 2.29267C17.6911 2.10551 17.4368 2.00011 17.172 2H3M4 9C4 8.44772 4.44772 8 5 8H19C19.5523 8 20 8.44772 20 9C20 9.55229 19.5523 10 19 10H5C4.44772 10 4 9.55229 4 9ZM4 15C4 14.4477 4.44772 14 5 14H13C13.5523 14 14 14.4477 14 15C14 15.5523 13.5523 16 13 16H5C4.44772 16 4 15.5523 4 15ZM16.636 16.636C18.3239 14.9482 20.6131 14 23 14C25.3869 14 27.6761 14.9482 29.364 16.636C31.0518 18.3239 32 20.6131 32 23C32 25.3869 31.0518 27.6761 29.364 29.364C27.6761 31.0518 25.3869 32 23 32C20.6131 32 18.3239 31.0518 16.636 29.364C14.9482 27.6761 14 25.3869 14 23C14 20.6131 14.9482 18.3239 16.636 16.636ZM23 16C21.1435 16 19.363 16.7375 18.0503 18.0503C16.7375 19.363 16 21.1435 16 23C16 24.8565 16.7375 26.637 18.0503 27.9497C19.363 29.2625 21.1435 30 23 30C24.8565 30 26.637 29.2625 27.9497 27.9497C29.2625 26.637 30 24.8565 30 23C30 21.1435 29.2625 19.363 27.9497 18.0503C26.637 16.7375 24.8565 16 23 16ZM23 18.4639C23.5523 18.4639 24 18.9116 24 19.4639V21.9999H26.536C27.0883 21.9999 27.536 22.4476 27.536 22.9999C27.536 23.5522 27.0883 23.9999 26.536 23.9999H23C22.4477 23.9999 22 23.5522 22 22.9999V19.4639C22 18.9116 22.4477 18.4639 23 18.4639ZM4 21C4 20.4477 4.44772 20 5 20H10C10.5523 20 11 20.4477 11 21C11 21.5523 10.5523 22 10 22H5C4.44772 22 4 21.5523 4 21Z"/>
</svg>
