<?xml version="1.0" encoding="UTF-8"?>
<svg width="32px" height="32px" viewBox="0 0 32 32" version="1.1" xmlns="http://www.w3.org/2000/svg" xmlns:xlink="http://www.w3.org/1999/xlink">
    <path d="M6.84239383,0 C9.93114487,0 12.4350723,2.50392746 12.4350723,5.5926785 C12.4350723,8.16950763 10.6923541,10.3393031 8.32122919,10.9877534 C8.9426108,11.1245236 9.54964572,11.3494932 10.1235159,11.6625922 C10.6142454,11.9303304 10.7950156,12.5451899 10.5272774,13.0359194 C10.2595393,13.5266489 9.64467981,13.7074191 9.1539503,13.439681 C7.66082944,12.625046 5.84891623,12.6575433 4.38596773,13.5251962 C2.97526739,14.3618616 2.09039953,15.855677 2.0279197,17.4857574 L2.02437687,17.6674117 L2.02437687,21.6486863 L3.65197588,21.6486863 C4.14738817,21.6486863 4.56497843,22.0060623 4.64889502,22.4854285 L4.66065668,22.5766817 L5.2775505,29.9756231 L9.34047489,29.9756231 C9.86660781,29.9756231 10.2989827,30.377049 10.3480298,30.8903311 L10.3526633,30.9878116 C10.3526633,31.5139445 9.95123743,31.9463194 9.43795539,31.9953665 L9.34047489,32 L4.34701194,32 C3.85159964,32 3.43400939,31.642624 3.35009279,31.1632578 L3.33833113,31.0720045 L2.72076252,23.6730631 L1.01218844,23.6730631 C0.486055507,23.6730631 0.0536806187,23.2716372 0.00463351394,22.7583552 L0,22.6608747 L0,17.6666986 C0.00170196673,15.2515441 1.27601238,13.0160271 3.35330095,11.7840182 C3.98760609,11.4078213 4.66811231,11.1421945 5.36782416,10.9876221 C2.99437502,10.3417196 1.24971532,8.17094259 1.24971532,5.5926785 C1.24971532,2.50392746 3.75364278,0 6.84239383,0 Z M18.7329356,13.1534595 C19.2716019,13.302918 19.5871171,13.8607533 19.4376586,14.3994195 C19.2882001,14.9380858 18.7303647,15.253601 18.1916985,15.1041425 C15.1065836,14.2481455 11.8311409,15.5708105 10.205507,18.3290671 C8.57987312,21.0873237 9.00931844,24.5935388 11.2525815,26.8779283 C13.4958446,29.1623179 16.9936801,29.6553839 19.7810118,28.0801228 C22.5683434,26.5048617 23.9502895,23.2539861 23.1504759,20.1538308 C23.0108271,19.6125384 23.3364235,19.0605266 23.8777158,18.9208778 C24.4190081,18.781229 24.9710199,19.1068254 25.1106687,19.6481177 C26.1393493,23.6353835 24.3619588,27.8164982 20.7770314,29.8425208 C17.1921039,31.8685433 12.6933616,31.2343864 9.80818807,28.296318 C6.92301451,25.3582496 6.37068327,20.84873 8.46149282,17.3011973 C10.5523024,13.7536647 14.765014,12.0525187 18.7329356,13.1534595 Z M16.2894859,16.8698073 C16.8485021,16.8698073 17.3016743,17.3229795 17.3016743,17.8819957 C17.3016743,18.4410119 16.8485021,18.8941841 16.2894859,18.8941841 C14.6124372,18.8941841 13.2529206,20.2537007 13.2529206,21.9307494 C13.2529206,23.6077982 14.6124372,24.9673147 16.2894859,24.9673147 C17.9665346,24.9673147 19.3260512,23.6077982 19.3260512,21.9307494 C19.3260512,21.3717332 19.7792234,20.918561 20.3382396,20.918561 C20.8972559,20.918561 21.3504281,21.3717332 21.3504281,21.9307494 C21.3504281,24.7258306 19.0845671,26.9916916 16.2894859,26.9916916 C13.4944047,26.9916916 11.2285437,24.7258306 11.2285437,21.9307494 C11.2285437,19.1356683 13.4944047,16.8698073 16.2894859,16.8698073 Z M26.9244985,7.51298942 L26.9282607,7.60261942 L26.931,10.95 L30.0444519,10.9505293 C30.8956398,10.9505293 31.353998,11.9281795 30.8473456,12.5795551 L30.7893427,12.6480375 L27.1252206,16.6306616 C26.957514,16.812946 26.7297206,16.9264915 26.4857507,16.9520297 L26.3803298,16.9575303 L22.568,16.957 L17.2473004,22.6236629 C16.8646149,23.0311564 16.2240482,23.0512672 15.8165547,22.6685817 C15.4345296,22.309814 15.3929775,21.724393 15.7045989,21.3168525 L15.771636,21.237836 L21.101,15.562 L20.9234943,11.3099895 C20.9124305,11.0455264 21.0053805,10.7886596 21.1800602,10.5932143 L21.2493527,10.5229066 L25.2306272,6.85878448 C25.8566771,6.28260633 26.855614,6.69097323 26.9244985,7.51298942 Z M24.9059086,9.9079752 L22.965206,11.6941504 L23.1,14.933 L25.9356417,14.9331534 L27.7373371,12.9749062 L25.914,12.974 C25.8401181,12.9749809 25.7613849,12.9655528 25.6859174,12.9476749 L25.5744133,12.9143317 C25.5024996,12.8882005 25.4343867,12.8541498 25.3711289,12.8132339 L25.280744,12.7474371 C25.0771031,12.5813151 24.9393242,12.337492 24.9126575,12.061134 L24.9079335,11.9636578 L24.9059086,9.9079752 Z M6.84239383,2.02437687 C4.87167525,2.02437687 3.27409219,3.62195993 3.27409219,5.5926785 C3.27409219,7.56339708 4.87167525,9.16098014 6.84239383,9.16098014 C8.8131124,9.16098014 10.4106955,7.56339708 10.4106955,5.5926785 C10.4106955,3.62195993 8.8131124,2.02437687 6.84239383,2.02437687 Z"></path>
</svg>