<svg width="32" height="32" viewBox="0 0 32 32" fill="none" xmlns="http://www.w3.org/2000/svg">
<path fill-rule="evenodd" clip-rule="evenodd" d="M30.9972 9.55334C31.0017 9.59188 31.0017 9.63081 30.9972 9.66935L30.9982 9.66735C30.9982 9.93258 30.8929 10.1869 30.7053 10.3745C30.5178 10.562 30.2635 10.6674 29.9983 10.6674L2.99831 10.6694L1.99934 10.6674C1.73414 10.6674 1.47979 10.562 1.29227 10.3745C1.10474 10.1869 0.999821 9.66735 0.999821 9.66735L0.999384 9.66435C1.00164 9.64624 0.999539 9.651 0.997397 9.65966C0.965957 9.54388 1.09138 9.24133 1.09138 9.24133L4.35425 2.29806L4.36225 2.28206C4.62711 1.79377 5.01888 1.38606 5.4962 1.10197C5.97352 0.817875 6.51869 0.66794 7.07415 0.667992H24.8705L24.9275 0.666992C25.4798 0.667551 26.0219 0.816774 26.4968 1.09901C26.9716 1.38124 27.3618 1.78608 27.6263 2.27106L30.9332 9.25833V9.27533C30.937 9.28354 30.9411 9.29175 30.9451 9.29992C30.9593 9.32856 30.9732 9.35666 30.9732 9.38234C30.9832 9.41286 30.9896 9.43591 30.9962 9.46734C30.9982 9.48234 30.9982 9.49734 30.9982 9.51234L30.9972 9.55334ZM24.9265 2.66807L24.8705 2.66907L16.9968 2.67007V8.66931H28.4228L25.8304 3.15009L25.8284 3.14609C25.6324 2.85708 25.3014 2.66807 24.9265 2.66807ZM6.56958 2.79091C6.39795 2.8806 6.25347 3.01464 6.15118 3.17909L3.57028 8.66931H14.9968V2.66907H7.12714C6.93374 2.65915 6.74122 2.70122 6.56958 2.79091Z" fill="#131C26"/>
<path d="M0.999821 9.66735C0.991357 9.69128 0.994417 9.6717 0.997397 9.65966C0.99812 9.66232 0.998927 9.66489 0.999821 9.66735Z" fill="#131C26"/>
<path fill-rule="evenodd" clip-rule="evenodd" d="M1.43654 8.65068L30.6096 8.6717L30.9986 9.50342V13.0004C30.9986 13.5527 30.5509 14.0004 29.9986 14.0004C29.4463 14.0004 28.9985 13.5527 28.9985 13.0004V10.6703L2.99334 10.6514L2.97822 30.6621L14.3671 30.6669C14.9194 30.6672 15.3669 31.1151 15.3667 31.6674C15.3664 32.2197 14.9185 32.6672 14.3662 32.667L2.17707 32.6618C1.51415 32.6615 0.977039 32.1238 0.977539 31.4608L0.986156 9.59017L1.43654 8.65068Z" fill="#131C26"/>
<path fill-rule="evenodd" clip-rule="evenodd" d="M30.5867 18.6304C30.5564 18.0959 30.1104 17.68 29.575 17.6871L26.2428 17.7314C25.9808 17.7349 25.7306 17.8411 25.546 18.0272L18.0263 25.6104C17.6423 25.9976 17.6393 26.621 18.0196 27.0119L21.2358 30.318C21.6291 30.7224 22.2788 30.7216 22.6712 30.3163L30.47 22.2591C30.6642 22.0585 30.7657 21.7858 30.7499 21.507L30.5867 18.6304ZM29.5484 15.6872C31.1546 15.6659 32.4926 16.9134 32.5836 18.5172L32.7468 21.3937C32.7942 22.2301 32.4898 23.0482 31.9071 23.6502L24.1083 31.7073C22.9313 32.9232 20.9821 32.9257 19.8021 31.7127L16.5859 28.4065C15.4453 27.234 15.4542 25.3637 16.6061 24.2021L24.1258 16.6189C24.6794 16.0606 25.4301 15.7419 26.2163 15.7315L29.5484 15.6872Z" fill="#131C26"/>
<path d="M29.5379 19.7541C29.5379 20.3207 29.0786 20.7799 28.512 20.7799C27.9455 20.7799 27.4862 20.3207 27.4862 19.7541C27.4862 19.1875 27.9455 18.7283 28.512 18.7283C29.0786 18.7283 29.5379 19.1875 29.5379 19.7541Z" fill="#131C26"/>
</svg>
