<svg width="32" height="32" viewBox="0 0 32 32" fill="none" xmlns="http://www.w3.org/2000/svg">
<path fill-rule="evenodd" clip-rule="evenodd" d="M31.008 8.88635C31.0124 8.92489 31.0124 8.96381 31.008 9.00235L31.009 9.00036C31.009 9.26558 30.9036 9.51995 30.7161 9.70749C30.5285 9.89504 30.2742 10.0004 30.009 10.0004L3.00905 10.0024L2.01009 10.0004C1.74488 10.0004 1.49054 9.89504 1.30301 9.70749C1.11548 9.51995 1.01056 9.00036 1.01056 9.00036L1.01013 8.99735C1.01238 8.97925 1.01028 8.98401 1.00814 8.99266C0.9767 8.87689 1.10212 8.57434 1.10212 8.57434L4.365 1.63106L4.37299 1.61506C4.63785 1.12678 5.02962 0.719069 5.50694 0.434976C5.98426 0.150883 6.52943 0.000948249 7.08489 0.00100004H24.8812L24.9382 0C25.4906 0.000558654 26.0327 0.149782 26.5075 0.432015C26.9824 0.714248 27.3726 1.11909 27.6371 1.60406L30.944 8.59134V8.60834C30.9477 8.61655 30.9518 8.62476 30.9558 8.63293C30.97 8.66157 30.984 8.68967 30.984 8.71534C30.994 8.74587 31.0003 8.76891 31.007 8.80035C31.009 8.81535 31.009 8.83035 31.009 8.84535L31.008 8.88635ZM24.9372 2.00108L24.8812 2.00208L17.0075 2.00308V8.00232H28.4336L25.8412 2.4831L25.8392 2.4791C25.6432 2.19009 25.3122 2.00108 24.9372 2.00108ZM6.58032 2.12392C6.40869 2.21361 6.26421 2.34765 6.16192 2.5121L3.58103 8.00231H15.0076V2.00208H7.13789C6.94449 1.99215 6.75196 2.03422 6.58032 2.12392Z" fill="#131C26"/>
<path d="M1.01056 9.00036C1.0021 9.02428 1.00516 9.0047 1.00814 8.99266C1.00886 8.99533 1.00967 8.99789 1.01056 9.00036Z" fill="#131C26"/>
<path fill-rule="evenodd" clip-rule="evenodd" d="M1.44728 7.98368L30.6203 8.00471L31.0094 8.83643V12.3334C31.0094 12.8857 30.5616 13.3334 30.0093 13.3334C29.457 13.3334 29.0093 12.8857 29.0093 12.3334V10.0033L3.00408 9.98441L2.98896 29.9951L12.3778 29.9999C12.9301 30.0002 13.3777 30.4481 13.3774 31.0004C13.3772 31.5527 12.9293 32.0002 12.3769 32L2.18781 31.9948C1.5249 31.9945 0.987781 31.4568 0.988282 30.7938L0.996899 8.92317L1.44728 7.98368Z" fill="#131C26"/>
<path fill-rule="evenodd" clip-rule="evenodd" d="M18.9626 18.6216L17.5876 20.9992H20.3948L18.9626 18.6216ZM17.8673 16.5205C18.3437 15.6967 19.5291 15.6862 20.0201 16.5013L22.7929 21.1042C23.2948 21.9373 22.6948 22.9992 21.7222 22.9992H16.2875C15.3249 22.9992 14.7235 21.9568 15.2054 21.1234L17.8673 16.5205Z" fill="#131C26"/>
<path fill-rule="evenodd" clip-rule="evenodd" d="M24.1388 17.6906C24.1388 16.586 25.0342 15.6906 26.1388 15.6906H29.3068C30.4113 15.6906 31.3068 16.586 31.3068 17.6906V20.9631C31.3068 22.0676 30.4113 22.9631 29.3068 22.9631H26.1388C25.0342 22.9631 24.1388 22.0676 24.1388 20.9631V17.6906ZM29.3068 17.6906H26.1388V20.9631H29.3068V17.6906Z" fill="#131C26"/>
<path fill-rule="evenodd" clip-rule="evenodd" d="M26.3455 24.0319C27.1266 23.2509 28.3929 23.2509 29.1739 24.0319L31.414 26.272C32.1951 27.0531 32.1951 28.3194 31.414 29.1004L29.1 31.4144C28.319 32.1955 27.0527 32.1955 26.2716 31.4144L24.0315 29.1743C23.2505 28.3933 23.2505 27.1269 24.0315 26.3459L26.3455 24.0319ZM29.9998 27.6862L27.7597 25.4461L25.4457 27.7601L27.6858 30.0002L29.9998 27.6862Z" fill="#131C26"/>
<path fill-rule="evenodd" clip-rule="evenodd" d="M19.0094 25.8115C17.9534 25.8115 17.0973 26.6676 17.0973 27.7236C17.0973 28.7796 17.9534 29.6357 19.0094 29.6357C20.0654 29.6357 20.9215 28.7796 20.9215 27.7236C20.9215 26.6676 20.0654 25.8115 19.0094 25.8115ZM15.0973 27.7236C15.0973 25.563 16.8488 23.8115 19.0094 23.8115C21.17 23.8115 22.9215 25.563 22.9215 27.7236C22.9215 29.8842 21.17 31.6357 19.0094 31.6357C16.8488 31.6357 15.0973 29.8842 15.0973 27.7236Z" fill="#131C26"/>
</svg>
