<?xml version="1.0" encoding="UTF-8"?>
<svg width="32px" height="32px" viewBox="0 0 32 32" version="1.1" xmlns="http://www.w3.org/2000/svg" xmlns:xlink="http://www.w3.org/1999/xlink">
    <path d="M28.5201476,13.0001935 C30.4152084,13.0374828 31.9342714,14.5528559 31.9990094,16.4070273 L32.0002835,24.3804651 C32.0373517,26.277639 30.5794124,27.8563386 28.6907382,27.9913526 L28.5004744,28 L18.480279,27.9997961 C17.5039861,27.9800754 16.6275815,27.5682275 15.9984344,26.9198903 C15.4076574,27.5276194 14.5990051,27.9264241 13.6907382,27.9913526 L13.5004744,28 L3.48027895,27.9997961 C1.58592645,27.961531 0.0676502865,26.4469192 0.00203600178,24.5929535 L0.000474368605,24.4 L0.000655126811,16.6190127 C-0.035409096,14.7225091 1.42179764,13.1446266 3.31023276,13.0087404 L3.50047437,13 L7,13 L7.00065513,3.61901273 C6.9645909,1.72250906 8.42179764,0.144626615 10.3102328,0.00874036461 L10.5004744,0 L20.5201476,0.000193537381 C22.4152084,0.0374827838 23.9342714,1.55285589 23.9990094,3.40702732 L24,13 L28.5201476,13.0001935 Z M5,14.999 L3.52066979,14.9997961 C2.71198508,15.0161311 2.06015384,15.6482191 2.00409355,16.4557609 L2.00047437,16.6 L2.00029361,24.4190127 C1.98491517,25.2277162 2.59096513,25.9038246 3.36266522,25.9908505 L3.50047437,26 L13.4808011,26.0001935 C14.2893967,25.9842827 14.9412475,25.3521928 14.9969267,24.5443039 L15.0004744,24.4 L15.0000073,15 L12,15 L12.0004744,21 C12.0004744,21.5128358 11.6144342,21.9355072 11.1170955,21.9932723 L11.0004744,22 L6.00047437,22 C5.48763853,22 5.06496721,21.6139598 5.0072021,21.1166211 L5.00047437,21 L5,14.999 Z M28.5004744,15 L27,15 L27.0004744,21 C27.0004744,21.5128358 26.6144342,21.9355072 26.1170955,21.9932723 L26.0004744,22 L21.0004744,22 C20.4481896,22 20.0004744,21.5522847 20.0004744,21 L20.0004744,21 L20,15 L17.0000037,15 L17.0002936,24.4190127 C16.9849152,25.2277162 17.5909651,25.9038246 18.3626652,25.9908505 L18.5004744,26 L28.4808011,26.0001935 C29.2893967,25.9842827 29.9412475,25.3521928 29.9969267,24.5443039 L30.0004744,24.4 L30.0006652,16.5804651 C30.0164641,15.7718674 29.410413,15.0957393 28.6383511,15.0090806 L28.5004744,15 Z M10.0000037,15 L7.00000366,15 L7.00000366,20 L10.0000037,20 L10.0000037,15 Z M25.0000037,15 L22.0000037,15 L22.0000037,20 L25.0000037,20 L25.0000037,15 Z M12,1.999 L10.5206698,1.99979605 C9.71198508,2.01613111 9.06015384,2.6482191 9.00409355,3.45576092 L9.00047437,3.6 L9,13 L22,13 L22.0006652,3.58046511 C22.0164641,2.77186736 21.410413,2.09573929 20.6383511,2.00908063 L20.5004744,2 L19,2 L19.0004744,8 C19.0004744,8.51283584 18.6144342,8.93550716 18.1170955,8.99327227 L18.0004744,9 L13.0004744,9 C12.4481896,9 12.0004744,8.55228475 12.0004744,8 L12.0004744,8 L12,1.999 Z M17.0000037,2 L14.0000037,2 L14.0000037,7 L17.0000037,7 L17.0000037,2 Z"></path>
</svg>