<svg xmlns="http://www.w3.org/2000/svg" width="32" height="32"><path d="M16,23.9959846 C20.3433575,23.9959846 24.3113146,26.4580043 26.24,30.3496526 C26.5202792,30.9151922 26.28903,31.6008637 25.7234904,31.8811429 C25.1579508,32.1614221 24.4722792,31.9301729 24.192,31.3646333 C22.6490517,28.2513146 19.474686,26.2816989 16,26.2816989 C12.525314,26.2816989 9.35094834,28.2513146 7.80799997,31.3646333 C7.52772079,31.9301729 6.8420492,32.1614221 6.27650962,31.8811429 C5.71097003,31.6008637 5.47972078,30.9151922 5.75999996,30.3496526 C7.68868543,26.4580043 11.6566425,23.9959846 16,23.9959846 Z M26.4248447,4.05554681 C32.3233341,9.46190271 33.1100259,18.4803665 28.2367086,24.8263605 C27.8522772,25.326964 27.1348145,25.4211401 26.634211,25.0367086 C26.1336075,24.6522771 26.0394314,23.9348145 26.4238629,23.434211 C30.5752072,18.0283643 29.9050624,10.3459692 24.8804233,5.74055489 C19.8557842,1.13514061 12.1442158,1.13514061 7.1195767,5.74055489 C2.09493764,10.3459692 1.42479278,18.0283643 5.5761371,23.434211 C5.96056857,23.9348145 5.86639251,24.6522771 5.36578899,25.0367086 C4.86518547,25.4211401 4.14772285,25.326964 3.76329138,24.8263605 C-1.11002587,18.4803665 -0.32333407,9.46190271 5.57515525,4.05554681 C11.4736446,-1.35080909 20.5263554,-1.35080909 26.4248447,4.05554681 Z M16,9.14285711 C19.4715042,9.14285711 22.2857143,11.9570673 22.2857143,15.4285714 C22.2857143,18.9000756 19.4715042,21.7142857 16,21.7142857 C12.5284958,21.7142857 9.71428569,18.9000756 9.71428569,15.4285714 C9.71428569,11.9570673 12.5284958,9.14285711 16,9.14285711 Z M16,11.4285714 C13.790861,11.4285714 12,13.2194324 12,15.4285714 C12,17.6377104 13.790861,19.4285714 16,19.4285714 C18.209139,19.4285714 20,17.6377104 20,15.4285714 C20,13.2194324 18.209139,11.4285714 16,11.4285714 Z"/></svg>