<svg xmlns="http://www.w3.org/2000/svg" width="33" height="32"><path d="M28.237 25.55C26.9267 26.9535 25.342 28.0727 23.5812 28.8382C21.8204 29.6037 19.921 29.9991 18.001 30H18C17.7348 30 17.4804 29.8946 17.2929 29.7071C17.1054 29.5196 17 29.2652 17 29C17 28.7348 17.1054 28.4804 17.2929 28.2929C17.4804 28.1054 17.7348 28 18 28C19.6441 27.9997 21.2707 27.6616 22.7788 27.0068C24.2869 26.3519 25.6443 25.3942 26.767 24.193L26.773 24.186C28.8469 21.9671 29.9985 19.0421 29.994 16.005C29.994 9.378 24.621 4.005 17.994 4.005C14.9537 4.00065 12.0259 5.15455 9.806 7.232L9.813 7.226C7.78387 9.12454 6.47412 11.6667 6.106 14.421L6.099 14.483L8.292 12.293C8.48145 12.1153 8.73259 12.0184 8.99227 12.0226C9.25196 12.0268 9.49981 12.1319 9.68339 12.3156C9.86698 12.4993 9.97188 12.7472 9.97592 13.0069C9.97995 13.2666 9.88279 13.5177 9.705 13.707L9.706 13.706L5.866 17.546C5.7786 17.698 5.65276 17.8244 5.50111 17.9124C5.34945 18.0005 5.1773 18.0471 5.00195 18.0476C4.82659 18.0481 4.65418 18.0025 4.50201 17.9153C4.34985 17.8282 4.22328 17.7025 4.135 17.551L4.132 17.546L0.292004 13.706C0.114348 13.5166 0.017369 13.2654 0.0215858 13.0057C0.0258026 12.746 0.130885 12.4982 0.314597 12.3146C0.49831 12.131 0.74624 12.0261 1.00593 12.0221C1.26561 12.0181 1.51668 12.1152 1.706 12.293L1.705 12.292L4.065 14.665C4.39317 11.2661 5.94893 8.10342 8.441 5.769L8.449 5.762C9.85671 4.43425 11.5273 3.41652 13.3527 2.77455C15.1782 2.13258 17.1181 1.88064 19.047 2.035L19 2.032C25.94 2.556 31.443 8.058 31.964 14.952L31.967 14.999C32.114 16.9219 31.8576 18.8542 31.2143 20.6722C30.5709 22.4902 29.5548 24.1537 28.231 25.556L28.238 25.549L28.237 25.55ZM24.667 17C24.667 16.7348 24.5616 16.4804 24.3741 16.2929C24.1866 16.1054 23.9322 16 23.667 16H18V8.333C18 8.06779 17.8946 7.81343 17.7071 7.6259C17.5196 7.43836 17.2652 7.333 17 7.333C16.7348 7.333 16.4804 7.43836 16.2929 7.6259C16.1054 7.81343 16 8.06779 16 8.333V17C16 17.2652 16.1054 17.5196 16.2929 17.7071C16.4804 17.8946 16.7348 18 17 18H23.667C23.9322 18 24.1866 17.8946 24.3741 17.7071C24.5616 17.5196 24.667 17.2652 24.667 17Z"/></svg>
