<svg xmlns="http://www.w3.org/2000/svg" width="32" height="32"><path d="M16,0 C24.836556,0 32,7.163444 32,16 C32,24.836556 24.836556,32 16,32 C7.163444,32 0,24.836556 0,16 C0,7.163444 7.163444,0 16,0 Z M16,2 C8.2680135,2 2,8.2680135 2,16 C2,23.7319865 8.2680135,30 16,30 C23.7319865,30 30,23.7319865 30,16 C30,8.2680135 23.7319865,2 16,2 Z M13.7071068,16.2928932 C14.0850335,16.67082 14.0972247,17.2759856 13.7436803,17.6685729 L13.7071068,17.7071068 L11.414,20 L20,20 C20.5522847,20 21,20.4477153 21,21 C21,21.5360411 20.5782336,21.9735734 20.0484509,21.9988468 L20,22 L11.414,22 L13.7071068,24.2928932 C14.0850335,24.67082 14.0972247,25.2759856 13.7436803,25.6685729 L13.7071068,25.7071068 C13.32918,26.0850335 12.7240144,26.0972247 12.3314271,25.7436803 L12.2928932,25.7071068 L8.29289322,21.7071068 L8.26327851,21.6762047 C8.24652975,21.6579667 8.23044944,21.639105 8.21507639,21.6196584 L8.29289322,21.7071068 C8.25432927,21.6685428 8.21957347,21.6276128 8.18862584,21.584784 C8.17433886,21.564889 8.16040505,21.5440105 8.14725507,21.5225989 C8.13917518,21.5095924 8.13171304,21.4967884 8.12455907,21.4838596 C8.11484486,21.466189 8.10535846,21.4477574 8.09643868,21.4290041 C8.08710746,21.4094274 8.07857571,21.3898247 8.07070166,21.3700213 C8.06497786,21.3556889 8.0595801,21.3411712 8.05451426,21.3264988 C8.04770525,21.3066172 8.04140564,21.2862434 8.03577156,21.2657252 C8.03054011,21.2470049 8.0258963,21.2279476 8.02180705,21.2086855 C8.01902284,21.1951327 8.01648458,21.1818382 8.01421747,21.1685067 C8.01005994,21.1445559 8.00678577,21.119804 8.0044334,21.0947841 C8.00258779,21.0748596 8.00129492,21.0548323 8.00060152,21.034788 C8.00019624,21.0230794 8,21.0115626 8,21 L8.000053,20.9896723 C8.00029655,20.9659428 8.00137954,20.9422203 8.00330197,20.9185531 L8,21 C8,20.9567935 8.00274014,20.9142271 8.00805613,20.8724649 C8.01045465,20.8541593 8.01332928,20.8357367 8.01671949,20.8173906 C8.02033751,20.7973729 8.02452694,20.7780061 8.02926817,20.7588569 C8.03498737,20.7360565 8.041567,20.7129959 8.04899023,20.6901497 C8.05210727,20.6804062 8.05528576,20.6711282 8.05859571,20.6619129 C8.06561566,20.6424074 8.07339221,20.6226787 8.0818198,20.6031638 C8.09141311,20.5810325 8.10173626,20.5593805 8.1127974,20.5381746 C8.11758534,20.5288528 8.12247694,20.5198115 8.12751799,20.5108314 C8.13997104,20.4888135 8.1532937,20.4670881 8.16740134,20.4459308 C8.17484722,20.4346078 8.18271221,20.4233232 8.1908366,20.4121687 C8.20561588,20.3919934 8.22097511,20.3724637 8.23702584,20.3535389 C8.24314068,20.3462806 8.24966539,20.3388162 8.25631966,20.3314271 L8.29289322,20.2928932 L12.2928932,16.2928932 C12.6834175,15.9023689 13.3165825,15.9023689 13.7071068,16.2928932 Z M19.6685729,6.25631966 L19.7071068,6.29289322 L23.7071068,10.2928932 C23.7347017,10.3204881 23.7606913,10.3496883 23.7849236,10.3803416 L23.7071068,10.2928932 C23.7379579,10.3237444 23.7663719,10.3561098 23.7923486,10.3897503 C23.8129174,10.416469 23.8326833,10.4449728 23.8509554,10.4744984 C23.8596121,10.488331 23.8677066,10.5021627 23.8754409,10.5161404 C23.8851551,10.533811 23.8946415,10.5522426 23.9035613,10.5709959 C23.9128925,10.5905726 23.9214243,10.6101753 23.9292983,10.6299787 C23.9348947,10.6439913 23.9401792,10.6581819 23.9451466,10.6725207 C23.9520842,10.6927025 23.9585003,10.713414 23.9642284,10.7342748 C23.9694599,10.7529951 23.9741037,10.7720524 23.978193,10.7913145 C23.9809772,10.8048673 23.9835154,10.8181618 23.9857825,10.8314933 C23.9900392,10.8560263 23.9933697,10.8813749 23.9957331,10.9070036 C23.9968803,10.9198141 23.997813,10.932489 23.9985053,10.9451745 C23.9994952,10.9630292 24,10.9814556 24,11 L23.9997734,11.0213562 C23.9994258,11.0377306 23.9986783,11.0540981 23.9975311,11.0704428 L24,11 C24,11.0432065 23.9972599,11.0857729 23.9919439,11.1275351 C23.9900632,11.1417851 23.9879079,11.1561728 23.9854386,11.170517 C23.9814725,11.1940026 23.9767303,11.2167046 23.971233,11.2391099 C23.9653883,11.2626242 23.9586453,11.2863507 23.9510098,11.3098503 C23.9481157,11.31891 23.945179,11.3275127 23.9421293,11.3360618 C23.9348992,11.3562843 23.9268872,11.3766744 23.9181802,11.3968362 C23.9091954,11.4175617 23.899576,11.4378588 23.8893078,11.4577667 C23.8838297,11.4685247 23.8782538,11.4788868 23.872482,11.4891686 C23.860029,11.5111865 23.8467063,11.5329119 23.8325987,11.5540692 C23.8251528,11.5653922 23.8172878,11.5766768 23.8091634,11.5878313 C23.7943841,11.6080066 23.7790249,11.6275363 23.7629742,11.6464611 C23.7568593,11.6537194 23.7503346,11.6611838 23.7436803,11.6685729 L23.7071068,11.7071068 L19.7071068,15.7071068 C19.3165825,16.0976311 18.6834175,16.0976311 18.2928932,15.7071068 C17.9149665,15.32918 17.9027753,14.7240144 18.2563197,14.3314271 L18.2928932,14.2928932 L20.585,12 L12,12 C11.4477153,12 11,11.5522847 11,11 C11,10.4639589 11.4217664,10.0264266 11.9515491,10.0011532 L12,10 L20.585,10 L18.2928932,7.70710678 C17.9149665,7.32918005 17.9027753,6.72401438 18.2563197,6.33142707 L18.2928932,6.29289322 C18.67082,5.91496648 19.2759856,5.9027753 19.6685729,6.25631966 Z"/></svg>