<?xml version="1.0" encoding="UTF-8"?>
<svg width="32px" height="24px" viewBox="0 0 32 24" version="1.1" xmlns="http://www.w3.org/2000/svg" xmlns:xlink="http://www.w3.org/1999/xlink">
    <path d="M24.6498412,4.7739226 L24.8081221,4.90616363 L31.665265,11.7633065 L31.6893146,11.7880895 C31.7027239,11.8023294 31.7157719,11.8169136 31.7284438,11.8318272 L31.665265,11.7633065 C31.704282,11.8023236 31.7398882,11.8434599 31.7720834,11.886345 C31.7813372,11.8988065 31.7905964,11.9116927 31.7995902,11.9247754 C31.8153703,11.9475684 31.829916,11.970464 31.8435681,11.9937391 C31.883988,12.0627621 31.9175438,12.1366082 31.9430328,12.2141156 C31.947355,12.2274631 31.9516506,12.2414321 31.9556725,12.2554629 C31.9633927,12.2820612 31.9700484,12.3088857 31.9757384,12.3360652 C31.9785459,12.349954 31.981203,12.3639329 31.9835978,12.3779479 C31.9943927,12.4405898 31.9999999,12.5053543 31.9999999,12.5714286 L31.9997991,12.5929263 C31.9994377,12.6122557 31.9985889,12.6315777 31.9972525,12.6508723 L31.9999999,12.5714286 C31.9999999,12.619459 31.997037,12.6667974 31.991284,12.713271 C31.9888397,12.7324711 31.9858636,12.7522607 31.9823675,12.7719761 C31.9777258,12.7986772 31.9721643,12.8246532 31.9657371,12.8502857 C31.9621549,12.8641775 31.9584329,12.8779334 31.9544496,12.8916293 C31.9475231,12.9156994 31.9397707,12.9393547 31.9312817,12.9626561 C31.9248328,12.9802935 31.9179112,12.9979597 31.9105332,13.0154793 C31.9008154,13.038489 31.8903725,13.0611131 31.8792269,13.0833238 C31.8709351,13.1000185 31.8620279,13.1167515 31.8526754,13.133301 C31.8405637,13.1545117 31.8281369,13.1749321 31.8151015,13.1949194 C31.8095487,13.2036212 31.803596,13.2124787 31.797506,13.2212697 L31.788653,13.2337111 C31.7543274,13.2819037 31.7163553,13.3273191 31.6751395,13.3695546 L31.665265,13.3795506 L24.8081221,20.2366935 C24.3618086,20.683007 23.6381915,20.683007 23.191878,20.2366935 C22.7951549,19.8399704 22.7510746,19.2241432 23.059637,18.7787303 L23.191878,18.6204494 L28.0989999,13.7134285 L10.2857143,13.7142857 C6.01471218,13.7142857 2.5254252,17.0612059 2.29755163,21.2753481 L2.28571423,21.7142857 L2.28571423,26.2857143 C2.28571423,26.9168969 1.77403965,27.4285714 1.14285708,27.4285714 C0.581805904,27.4285714 0.115180802,27.0242854 0.0184128921,26.4911443 L-6.66666532e-08,26.2857143 L-6.66666532e-08,21.7142857 C-6.66666532e-08,16.1959467 4.34568342,11.6925964 9.80151837,11.4397668 L10.2857143,11.4285714 L28.0979999,11.4284285 L23.191878,6.52240771 C22.7951549,6.12568462 22.7510746,5.50985741 23.059637,5.06444452 L23.191878,4.90616363 C23.5886011,4.50944054 24.2044283,4.4653602 24.6498412,4.7739226 Z"/>
</svg>