<?xml version="1.0" encoding="UTF-8"?>
<svg width="32px" height="24px" viewBox="0 0 32 24" version="1.1" xmlns="http://www.w3.org/2000/svg" xmlns:xlink="http://www.w3.org/1999/xlink">
    <path d="M22.4191 6.27543C22.0189 6.65606 22.0031 7.28902 22.3837 7.6892L25.6687 11.1429H10.879C8.33738 11.1429 6.34719 12.0412 4.99517 13.4626C3.65574 14.8708 3 16.7321 3 18.5714C3 20.4108 3.65574 22.2721 4.99517 23.6803C6.34719 25.1017 8.33738 26 10.879 26C11.4313 26 11.879 25.5523 11.879 25C11.879 24.4477 11.4313 24 10.879 24C8.83459 24 7.3853 23.2912 6.44432 22.3019C5.49076 21.2994 5 19.9464 5 18.5714C5 17.1965 5.49076 15.8435 6.44432 14.841C7.3853 13.8517 8.83459 13.1429 10.879 13.1429H25.6687L22.3837 16.5965C22.0031 16.9967 22.0189 17.6297 22.4191 18.0103C22.8193 18.3909 23.4522 18.3751 23.8329 17.9749L28.7246 12.8321C29.0918 12.446 29.0918 11.8397 28.7246 11.4537L23.8329 6.31081C23.4522 5.91064 22.8193 5.89479 22.4191 6.27543Z" />
</svg>