<svg xmlns="http://www.w3.org/2000/svg" width="32" height="32"><path d="M27.114232,0.191440795 C28.4478944,-0.254167673 29.9188613,0.0925282106 30.9131505,1.08681743 C31.9074397,2.08110664 32.2541356,3.55207354 31.8088853,4.88466213 L31.8088853,4.88466213 L23.6232316,29.464481 C23.2160652,30.6846754 22.206223,31.607108 20.9542498,31.9024418 C19.7022767,32.1977756 18.3866445,31.8239101 17.4776372,30.9148885 L17.4776372,30.9148885 L13.0804737,26.5243388 L8.47374512,28.9213008 C7.76037429,29.2921561 6.92141721,28.830076 6.81494865,28.0719656 L6.81494865,28.0719656 L6.80408826,27.8765814 L7.00254111,20.4464062 L1.08336083,14.5206062 C0.260893534,13.6934901 -0.120259318,12.5335664 0.0389029823,11.3913415 L0.0389029823,11.3913415 L0.102960128,11.0495554 C0.397996999,9.80085725 1.31695754,8.79305327 2.5332065,8.38435728 L2.5332065,8.38435728 Z M29.7009755,3.51826367 L9.28741638,20.5331274 L9.13976074,25.9986056 L12.7704543,24.1113762 C13.1494093,23.9143714 13.6003287,23.9472713 13.9434652,24.1824227 L13.9434652,24.1824227 L14.1052193,24.3167246 L19.0933893,29.2980368 C19.4428791,29.6475319 19.9483929,29.7911846 20.4294466,29.6777066 C20.9105003,29.5642286 21.2985186,29.2097964 21.4547499,28.7416035 L21.4547499,28.7416035 L29.640545,4.16136119 C29.7110162,3.95044765 29.7298649,3.73058803 29.7009755,3.51826367 Z M27.3064164,2.53612737 L3.25863669,10.5519846 C2.79396791,10.7081308 2.44086977,11.0953659 2.32750585,11.5751612 C2.21414193,12.0549566 2.35658743,12.5592765 2.70237914,12.9070269 L2.70237914,12.9070269 L8.22841638,18.4391274 L27.3064164,2.53612737 Z"/></svg>