<svg xmlns="http://www.w3.org/2000/svg" width="32" height="32">
    <title>sites</title>
    <g id="sites" stroke="none" stroke-width="1" fill="none" fill-rule="evenodd">
        <g id="+icon/+Streamline/light/catergories-phone" transform="translate(1.000000, 1.500000)" fill="#131C26">
            <path d="M16.0714286,15 C17.8466296,15 19.2857143,16.4390847 19.2857143,18.2142857 L19.2857143,18.2142857 L19.2857143,26.7857143 C19.2857143,28.5609153 17.8466296,30 16.0714286,30 L16.0714286,30 L3.21428567,30 C1.43908468,30 -6.24999745e-08,28.5609153 -6.24999745e-08,26.7857143 L-6.24999745e-08,26.7857143 L-6.24999745e-08,18.2142857 C-6.24999745e-08,16.4390847 1.43908468,15 3.21428567,15 L3.21428567,15 Z M2.14199994,22.3789999 L2.14285709,26.7857143 C2.14285709,27.377448 2.622552,27.8571429 3.21428567,27.8571429 L3.21428567,27.8571429 L16.0714286,27.8571429 C16.6631622,27.8571429 17.1428571,27.377448 17.1428571,26.7857143 L17.1428571,26.7857143 L17.1419999,22.4909999 L2.14199994,22.3789999 Z M26.7857143,-6.25003791e-08 C28.4564917,-6.25003791e-08 29.8295329,1.27476012 29.985286,2.9047285 L30.0000001,3.21428567 L30.0000001,20.3571429 C30.0000001,22.0279203 28.7252399,23.4009615 27.0952715,23.5567145 L26.7857143,23.5714286 L23.5714286,23.5714286 C22.9796949,23.5714286 22.5,23.0917337 22.5,22.4999999 C22.5,21.9740146 22.8790182,21.5365535 23.378838,21.4458336 L23.5714286,21.4285715 L26.7857143,21.4285715 C27.3116998,21.4285715 27.7491608,21.0495533 27.8398808,20.5497335 L27.8571428,20.3571429 L27.8569999,8.57099994 L7.49999994,8.57099994 L7.49999997,10.7142857 C7.49999997,11.3060194 7.02030506,11.7857143 6.42857139,11.7857143 C5.90258591,11.7857143 5.46512488,11.4066961 5.37440497,10.9068763 L5.35714282,10.7142857 L5.35714282,3.21428567 C5.35714282,1.54350826 6.631903,0.170467056 8.26187138,0.0147140334 L8.57142854,-6.25003791e-08 L26.7857143,-6.25003791e-08 Z M16.0714286,17.1428572 L3.21428567,17.1428572 C2.622552,17.1428572 2.14285709,17.6225521 2.14285709,18.2142857 L2.14285709,18.2142857 L2.14199994,20.2359999 L17.1419999,20.3489999 L17.1428571,18.2142857 C17.1428571,17.662001 16.7249896,17.2073144 16.1881725,17.1491441 L16.0714286,17.1428572 Z M26.7857143,2.14285709 L8.57142854,2.14285709 C8.04544307,2.14285709 7.60798203,2.52187529 7.51726212,3.02169502 L7.49999997,3.21428567 L7.49999994,6.42799994 L27.8569999,6.42799994 L27.8571428,3.21428567 C27.8571428,2.68830019 27.4781247,2.25083915 26.978305,2.16011924 L26.7857143,2.14285709 Z" id="Combined-Shape"></path>
        </g>
    </g>
</svg>