<svg xmlns="http://www.w3.org/2000/svg" width="32" height="32"><path d="M3.39241 1.04727L2.40158 2.07231C-0.316428 4.87471 -0.781681 9.25295 1.28419 12.5985C5.95322 19.7324 11.8835 25.8538 18.77 30.6565C22.0331 32.8091 26.276 32.3333 28.9952 29.5284L29.9851 28.5065C31.3382 27.1088 31.3382 24.8442 29.9854 23.4468L25.805 19.1317C24.5652 17.8529 22.6015 17.7338 21.2288 18.8349L20.9532 19.0829C20.4133 19.6364 19.6193 19.6364 19.1292 19.1312L12.466 12.2441C12.018 11.7811 11.9763 11.0468 12.3608 10.5358L12.5129 10.3611C13.8186 9.01553 13.8186 6.75093 12.4658 5.3535L8.29424 1.04757C6.94014 -0.349139 4.74623 -0.349139 3.39241 1.04727ZM6.72896 2.66386L10.8999 6.9692C11.3886 7.47398 11.3886 8.29247 10.8996 8.79755L10.6562 9.07904C9.54549 10.5516 9.66083 12.5789 10.8994 13.8591L17.5636 20.7472C18.9192 22.1446 21.1135 22.1446 22.468 20.7482L22.6405 20.594C23.0815 20.243 23.792 20.2861 24.2398 20.748L28.4196 25.0625C28.9082 25.5672 28.9082 26.3857 28.4193 26.8908L27.4299 27.9121C25.4459 29.9586 22.3497 30.3059 19.9858 28.7468C13.3576 24.1237 7.62929 18.2108 3.13498 11.3446C1.64369 8.92879 1.9832 5.73386 3.96757 3.68787L4.95856 2.66266C5.44671 2.15916 6.23966 2.15916 6.72896 2.66386Z"/></svg>