<svg width="32" height="32" xmlns="http://www.w3.org/2000/svg">
    <path d="M13.932 13.2505C13.922 13.2835 13.902 13.3175 13.902 13.3505L13.901 13.3596L13.9 13.3635C13.8857 13.3961 13.8683 13.4273 13.848 13.4566C13.834 13.4826 13.811 13.5065 13.811 13.5295L13.809 13.5335C13.736 13.6415 13.643 13.7346 13.531 13.8096L13.461 13.8465L13.464 13.8446C13.4312 13.8657 13.3968 13.8841 13.361 13.8996C13.328 13.9296 13.294 13.9296 13.261 13.9296L13.174 13.9566L13.18 13.9556C13.115 13.9696 13.047 13.9766 12.977 13.9766H3.64401C3.37879 13.9766 3.12444 13.8712 2.9369 13.6837C2.74937 13.4961 2.64401 13.2418 2.64401 12.9766C2.64401 12.7113 2.74937 12.457 2.9369 12.2694C3.12444 12.0819 3.37879 11.9766 3.64401 11.9766H10.564L0.272009 1.68455C0.0942203 1.49522 -0.00293579 1.24416 0.00109728 0.984471C0.00513036 0.724786 0.110037 0.476855 0.29362 0.293143C0.477202 0.10943 0.725057 0.00434876 0.98474 0.000131972C1.24442 -0.00408482 1.49556 0.092893 1.68501 0.270548L11.978 10.5636V3.64355C11.978 3.37833 12.0834 3.12398 12.2709 2.93644C12.4584 2.74891 12.7128 2.64355 12.978 2.64355C13.2432 2.64355 13.4976 2.74891 13.6851 2.93644C13.8727 3.12398 13.978 3.37833 13.978 3.64355V12.9775C13.9773 13.04 13.9706 13.1023 13.958 13.1636L13.957 13.1695C13.9507 13.1971 13.9424 13.2242 13.932 13.2505Z" />
    <path d="M18.7504 13.931C18.7174 13.921 18.6834 13.901 18.6504 13.901L18.6414 13.9L18.6374 13.899C18.6048 13.8847 18.5737 13.8673 18.5444 13.847C18.5184 13.833 18.4944 13.81 18.4714 13.81L18.4674 13.808C18.3594 13.735 18.2664 13.642 18.1914 13.53L18.1544 13.46L18.1564 13.463C18.1353 13.4303 18.1169 13.3958 18.1014 13.36C18.0714 13.327 18.0714 13.293 18.0714 13.26L18.0444 13.173L18.0454 13.179C18.0314 13.114 18.0244 13.046 18.0244 12.976L18.0244 3.64303C18.0244 3.37782 18.1298 3.12346 18.3173 2.93593C18.5049 2.74839 18.7592 2.64303 19.0244 2.64303C19.2896 2.64303 19.544 2.74839 19.7315 2.93593C19.9191 3.12346 20.0244 3.37782 20.0244 3.64303L20.0244 10.563L30.3164 0.271033C30.5058 0.0932437 30.7568 -0.00391241 31.0165 0.000120679C31.2762 0.00415377 31.5241 0.109061 31.7078 0.292643C31.8915 0.476226 31.9966 0.724081 32.0008 0.983763C32.0051 1.24345 31.9081 1.49458 31.7304 1.68403L21.4374 11.977L28.3574 11.977C28.6226 11.977 28.877 12.0824 29.0645 12.2699C29.2521 12.4575 29.3574 12.7118 29.3574 12.977C29.3574 13.2423 29.2521 13.4966 29.0645 13.6841C28.877 13.8717 28.6226 13.977 28.3574 13.977L19.0234 13.977C18.9609 13.9764 18.8986 13.9697 18.8374 13.957L18.8314 13.956C18.8038 13.9498 18.7768 13.9414 18.7504 13.931Z" />
    <path d="M18.0699 18.7494C18.0799 18.7164 18.0999 18.6825 18.0999 18.6495L18.1009 18.6404L18.1019 18.6365C18.1163 18.6039 18.1337 18.5727 18.1539 18.5434C18.1679 18.5174 18.1909 18.4934 18.1909 18.4705L18.1929 18.4664C18.2659 18.3584 18.3589 18.2654 18.4709 18.1904L18.5409 18.1534L18.5379 18.1554C18.5707 18.1343 18.6052 18.1159 18.6409 18.1004C18.6739 18.0704 18.7079 18.0704 18.7409 18.0704L18.8279 18.0434L18.8219 18.0444C18.8869 18.0304 18.9549 18.0234 19.0249 18.0234L28.3579 18.0234C28.6232 18.0234 28.8775 18.1288 29.0651 18.3163C29.2526 18.5039 29.3579 18.7582 29.3579 19.0234C29.3579 19.2887 29.2526 19.543 29.0651 19.7306C28.8775 19.9181 28.6232 20.0234 28.3579 20.0234L21.4379 20.0234L31.7299 30.3155C31.9077 30.5048 32.0049 30.7558 32.0009 31.0155C31.9968 31.2752 31.8919 31.5231 31.7083 31.7069C31.5248 31.8906 31.2769 31.9957 31.0172 31.9999C30.7575 32.0041 30.5064 31.9071 30.3169 31.7295L20.0239 21.4364L20.0239 28.3564C20.0239 28.6217 19.9186 28.876 19.731 29.0636C19.5435 29.2511 19.2892 29.3564 19.0239 29.3564C18.7587 29.3564 18.5044 29.2511 18.3168 29.0636C18.1293 28.876 18.0239 28.6217 18.0239 28.3564L18.0239 19.0224C18.0246 18.96 18.0313 18.8977 18.0439 18.8364L18.0449 18.8305C18.0512 18.8029 18.0596 18.7758 18.0699 18.7494Z" />
    <path d="M13.2515 18.069C13.2845 18.079 13.3185 18.099 13.3515 18.099L13.3605 18.1L13.3645 18.101C13.3971 18.1153 13.4283 18.1327 13.4575 18.153C13.4835 18.167 13.5075 18.19 13.5305 18.19L13.5345 18.192C13.6425 18.265 13.7355 18.358 13.8105 18.47L13.8475 18.54L13.8455 18.537C13.8667 18.5697 13.8851 18.6042 13.9005 18.64C13.9305 18.673 13.9305 18.707 13.9305 18.74L13.9575 18.827L13.9565 18.821C13.9705 18.886 13.9775 18.954 13.9775 19.024L13.9775 28.357C13.9775 28.6222 13.8722 28.8765 13.6846 29.0641C13.4971 29.2516 13.2427 29.357 12.9775 29.357C12.7123 29.357 12.458 29.2516 12.2704 29.0641C12.0829 28.8765 11.9775 28.6222 11.9775 28.357L11.9775 21.437L1.68553 31.729C1.4962 31.9068 1.24513 32.0039 0.985448 31.9999C0.725762 31.9958 0.477832 31.8909 0.294119 31.7074C0.110407 31.5238 0.00532542 31.2759 0.00110866 31.0162C-0.00310809 30.7566 0.0938698 30.5054 0.271525 30.316L10.5645 20.023L3.64453 20.023C3.37931 20.023 3.12496 19.9176 2.93742 19.7301C2.74988 19.5425 2.64453 19.2882 2.64453 19.023C2.64453 18.7578 2.74988 18.5034 2.93742 18.3159C3.12496 18.1283 3.37931 18.023 3.64453 18.023L12.9785 18.023C13.041 18.0236 13.1033 18.0303 13.1645 18.043L13.1705 18.044C13.1981 18.0502 13.2252 18.0586 13.2515 18.069Z" />
</svg>

