<svg width="32" height="32" viewBox="0 0 32 32" xmlns="http://www.w3.org/2000/svg">
    <path d="M18.7495 13.931C18.7165 13.921 18.6825 13.901 18.6495 13.901L18.6404 13.9L18.6365 13.899C18.6039 13.8847 18.5727 13.8673 18.5434 13.847C18.5174 13.833 18.4935 13.81 18.4705 13.81L18.4664 13.808C18.3584 13.735 18.2654 13.642 18.1904 13.53L18.1535 13.46L18.1554 13.463C18.1343 13.4303 18.1159 13.3958 18.1004 13.36C18.0704 13.327 18.0704 13.293 18.0704 13.26L18.0434 13.173L18.0444 13.179C18.0304 13.114 18.0234 13.046 18.0234 12.976V3.64303C18.0234 3.37782 18.1288 3.12346 18.3163 2.93593C18.5039 2.74839 18.7582 2.64303 19.0234 2.64303C19.2887 2.64303 19.543 2.74839 19.7306 2.93593C19.9181 3.12346 20.0234 3.37782 20.0234 3.64303V10.563L30.3155 0.271033C30.5048 0.0932437 30.7558 -0.00391236 31.0155 0.000120723C31.2752 0.00415381 31.5231 0.109061 31.7069 0.292643C31.8906 0.476226 31.9957 0.724081 31.9999 0.983764C32.0041 1.24345 31.9071 1.49458 31.7295 1.68403L21.4364 11.977H28.3564C28.6217 11.977 28.876 12.0824 29.0636 12.2699C29.2511 12.4575 29.3564 12.7118 29.3564 12.977C29.3564 13.2423 29.2511 13.4966 29.0636 13.6841C28.876 13.8717 28.6217 13.977 28.3564 13.977L19.0224 13.977C18.96 13.9764 18.8977 13.9697 18.8364 13.957L18.8305 13.956C18.8029 13.9498 18.7758 13.9414 18.7495 13.931Z" />
    <path d="M13.2506 18.069C13.2836 18.079 13.3175 18.099 13.3505 18.099L13.3596 18.1L13.3636 18.101C13.3961 18.1153 13.4273 18.1327 13.4566 18.153C13.4826 18.167 13.5066 18.19 13.5296 18.19L13.5336 18.192C13.6416 18.265 13.7346 18.358 13.8096 18.47L13.8466 18.54L13.8446 18.537C13.8657 18.5697 13.8841 18.6042 13.8996 18.64C13.9296 18.673 13.9296 18.707 13.9296 18.74L13.9566 18.827L13.9556 18.821C13.9696 18.886 13.9766 18.954 13.9766 19.024L13.9766 28.357C13.9766 28.6222 13.8712 28.8765 13.6837 29.0641C13.4961 29.2516 13.2418 29.357 12.9766 29.357C12.7113 29.357 12.457 29.2516 12.2694 29.0641C12.0819 28.8765 11.9766 28.6222 11.9766 28.357L11.9766 21.437L1.68455 31.729C1.49522 31.9068 1.24416 32.0039 0.984471 31.9999C0.724786 31.9958 0.476855 31.8909 0.293143 31.7074C0.10943 31.5238 0.00434873 31.2759 0.00013197 31.0162C-0.00408479 30.7566 0.0928931 30.5054 0.270548 30.316L10.5636 20.023H3.64355C3.37833 20.023 3.12398 19.9176 2.93644 19.7301C2.74891 19.5425 2.64355 19.2882 2.64355 19.023C2.64355 18.7578 2.74891 18.5034 2.93644 18.3159C3.12398 18.1283 3.37833 18.023 3.64355 18.023L12.9776 18.023C13.04 18.0236 13.1023 18.0303 13.1636 18.043L13.1695 18.044C13.1971 18.0502 13.2242 18.0586 13.2506 18.069Z" />
</svg>
