<?xml version="1.0" encoding="UTF-8"?>
<svg width="32px" height="24px" viewBox="0 0 32 24" version="1.1" xmlns="http://www.w3.org/2000/svg" xmlns:xlink="http://www.w3.org/1999/xlink">
    <path d="M9.58091 6.27543C9.98109 6.65606 9.99693 7.28902 9.6163 7.6892L6.33128 11.1429H21.121C23.6626 11.1429 25.6528 12.0412 27.0048 13.4626C28.3443 14.8708 29 16.7321 29 18.5714C29 20.4108 28.3443 22.2721 27.0048 23.6803C25.6528 25.1017 23.6626 26 21.121 26C20.5687 26 20.121 25.5523 20.121 25C20.121 24.4477 20.5687 24 21.121 24C23.1654 24 24.6147 23.2912 25.5557 22.3019C26.5092 21.2994 27 19.9464 27 18.5714C27 17.1965 26.5092 15.8435 25.5557 14.841C24.6147 13.8517 23.1654 13.1429 21.121 13.1429H6.33128L9.6163 16.5965C9.99693 16.9967 9.98109 17.6297 9.58091 18.0103C9.18074 18.3909 8.54777 18.3751 8.16714 17.9749L3.27542 12.8321C2.90819 12.446 2.90819 11.8397 3.27542 11.4537L8.16714 6.31081C8.54777 5.91064 9.18074 5.89479 9.58091 6.27543Z" />
</svg>