<?xml version="1.0" encoding="UTF-8"?>
<svg width="32px" height="24px" viewBox="0 0 32 24" version="1.1" xmlns="http://www.w3.org/2000/svg" xmlns:xlink="http://www.w3.org/1999/xlink">
    <path d="M8.80812201,18.6204494 C9.2048451,19.0171725 9.24892544,19.6329997 8.94036304,20.0784126 L8.80812201,20.2366935 C8.41139891,20.6334166 7.79557171,20.6774969 7.35015881,20.3689345 L7.19187793,20.2366935 L0.334735042,13.3795506 L0.310685377,13.3547677 C0.297275994,13.3405277 0.284228034,13.3259436 0.271556155,13.3110299 L0.334735042,13.3795506 C0.295717981,13.3405335 0.260111821,13.2993972 0.227916562,13.2565122 C0.218662704,13.2440506 0.209403524,13.2311644 0.200409694,13.2180817 C0.188095323,13.2003317 0.176659135,13.1826502 0.165760392,13.1647337 L0.156033437,13.1482504 C0.115677122,13.0793579 0.0823288417,13.0058621 0.0569670908,12.9287416 C0.0526449738,12.915394 0.0483493975,12.901425 0.0443275046,12.8873942 C0.0366071486,12.860796 0.0299515163,12.8339714 0.0242614873,12.8067919 C0.0214541019,12.7929031 0.018797012,12.7789242 0.01640217,12.7649093 C0.0114120679,12.7362435 0.00754721996,12.7068412 0.00482117286,12.6771093 C0.00340436389,12.661231 0.00228553332,12.6455744 0.00148764493,12.6299045 C0.000497468674,12.6106764 -6.6666671e-08,12.5911106 -6.6666671e-08,12.5714286 L5.74247084e-05,12.5599294 C0.000367378209,12.5289325 0.00193062195,12.4979458 0.00474715593,12.4670518 L-6.6666671e-08,12.5714286 C-6.6666671e-08,12.5233981 0.00296283262,12.4760597 0.00871582665,12.4295861 C0.0119158431,12.4042825 0.0160166523,12.3784264 0.0210063813,12.3527086 C0.0248410703,12.332416 0.0292931566,12.312391 0.0342628131,12.2925714 C0.0384384799,12.2763121 0.0428511127,12.2602082 0.04762225,12.2441883 C0.0539966926,12.2225446 0.0610574891,12.2012286 0.0687181499,12.180201 C0.0751671608,12.1625636 0.0820888245,12.1448974 0.089466814,12.1273778 C0.0991844898,12.1043681 0.109627405,12.081744 0.120772991,12.0595333 C0.129064885,12.0428386 0.137972105,12.0261056 0.147324615,12.0095561 C0.159436171,11.9883454 0.171862991,11.967925 0.184898417,11.9479377 C0.190451286,11.9392359 0.196403964,11.9303784 0.202494011,11.9215874 L0.211346966,11.909146 C0.245672574,11.8609534 0.283644617,11.815538 0.324860458,11.7733025 L0.334735042,11.7633065 L7.19187793,4.90616363 C7.63819141,4.45985015 8.36180853,4.45985015 8.80812201,4.90616363 C9.2048451,5.30288672 9.24892544,5.91871393 8.94036304,6.36412682 L8.80812201,6.52240771 L3.90099993,11.4284285 L21.7142857,11.4285714 C27.2326248,11.4285714 31.7359751,15.7742549 31.9888047,21.2300898 L31.9999999,21.7142857 L31.9999999,26.2857143 C31.9999999,26.9168969 31.4883255,27.4285714 30.8571429,27.4285714 C30.2960917,27.4285714 29.8294666,27.0242854 29.7326987,26.4911443 L29.7142858,26.2857143 L29.7142858,21.7142857 C29.7142858,17.4432837 26.3673655,13.9539967 22.1532233,13.7261231 L21.7142857,13.7142857 L3.89999993,13.7134285 L8.80812201,18.6204494 Z"></path>
</svg>