<?xml version="1.0" encoding="UTF-8"?>
<svg width="32px" height="32px" viewBox="0 0 32 32" version="1.1" xmlns="http://www.w3.org/2000/svg" xmlns:xlink="http://www.w3.org/1999/xlink">
    <title>Combined Shape</title>
    <g id="icons" stroke="none" stroke-width="1" fill="none" fill-rule="evenodd">
        <g id="streamline-icon-coding-apps-website-web-form-image-upload@24x24" fill="#131C26">
            <path d="M25.2782028,14.5144327 L25.3622253,14.6021321 L32.0114587,22.4246812 C32.5395156,23.0459183 32.1401566,23.9861719 31.3584493,24.0667587 L31.2495341,24.0723086 L28.6229069,24.0723086 L28.6229069,31.2495341 C28.6229069,31.7168449 28.3023582,32.1092876 27.8691443,32.2189786 L27.7586139,32.2403903 L27.6229219,32.249519 L21.5790127,32.249519 C21.0661846,32.249519 20.6435196,31.8634846 20.5857554,31.3661534 L20.5790278,31.2495341 L20.5790278,24.0723086 L17.9524006,24.0723086 C17.1876491,24.0723086 16.7374587,23.2688645 17.0516661,22.6346013 L17.1076957,22.5360022 L17.1904118,22.4247566 L23.8383119,14.6022075 C24.2109965,14.1636714 24.8676216,14.1344045 25.2782028,14.5144327 Z M24.6003007,16.792418 L20.1137014,22.0723387 L21.5790127,22.0723387 C22.0463236,22.0723387 22.4387663,22.3928874 22.5484572,22.8261012 L22.569869,22.9366316 L22.5789977,23.0723236 L22.5789977,30.2495491 L26.6229369,30.2495491 L26.6229369,23.0723236 C26.6229369,22.6050128 26.9434856,22.2125701 27.3766995,22.1028791 L27.4872299,22.0814673 L27.6229219,22.0723387 L29.0868999,22.0723387 L24.6003007,16.792418 Z M17.4217419,0.25 C18.1284682,0.25 18.8095823,0.499590486 19.3474108,0.949994135 L19.5421501,1.12821335 L23.3716774,4.95774072 C23.8713052,5.45772407 24.1764041,6.11581371 24.2380356,6.81430093 L24.2496393,7.07789737 L24.2496393,11.2498347 C24.2496393,11.8021111 23.8019307,12.2498196 23.2496543,12.2498196 C22.7434009,12.2498196 22.3250136,11.8736201 22.258798,11.3855267 L22.2496693,11.2498347 L22.2496693,7.07789737 C22.2496693,6.86607489 22.1822962,6.66106118 22.0595183,6.4916318 L21.9572336,6.37168143 L18.1281868,2.54263452 C17.9781821,2.39272694 17.7855067,2.29536615 17.5788795,2.26241815 L17.4217419,2.24996994 L3.24995491,2.24996994 C2.9847445,2.24996994 2.73038707,2.35532757 2.5428527,2.54286527 C2.39283259,2.69288271 2.29539969,2.88567495 2.26242733,3.09257888 L2.24996994,3.24995491 L2.24996994,25.2496242 C2.24996994,25.5148392 2.35534961,25.7692675 2.54285898,25.9567735 C2.6928549,26.1067694 2.8856373,26.2041867 3.09255958,26.2371538 L3.24995491,26.2496092 L15.2497745,26.2496092 C15.802051,26.2496092 16.2497595,26.6973177 16.2497595,27.2495942 C16.2497595,27.7558476 15.87356,28.1742349 15.3854666,28.2404505 L15.2497745,28.2495791 L3.24995491,28.2495791 C2.4543112,28.2495791 1.69125242,27.9335515 1.12867296,27.3709721 C0.628589611,26.8708976 0.32328321,26.2123586 0.261611212,25.5133985 L0.25,25.2496242 L0.25,3.24995491 C0.25,2.45431815 0.566069617,1.69125374 1.12866039,1.12867296 C1.62874337,0.6285811 2.28722323,0.323281319 2.98617935,0.261610897 L3.24995491,0.25 L17.4217419,0.25 Z M14.44109,9.80412768 C14.7666037,9.80793752 15.0863887,9.891162 15.3720035,10.0464119 C15.6010178,10.1707583 15.8028319,10.3383637 15.9777208,10.5565203 L16.1038432,10.72973 L18.5398066,14.7296432 C18.8270672,15.2013324 18.6775584,15.8165827 18.2058692,16.1038432 C17.7734875,16.3671655 17.2204746,16.26348 16.9100446,15.8810497 L16.8316692,15.7699059 L14.4177699,11.8054797 L11.7511433,15.6067293 C11.4472231,16.0399644 10.8658382,16.1554555 10.4240062,15.893665 L10.3072798,15.8128688 L8.67120676,14.5017858 L6.84856748,18.2497294 L15.9164312,18.2497294 C16.4226846,18.2497294 16.8410719,18.625929 16.9072875,19.1140224 L16.9164162,19.2497144 C16.9164162,19.7559678 16.5402166,20.1743551 16.0521232,20.2405707 L15.9164312,20.2496994 L5.24992485,20.2496994 C4.55743565,20.2496994 4.08901369,19.5700471 4.29945514,18.9378024 L4.35072969,18.812201 L6.93335754,13.5042808 L7.00075169,13.3867473 C7.15473938,13.1559792 7.35505836,12.9597063 7.58847996,12.8109066 C7.82230927,12.6616431 8.08463025,12.5626808 8.35885121,12.5202631 C8.63295683,12.4778858 8.91290299,12.4929867 9.18077175,12.5645925 C9.38163503,12.6182667 9.57248968,12.7028464 9.74668901,12.8149234 L9.91509039,12.93604 L10.7258425,13.5857996 L12.7789286,10.6591501 C12.9279742,10.445447 13.1170807,10.2634859 13.3350302,10.1229562 L13.503725,10.0254786 C13.7931919,9.87652989 14.1147992,9.80056464 14.44109,9.80412768 Z M8.24987975,4.74993236 C8.84322695,4.74993236 9.4232464,4.92588061 9.91654357,5.255512 C10.4098988,5.58514878 10.7944194,6.05368537 11.0214748,6.60185434 C11.2485375,7.15002087 11.3079511,7.75321763 11.1921938,8.33514368 C11.0764373,8.91708649 10.7907221,9.45162143 10.371168,9.8711755 C9.95161391,10.2907296 9.41707897,10.5764448 8.83514262,10.6922001 C8.25321011,10.8079586 7.65001335,10.748545 7.10185874,10.5214873 C6.55367785,10.2944269 6.08514127,9.90990628 5.75553046,9.41658996 C5.4258731,8.92325391 5.24992485,8.34323447 5.24992485,7.74988727 C5.24992485,6.95426383 5.56599093,6.19121964 6.12860409,5.62858647 C6.69121212,5.06599844 7.45425631,4.74993236 8.24987975,4.74993236 Z M8.24987975,6.7499023 C7.98467767,6.7499023 7.73032035,6.8552615 7.5427964,7.04277878 C7.35525398,7.23032786 7.24989479,7.48468519 7.24989479,7.74988727 C7.24989479,7.94766668 7.30853995,8.14099249 7.41843835,8.30545672 C7.52831157,8.4698999 7.68448335,8.59806763 7.86721569,8.67375665 C8.04993118,8.74944144 8.25098979,8.76924527 8.44495828,8.73066089 C8.63894631,8.69207395 8.81712182,8.59683705 8.95697568,8.45698319 C9.09682954,8.31712934 9.19206644,8.13895383 9.23065466,7.94495935 C9.26923775,7.75099731 9.24943393,7.54993869 9.1737442,7.36721129 C9.09806011,7.18449086 8.96989238,7.02831908 8.80541033,6.91841989 C8.64098498,6.80854747 8.44765917,6.7499023 8.24987975,6.7499023 Z" id="Combined-Shape"></path>
        </g>
    </g>
</svg>