<svg xmlns="http://www.w3.org/2000/svg" width="32" height="32"><path d="M31.5428411,17.3714197 C31.9916818,17.7080502 32.1224101,18.3114538 31.87994,18.7960272 L31.7714124,18.9714189 L22.3428457,31.5428411 C22.0062429,31.9916448 21.4029038,32.1223939 20.9183427,31.879992 L20.742953,31.7714922 L14.4572419,27.0583517 C13.952252,26.6797011 13.8498338,25.963369 14.2284844,25.4583791 C14.5650627,25.0094992 15.1684511,24.8787007 15.6530526,25.1211144 L15.8284569,25.2296216 L21.1999892,29.2571279 L29.9428419,17.599991 C30.3215512,17.0950452 31.0378953,16.9927103 31.5428411,17.3714197 Z M19.5098313,17.0615885 C19.9561418,17.5079045 19.9561374,18.2315212 19.5098214,18.6778317 C19.0635054,19.1241422 18.3398887,19.1241378 17.8935782,18.6778218 C15.2787393,16.0629509 11.3462074,15.2807118 7.92973668,16.6958654 C4.6618245,18.0494838 2.48166223,21.1585829 2.29826043,24.6626908 L2.28571307,25.1428443 L2.28571307,27.4285574 L6.85713932,27.4285574 C7.41819021,27.4285574 7.88481508,27.8328433 7.98158294,28.3659841 L7.99999995,28.571414 C7.99999995,29.1324649 7.59571001,29.5990898 7.06256924,29.6958576 L6.85713932,29.7142706 L1.14285651,29.7142706 C0.581805623,29.7142706 0.115180759,29.3099847 0.0184128993,28.7768439 L-4.99999899e-08,28.571414 L-4.99999899e-08,25.1428443 C-4.99999899e-08,20.5203773 2.78445961,16.3530772 7.05502946,14.5841429 C11.3256179,12.8152009 16.2412827,13.7929999 19.5098313,17.0615885 Z M11.4285656,-4.99998807e-08 C7.95706319,-4.99998807e-08 5.14285448,2.81420866 5.14285448,6.28571104 C5.14285448,9.75721342 7.95706319,12.5714221 11.4285656,12.5714221 C14.9000679,12.5714221 17.7142767,9.75721342 17.7142767,6.28571104 C17.7142767,2.81420866 14.9000679,-4.99998807e-08 11.4285656,-4.99998807e-08 Z M11.4285676,2.28571307 C13.6377034,2.28571307 15.4285676,4.07657317 15.4285676,6.28571307 C15.4285676,8.49484892 13.6377034,10.2857131 11.4285676,10.2857131 C9.2194277,10.2857131 7.4285676,8.49484892 7.4285676,6.28571307 C7.4285676,4.07657317 9.2194277,2.28571307 11.4285676,2.28571307 Z"/></svg>