<svg width="32" height="32" viewBox="0 0 32 32" xmlns="http://www.w3.org/2000/svg">
<path d="M11.9285 0.0810547C8.45703 0.0810547 5.64282 2.89527 5.64282 6.36677C5.64282 9.83827 8.45703 12.6525 11.9285 12.6525C15.4 12.6525 18.2142 9.83827 18.2142 6.36677C18.2142 2.89527 15.4 0.0810547 11.9285 0.0810547ZM11.9285 2.36677C14.1377 2.36677 15.9285 4.15763 15.9285 6.36677C15.9285 8.57591 14.1377 10.3668 11.9285 10.3668C9.7194 10.3668 7.92854 8.57591 7.92854 6.36677C7.92854 4.15763 9.7194 2.36677 11.9285 2.36677Z" />
<path d="M20.0364 17.1427C20.4828 17.589 20.4827 18.3126 20.0364 18.7589C19.5901 19.2052 18.8665 19.2052 18.4202 18.7589C15.8054 16.144 11.8728 15.3618 8.45635 16.7769C5.18844 18.1306 3.00827 21.2396 2.82487 24.7438L2.81232 25.2239V27.5096H13.3838C13.9448 27.5096 14.4114 27.9139 14.5082 28.4471L14.5266 28.6525C14.5266 29.2135 14.1223 29.6802 13.5892 29.7769L13.3838 29.7953H1.66947C1.10842 29.7953 0.641792 29.3911 0.545024 28.8579L0.526611 28.6525V25.2239C0.526611 20.6014 3.31107 16.4341 7.58164 14.6652C11.8522 12.8963 16.7679 13.8741 20.0364 17.1427Z" />
<path fill-rule="evenodd" clip-rule="evenodd" d="M23.2456 18.7023C24.4736 17.3616 26.4175 16.9367 28.6726 17.6346C29.08 17.7607 29.3626 18.1313 29.3764 18.5575C29.3902 18.9838 29.1321 19.3719 28.7337 19.5241C28.0802 19.7736 27.6104 20.2326 27.4012 20.661C27.2198 21.0325 27.2633 21.2731 27.3832 21.4337C27.512 21.5206 27.6036 21.5377 27.6637 21.5394C27.7413 21.5416 27.8637 21.5199 28.04 21.4117C28.4202 21.1784 28.8838 20.6428 29.3162 19.7995C29.5017 19.4378 29.8876 19.2243 30.2925 19.2595C30.6974 19.2946 31.0408 19.5713 31.1612 19.9595C31.8222 22.0904 31.5167 24.0089 30.2091 25.2515C29.0499 26.3531 27.3254 26.7057 25.4577 26.4183L21.3193 30.5567C21.3037 30.5723 21.2876 30.5874 21.2711 30.6019C20.7605 31.0491 20.1398 31.144 19.6007 31.0424C19.0845 30.9452 18.6261 30.6711 18.2827 30.3394C17.9399 30.0083 17.6435 29.5534 17.5391 29.022C17.4283 28.4576 17.5461 27.8357 17.9989 27.3234C18.0138 27.3065 18.0292 27.2902 18.0452 27.2744L22.1144 23.2528C21.8224 21.5486 22.1766 19.8695 23.2456 18.7023ZM24.7205 20.0531C24.1042 20.726 23.8089 21.9035 24.1748 23.3317C24.263 23.676 24.1618 24.0413 23.909 24.2911L19.5035 28.645C19.5161 28.6951 19.5625 28.795 19.6722 28.901C19.7875 29.0123 19.9049 29.0644 19.9707 29.0769L24.4152 24.6324C24.6557 24.3918 25.002 24.2901 25.3344 24.3622C27.0324 24.7307 28.2103 24.3919 28.8313 23.8018C29.0604 23.5841 29.2533 23.2934 29.3725 22.9205C29.2792 22.9909 29.1838 23.0563 29.0862 23.1163C28.6572 23.3795 28.156 23.5541 27.6073 23.5386C27.0508 23.5229 26.534 23.314 26.0813 22.9578C26.0427 22.9274 26.0063 22.8942 25.9726 22.8585C25.0974 21.9318 25.1449 20.7236 25.604 19.7834C25.6679 19.6526 25.7403 19.5245 25.8207 19.3998C25.3438 19.5277 24.9819 19.7676 24.7205 20.0531Z" />
</svg>
