<svg xmlns="http://www.w3.org/2000/svg" width="32" height="32"><path d="M11.4285715,2.45729363e-14 C7.95706732,2.45729363e-14 5.14285716,2.81421016 5.14285716,6.28571431 C5.14285716,9.75721847 7.95706732,12.5714286 11.4285715,12.5714286 C14.9000756,12.5714286 17.7142858,9.75721847 17.7142858,6.28571431 C17.7142858,2.81421016 14.9000756,2.45729363e-14 11.4285715,2.45729363e-14 Z M11.4285715,2.2857143 C13.6377105,2.2857143 15.4285715,4.0765753 15.4285715,6.2857143 C15.4285715,8.49485332 13.6377105,10.2857143 11.4285715,10.2857143 C9.21943247,10.2857143 7.42857146,8.49485332 7.42857146,6.2857143 C7.42857146,4.0765753 9.21943247,2.2857143 11.4285715,2.2857143 Z M23.4285715,14.8571429 C25.7916865,14.8571429 27.9314466,15.8134388 29.4819727,17.3601514 C29.4841552,17.3627919 29.4867147,17.3653277 29.489265,17.367878 L29.4979916,17.3761729 C31.0441164,18.9266188 32.0000001,21.0659659 32.0000001,23.4285715 C32.0000001,28.1624408 28.1624408,32.0000001 23.4285715,32.0000001 C21.0659659,32.0000001 18.9266188,31.0441164 17.3761729,29.4979916 C17.3736278,29.4949849 17.3707472,29.4921342 17.367878,29.489265 L17.3601514,29.4819727 C15.8134388,27.9314466 14.8571429,25.7916865 14.8571429,23.4285715 C14.8571429,18.6947022 18.6947022,14.8571429 23.4285715,14.8571429 Z M28.6082979,19.8665534 L19.8665534,28.6082979 C20.8790056,29.3058744 22.1060938,29.7142858 23.4285715,29.7142858 C26.9000757,29.7142858 29.7142858,26.9000757 29.7142858,23.4285715 C29.7142858,22.1060938 29.3058744,20.8790056 28.6082979,19.8665534 Z M23.4285715,17.1428572 C19.9570674,17.1428572 17.1428572,19.9570674 17.1428572,23.4285715 C17.1428572,24.7514901 17.551541,25.9789555 18.2495428,26.991602 L26.991602,18.2495428 C25.9789555,17.551541 24.7514901,17.1428572 23.4285715,17.1428572 Z M11.4285715,13.7142858 C12.2614462,13.7142858 13.0922885,13.8044657 13.9066194,13.9831205 C14.5231394,14.1183778 14.9132799,14.7278138 14.7780225,15.3443337 C14.6427652,15.9608537 14.0333292,16.3509942 13.4168092,16.2157368 C12.7632585,16.0723553 12.0966374,16.0000001 11.4285715,16.0000001 C6.53212484,16.0000001 2.53467687,19.8490709 2.29690357,24.6865365 L2.2857143,25.1428572 L2.2857143,27.4285715 L10.2857143,27.4285715 C10.8467655,27.4285715 11.3133906,27.8328576 11.4101585,28.3659987 L11.4285715,28.5714287 C11.4285715,29.1324799 11.0242854,29.599105 10.4911443,29.6958729 L10.2857143,29.7142858 L1.14285715,29.7142858 C0.581805971,29.7142858 0.115180868,29.3099998 0.0184129587,28.7768587 L1.48029737e-15,28.5714287 L1.48029737e-15,25.1428572 C1.48029737e-15,18.8310315 5.11674574,13.7142858 11.4285715,13.7142858 Z"/></svg>