<svg xmlns="http://www.w3.org/2000/svg" width="32" height="32"><path d="M11.4285729,2.84217094e-14 C7.95706876,2.84217094e-14 5.1428586,2.81421016 5.1428586,6.28571431 C5.1428586,9.75721847 7.95706876,12.5714286 11.4285729,12.5714286 C14.9000771,12.5714286 17.7142872,9.75721847 17.7142872,6.28571431 C17.7142872,2.81421016 14.9000771,2.84217094e-14 11.4285729,2.84217094e-14 Z M11.4285729,2.2857143 C13.6377119,2.2857143 15.4285729,4.0765753 15.4285729,6.2857143 C15.4285729,8.49485332 13.6377119,10.2857143 11.4285729,10.2857143 C9.21943391,10.2857143 7.4285729,8.49485332 7.4285729,6.2857143 C7.4285729,4.0765753 9.21943391,2.2857143 11.4285729,2.2857143 Z M24.0000015,16.0000001 C24.5610527,16.0000001 25.0276778,16.4042861 25.1244457,16.9374272 L25.1428587,17.1428572 L25.142,22.857 L30.8571444,22.857143 C31.488327,22.857143 32.0000015,23.3688175 32.0000015,24.0000001 C32.0000015,24.5610513 31.5957155,25.0276764 31.0625744,25.1244443 L30.8571444,25.1428572 L25.142,25.142 L25.1428587,30.857143 C25.1428587,31.4883256 24.6311841,32.0000001 24.0000015,32.0000001 C23.4389504,32.0000001 22.9723253,31.5957141 22.8755573,31.062573 L22.8571444,30.857143 L22.857,25.142 L17.1428587,25.1428572 C16.5116761,25.1428572 16.0000015,24.6311827 16.0000015,24.0000001 C16.0000015,23.4389489 16.4042876,22.9723238 16.9374286,22.8755559 L17.1428587,22.857143 L22.857,22.857 L22.8571444,17.1428572 C22.8571444,16.5116746 23.368819,16.0000001 24.0000015,16.0000001 Z M16.5409539,14.9184374 C17.105463,15.2007865 17.3341989,15.8873006 17.0518498,16.4518096 C16.7695008,17.0163187 16.0829867,17.2450546 15.5184776,16.9627055 C12.683857,15.5449207 9.31717172,15.6963139 6.62124461,17.3627968 C4.07509128,18.9366971 2.47030754,21.6499519 2.30065576,24.6168368 L2.28571527,25.1428572 L2.28343002,27.4285715 L10.2857153,27.4285715 C10.8467665,27.4285715 11.3133916,27.8328576 11.4101595,28.3659987 L11.4285725,28.5714287 C11.4285725,29.1324799 11.0242864,29.599105 10.4911453,29.6958729 L10.2857153,29.7142858 L1.14285812,29.7142858 C0.581806947,29.7142858 0.115181844,29.3099998 0.0184139346,28.7768587 L5.13319179e-07,28.5714287 L5.13319179e-07,25.1431992 C-0.00118452102,21.1814313 2.04950388,17.5016549 5.41941265,15.4185515 C8.78932154,13.3354479 12.9976782,13.1462064 16.5409539,14.9184374 Z"/></svg>