<svg xmlns="http://www.w3.org/2000/svg" width="32" height="32"><path d="M28.5896297,0.974401712 C28.7092083,1.42069781 28.4870665,1.87804813 28.0835963,2.06865356 L27.9241085,2.12708436 L25.265628,2.8384841 C30.9308292,7.18995449 33.084003,14.8921674 30.2670331,21.6471942 C27.1713955,29.0704594 19.0392794,33.0342817 11.284851,30.8996442 C10.7836998,30.7616874 10.4892725,30.2435879 10.6272293,29.7424366 C10.7651861,29.2412854 11.2832856,28.9468581 11.7844369,29.0848149 C18.625063,30.9679011 25.7988691,27.471186 28.5297085,20.922698 C30.935189,15.1544132 29.2323696,8.60318816 24.5879495,4.70797387 L25.1732344,6.89159823 C25.2928131,7.33789434 25.0706712,7.79524465 24.6672011,7.98585008 L24.5077133,8.04428088 C24.0614172,8.16385948 23.6040669,7.94171767 23.4134614,7.53824752 L23.3550306,7.37875972 L22.10463,2.71196385 L22.0946144,2.66821594 C22.0929219,2.66054686 22.0913246,2.6528559 22.0898231,2.64514496 L22.10463,2.71196385 C22.0908946,2.66070011 22.0816679,2.60929052 22.0767067,2.55815609 C22.0761777,2.54941663 22.0754362,2.54075293 22.0748143,2.53207613 C22.0727216,2.50565613 22.0720329,2.479292 22.0724459,2.45307975 C22.0726781,2.436636 22.0733253,2.41995165 22.074421,2.40326569 C22.0757007,2.38682891 22.0772708,2.37046963 22.0792642,2.3542008 C22.0814848,2.33278184 22.0847799,2.31136884 22.0888348,2.29002008 C22.0917924,2.27767125 22.0944475,2.26530846 22.0973471,2.25301902 C22.1020381,2.22979799 22.1083122,2.20679301 22.1155039,2.18393868 C22.1202503,2.17199103 22.124357,2.15992364 22.1287031,2.14795244 C22.1461239,2.09654657 22.1694443,2.04589808 22.1976962,1.99673254 C22.3387747,1.75122003 22.5737229,1.5933325 22.8312605,1.5423257 L27.436947,0.308880554 C27.9390301,0.174354624 28.4551037,0.472318596 28.5896297,0.974401712 Z M19.855401,0.114734488 C20.3552723,0.257259467 20.6449587,0.778024542 20.5024337,1.27789584 C20.3599087,1.77776713 19.8391437,2.06745356 19.3392724,1.92492858 C12.493456,-0.0269735269 5.26701308,3.43360704 2.49600536,9.99078931 C0.0545069046,15.7682364 1.74754319,22.3506319 6.40564687,26.2618309 L5.82209038,24.0808327 C5.70251177,23.6345366 5.92465358,23.1771863 6.32812373,22.9865808 L6.48761154,22.92815 C6.93390764,22.8085714 7.39125795,23.0307132 7.58186338,23.4341834 L7.64029418,23.5936712 L8.89069483,28.2604671 L8.90492627,28.3289179 L8.90292627,28.3159179 L8.90654934,28.3298743 C8.91093206,28.3530139 8.91442009,28.3761446 8.91703574,28.3992277 C8.91888291,28.4185147 8.92049714,28.4375263 8.92153311,28.4565932 L8.92299331,28.506335 L8.92299331,28.506335 L8.92107545,28.5664896 L8.92107545,28.5664896 L8.91701537,28.6101465 L8.91701537,28.6101465 C8.91449224,28.6356547 8.91069277,28.6607469 8.9058499,28.6857481 C8.90330768,28.6957139 8.90108367,28.7060724 8.89868783,28.7163797 C8.87892166,28.8056206 8.84523312,28.8929214 8.79746498,28.9759831 C8.65666324,29.2208161 8.42250357,29.378441 8.16572543,29.4297745 L3.5583778,30.6635503 C3.05629469,30.7980763 2.54022109,30.5001123 2.40569516,29.9980292 C2.28611655,29.5517331 2.50825836,29.0943828 2.91172851,28.9037773 L3.07121632,28.8453465 L5.72847664,28.1321454 C0.045646354,23.7631406 -2.09696957,16.0237155 0.762132874,9.25807 C3.90330455,1.82494916 12.095089,-2.09791168 19.855401,0.114734488 Z M15.8201701,16.2521188 C19.2725713,16.2521188 22.3563741,18.411289 23.537351,21.6554171 C23.7151587,22.1438525 23.4633452,22.6839492 22.9749098,22.8617568 C22.4864745,23.0395645 21.9463778,22.787751 21.7685701,22.2993156 C20.8582736,19.798743 18.4812795,18.1344555 15.8201701,18.1344555 C13.1590607,18.1344555 10.7820667,19.798743 9.87177015,22.2993156 C9.69396248,22.787751 9.15386577,23.0395645 8.6654304,22.8617568 C8.17699503,22.6839492 7.92518153,22.1438525 8.10298921,21.6554171 C9.2839661,18.411289 12.367769,16.2521188 15.8201701,16.2521188 Z M15.7436429,5.32078002 C18.7163057,5.32078002 21.126125,7.73059935 21.126125,10.7032621 C21.126125,13.6759249 18.7163057,16.0857443 15.7436429,16.0857443 C12.7709801,16.0857443 10.3611607,13.6759249 10.3611607,10.7032621 C10.3611607,7.73059935 12.7709801,5.32078002 15.7436429,5.32078002 Z M15.7436429,7.2031167 C13.8105659,7.2031167 12.2434974,8.77018519 12.2434974,10.7032621 C12.2434974,12.6363391 13.8105659,14.2034076 15.7436429,14.2034076 C17.6767198,14.2034076 19.2437883,12.6363391 19.2437883,10.7032621 C19.2437883,8.77018519 17.6767198,7.2031167 15.7436429,7.2031167 Z"/></svg>