<svg xmlns="http://www.w3.org/2000/svg" width="32" height="32">
    <title>Combined Shape</title>
    <g id="icons" stroke="none" stroke-width="1" fill="none" fill-rule="evenodd">
        <g id="+icon/+Streamline/light/interface-arrows-vertical-left-right" fill="#131C26">
            <path d="M15.9994639,-5.00000006e-08 C16.56049,-5.00000006e-08 17.0270943,0.404267973 17.1238579,0.937385203 L17.14227,1.14280604 L17.14227,30.8557645 C17.14227,31.4869189 16.6306183,31.9985706 15.9994639,31.9985706 C15.4384378,31.9985706 14.9718335,31.5943026 14.87507,31.0611853 L14.8566578,30.8557645 L14.8566578,1.14280604 C14.8566578,0.511651666 15.3683095,-5.00000006e-08 15.9994639,-5.00000006e-08 Z M24.6992022,7.90042683 L24.857476,8.03266195 L31.4181953,14.5933833 C31.7903122,14.9643303 31.9994639,15.4681451 31.9994639,15.9935712 C31.9994639,16.4314264 31.8542197,16.8542736 31.5911963,17.1969928 L31.4194686,17.3924879 L24.857476,23.9544805 C24.4111824,24.4007741 23.6875976,24.4007741 23.2413041,23.9544805 C22.8445987,23.5577751 22.8005204,22.9419754 23.109069,22.4965825 L23.2413041,22.3383086 L29.5851428,15.9924284 L23.2413041,9.64883383 C22.8445987,9.25212846 22.8005204,8.63632877 23.109069,8.19093577 L23.2413041,8.03266195 C23.6380095,7.63595658 24.2538092,7.59187821 24.6992022,7.90042683 Z M8.75762372,8.03266195 C9.15432909,8.42936732 9.19840747,9.04516702 8.88985885,9.49056001 L8.75762372,9.64883383 L2.41149946,15.9924284 L8.75762372,22.3383086 C9.15432909,22.735014 9.19840747,23.3508137 8.88985885,23.7962067 L8.75762372,23.9544805 C8.36091836,24.3511859 7.74511866,24.3952643 7.29972566,24.0867156 L7.14145185,23.9544805 L0.580732514,17.3937592 C0.208615627,17.0228122 -0.000536089121,16.5189974 -0.000536089121,15.9935712 C-0.000536089121,15.5557161 0.144708158,15.1328689 0.40773149,14.7901497 L0.579459257,14.5946545 L7.14145185,8.03266195 C7.58774539,7.58636841 8.31133018,7.58636841 8.75762372,8.03266195 Z" id="Combined-Shape"></path>
        </g>
    </g>
</svg>