<svg xmlns="http://www.w3.org/2000/svg" width="32" height="32"><path d="M24,-6.6666671e-08 C25.8935478,-6.6666671e-08 27.4285715,1.53502365 27.4285715,3.42857138 L27.4285715,3.42857138 L27.4285715,28.5714286 C27.4285715,30.4649763 25.8935478,31.9999999 24,31.9999999 L24,31.9999999 L7.99999997,31.9999999 C6.10645225,31.9999999 4.57142852,30.4649763 4.57142852,28.5714286 L4.57142852,28.5714286 L4.57142852,3.42857138 C4.57142852,1.53502365 6.10645225,-6.6666671e-08 7.99999997,-6.6666671e-08 L7.99999997,-6.6666671e-08 Z M24,2.28571423 L7.99999997,2.28571423 C7.36881739,2.28571423 6.85714282,2.7973888 6.85714282,3.42857138 L6.85714282,3.42857138 L6.85714282,28.5714286 C6.85714282,29.2026112 7.36881739,29.7142858 7.99999997,29.7142858 L7.99999997,29.7142858 L24,29.7142858 C24.6311826,29.7142858 25.1428572,29.2026112 25.1428572,28.5714286 L25.1428572,28.5714286 L25.1428572,3.42857138 C25.1428572,2.7973888 24.6311826,2.28571423 24,2.28571423 L24,2.28571423 Z M16,22.8571429 C17.2623651,22.8571429 18.2857143,23.880492 18.2857143,25.1428572 C18.2857143,26.4052223 17.2623651,27.4285715 16,27.4285715 C14.7376349,27.4285715 13.7142857,26.4052223 13.7142857,25.1428572 C13.7142857,23.880492 14.7376349,22.8571429 16,22.8571429 Z M21.7142857,4.57142852 C22.3454683,4.57142852 22.8571429,5.0831031 22.8571429,5.71428567 L22.8571429,5.71428567 L22.8571429,19.4285714 C22.8571429,20.059754 22.3454683,20.5714285 21.7142857,20.5714285 L21.7142857,20.5714285 L10.2857143,20.5714285 C9.65453169,20.5714285 9.14285711,20.059754 9.14285711,19.4285714 L9.14285711,19.4285714 L9.14285711,5.71428567 C9.14285711,5.0831031 9.65453169,4.57142852 10.2857143,4.57142852 L10.2857143,4.57142852 Z M20.5714286,6.85714282 L11.4285714,6.85714282 L11.4285714,18.2857143 L20.5714286,18.2857143 L20.5714286,6.85714282 Z"/></svg>