<svg xmlns="http://www.w3.org/2000/svg" width="32" height="32"><path d="M30.4384001,0.921599937 C30.8096001,1.29279994 30.8096001,1.90719994 30.4384001,2.27839994 L1.63839994,31.0784001 C1.44639994,31.2704001 1.20319994,31.3600001 0.959999937,31.3600001 C0.716799936,31.3600001 0.473599935,31.2704001 0.281599935,31.0784001 C-0.089600067,30.7072001 -0.089600067,30.0928001 0.281599935,29.7216001 L29.0816001,0.921599937 C29.4528001,0.550399936 30.0672001,0.550399936 30.4384001,0.921599937 Z M25.984,10.4064 C27.4048,11.456 28.7744001,12.6976 29.9520001,14.0032 C31.0016001,15.1808 31.0016001,16.9344 29.9520001,18.112 C26.6752,21.7344 21.2608,25.5744 15.7824,25.5744 L15.6032,25.5744 L15.6032,25.5744 C15.5392,25.6 15.4752,25.6 15.4112,25.6 C14.3872,25.6 13.3248,25.4592 12.2496,25.1904 C11.7376,25.0624 11.4176,24.5376 11.5456,24.0256 C11.6736,23.5136 12.1984,23.1936 12.7104,23.3216 C13.696,23.5648 14.656,23.68 15.5776,23.6672 L15.616,23.6672 C18.8288,23.7184 23.8976,21.952 28.5184001,16.832 C28.9152001,16.3968 28.9152001,15.7312 28.5184001,15.296 C27.4304,14.0928 26.1632,12.9408 24.8448,11.9552 C24.4224,11.6352 24.3328,11.0336 24.64,10.6112 C24.96,10.1888 25.5616,10.0992 25.984,10.4064 Z M15.1296,6.39999996 C16.2048,6.38719996 17.3312,6.51519996 18.4704,6.80959996 C18.9824,6.93759996 19.3024,7.46239996 19.1744,7.97439997 C19.0464,8.48639997 18.5216,8.80639997 18.0096,8.67839997 C17.024,8.42239997 16.0512,8.30719997 15.1424,8.31999997 L15.104,8.31999997 L15.104,8.31999997 C11.8912,8.25599997 6.82239996,10.0352 2.21439994,15.1552 C1.81759994,15.5904 1.81759994,16.256 2.21439994,16.6912 C3.30239995,17.8944 4.56959995,19.0464 5.88799996,20.032 C6.31039996,20.352 6.39999996,20.9536 6.09279996,21.376 C5.90079996,21.6192 5.61919996,21.76 5.32479996,21.76 C5.13279995,21.76 4.92799995,21.696 4.74879995,21.568 C3.32799995,20.5184 1.95839994,19.2768 0.780799937,17.9712 C-0.268800068,16.7936 -0.268800068,15.04 0.780799937,13.8624 C4.09599995,10.2016 9.59999997,6.31039996 15.1296,6.39999996 Z M20.16,15.36 C20.6848,15.36 21.12,15.7952 21.12,16.32 C21.12,19.3152 18.6752,21.76 15.68,21.76 C15.1552,21.76 14.72,21.3248 14.72,20.8 C14.72,20.2752 15.1552,19.84 15.68,19.84 C17.6256,19.84 19.2,18.2656 19.2,16.32 C19.2,15.7952 19.6352,15.36 20.16,15.36 Z M15.04,10.24 C15.5648,10.24 16,10.6752 16,11.2 C16,11.7248 15.5648,12.16 15.04,12.16 C13.0944,12.16 11.52,13.7344 11.52,15.68 C11.52,16.2048 11.0848,16.64 10.56,16.64 C10.0352,16.64 9.59999997,16.2048 9.59999997,15.68 C9.59999997,12.6848 12.0448,10.24 15.04,10.24 Z"></path></svg>