<svg xmlns="http://www.w3.org/2000/svg" width="32" height="32"><path d="M25.1428572,-6.66661594e-08 C27.0364049,-6.66661594e-08 28.5714286,1.53502365 28.5714286,3.42857138 L28.5714286,3.42857138 L28.5714286,28.5714286 C28.5714286,30.4649763 27.0364049,31.9999999 25.1428572,31.9999999 L25.1428572,31.9999999 L6.85714282,31.9999999 C4.9635951,31.9999999 3.42857138,30.4649763 3.42857138,28.5714286 L3.42857138,28.5714286 L3.42857138,3.42857138 C3.42857138,1.53502365 4.9635951,-6.66661594e-08 6.85714282,-6.66661594e-08 L6.85714282,-6.66661594e-08 Z M25.1428572,2.28571423 L6.85714282,2.28571423 C6.22596025,2.28571423 5.71428567,2.7973888 5.71428567,3.42857138 L5.71428567,3.42857138 L5.71428567,28.5714286 C5.71428567,29.2026112 6.22596025,29.7142858 6.85714282,29.7142858 L6.85714282,29.7142858 L25.1428572,29.7142858 C25.7740398,29.7142858 26.2857143,29.2026112 26.2857143,28.5714286 L26.2857143,28.5714286 L26.2857143,3.42857138 C26.2857143,2.7973888 25.7740398,2.28571423 25.1428572,2.28571423 L25.1428572,2.28571423 Z M17.1428571,25.1428572 C17.7740397,25.1428572 18.2857143,25.6545318 18.2857143,26.2857143 C18.2857143,26.8467655 17.8814282,27.3133906 17.3482872,27.4101585 L17.1428571,27.4285715 L14.8571429,27.4285715 C14.2259603,27.4285715 13.7142857,26.9168969 13.7142857,26.2857143 C13.7142857,25.7246632 14.1185718,25.258038 14.6517128,25.1612701 L14.8571429,25.1428572 L17.1428571,25.1428572 Z"/></svg>