<svg xmlns="http://www.w3.org/2000/svg" width="32" height="32"><path d="M29.7142858,1.71428565 C30.9766509,1.71428565 31.9999999,2.7376348 31.9999999,3.99999995 L31.9999999,3.99999995 L31.9999999,22.2857143 C31.9999999,23.5480795 30.9766509,24.5714286 29.7142858,24.5714286 L29.7142858,24.5714286 L19.9729999,24.5712857 L21.3439999,27.9992857 L22.8571429,28.0000001 C23.4883255,28.0000001 24,28.5116746 24,29.1428572 C24,29.7039084 23.595714,30.1705335 23.0625729,30.2673014 L22.8571429,30.2857143 L9.14285711,30.2857143 C8.51167454,30.2857143 7.99999997,29.7740398 7.99999997,29.1428572 C7.99999997,28.581806 8.40428605,28.1151809 8.9374271,28.018413 L9.14285711,28.0000001 L10.6549999,27.9992857 L12.0259999,24.5712857 L2.28571423,24.5714286 C1.07594763,24.5714286 0.0856939873,23.6315819 0.00527313975,22.4422083 L-6.6666671e-08,22.2857143 L-6.6666671e-08,3.99999995 C-6.6666671e-08,2.7376348 1.02334908,1.71428565 2.28571423,1.71428565 L2.28571423,1.71428565 Z M17.5119999,24.5712857 L14.4869999,24.5712857 L13.1159999,27.9992857 L18.8829999,27.9992857 L17.5119999,24.5712857 Z M29.7142858,3.99999995 L2.28571423,3.99999995 L2.28571423,22.2857143 L29.7142858,22.2857143 L29.7142858,3.99999995 Z M21.7142857,12 C22.3454683,12 22.8571429,12.5116746 22.8571429,13.1428571 C22.8571429,13.7039083 22.4528568,14.1705334 21.9197158,14.2673013 L21.7142857,14.2857143 L10.2857143,14.2857143 C9.65453169,14.2857143 9.14285711,13.7740397 9.14285711,13.1428571 C9.14285711,12.581806 9.5471432,12.1151809 10.0802842,12.0184129 L10.2857143,12 L21.7142857,12 Z"/></svg>