<svg xmlns="http://www.w3.org/2000/svg" width="32" height="32"><path d="M15.9997 0.00183105C17.2972 0.00183105 18.4835 0.734236 19.0653 1.89515L31.6369 27.0382C32.1678 28.1008 32.111 29.3624 31.4867 30.3729C30.8624 31.3834 29.7595 31.9988 28.5711 31.9994H3.42766C2.23986 31.9988 1.13701 31.3834 0.512703 30.3729C-0.111608 29.3624 -0.168432 28.1008 0.362635 27.038L12.9346 1.89417C13.5159 0.734236 14.7022 0.00183105 15.9997 0.00183105ZM15.9997 2.28755C15.5672 2.28755 15.1718 2.53168 14.9785 2.91735L2.40716 28.06C2.23018 28.4141 2.24912 28.8347 2.45723 29.1715C2.66533 29.5083 3.03294 29.7137 3.42827 29.7137H28.5705C28.9664 29.7137 29.3341 29.5083 29.5422 29.1715C29.7503 28.8347 29.7692 28.4141 29.5923 28.0602L17.0214 2.91833C16.8276 2.53168 16.4322 2.28755 15.9997 2.28755ZM15.9997 22.8565C17.2621 22.8565 18.2854 23.8799 18.2854 25.1422C18.2854 26.4046 17.2621 27.428 15.9997 27.428C14.7373 27.428 13.714 26.4046 13.714 25.1422C13.714 23.8799 14.7373 22.8565 15.9997 22.8565ZM15.9997 10.2851C16.5607 10.2851 17.0274 10.6894 17.1241 11.2225L17.1426 11.428V18.2851C17.1426 18.9163 16.6309 19.428 15.9997 19.428C15.4386 19.428 14.972 19.0237 14.8752 18.4905L14.8568 18.2851V11.428C14.8568 10.7968 15.3685 10.2851 15.9997 10.2851Z"/></svg>