<svg width="392" height="195" viewBox="0 0 392 195" fill="none" xmlns="http://www.w3.org/2000/svg">
<g clip-path="url(#clip0_2515_7862)">
<path d="M118.697 194.5C122.002 194.5 124.682 191.814 124.682 188.5C124.682 185.186 122.002 182.5 118.697 182.5C115.392 182.5 112.712 185.186 112.712 188.5C112.712 191.814 115.392 194.5 118.697 194.5Z" fill="#F3F3F6"/>
<path d="M270.017 60.0425C273.322 60.0425 276.002 57.3562 276.002 54.0425C276.002 50.7288 273.322 48.0425 270.017 48.0425C266.712 48.0425 264.032 50.7288 264.032 54.0425C264.032 57.3562 266.712 60.0425 270.017 60.0425Z" fill="#E0E0E8"/>
<path d="M49.4034 33.856C51.6069 33.856 53.3932 32.0651 53.3932 29.856C53.3932 27.6468 51.6069 25.856 49.4034 25.856C47.1999 25.856 45.4136 27.6468 45.4136 29.856C45.4136 32.0651 47.1999 33.856 49.4034 33.856Z" fill="#F3F3F6"/>
<path d="M282.691 84.3418C285.996 84.3418 288.676 81.6555 288.676 78.3418C288.676 75.0281 285.996 72.3418 282.691 72.3418C279.386 72.3418 276.706 75.0281 276.706 78.3418C276.706 81.6555 279.386 84.3418 282.691 84.3418Z" fill="#F3F3F6"/>
<path d="M364.071 153.5C366.275 153.5 368.061 151.709 368.061 149.5C368.061 147.291 366.275 145.5 364.071 145.5C361.868 145.5 360.082 147.291 360.082 149.5C360.082 151.709 361.868 153.5 364.071 153.5Z" fill="#F3F3F6"/>
<path d="M132.955 169.313C134.057 169.313 134.95 168.418 134.95 167.313C134.95 166.209 134.057 165.313 132.955 165.313C131.853 165.313 130.96 166.209 130.96 167.313C130.96 168.418 131.853 169.313 132.955 169.313Z" fill="#F3F3F6"/>
<path d="M285.037 18.2344C286.139 18.2344 287.032 17.3389 287.032 16.2344C287.032 15.1298 286.139 14.2344 285.037 14.2344C283.936 14.2344 283.042 15.1298 283.042 16.2344C283.042 17.3389 283.936 18.2344 285.037 18.2344Z" fill="#F3F3F6"/>
<path d="M236.456 56.2686C237.558 56.2686 238.451 55.3731 238.451 54.2686C238.451 53.164 237.558 52.2686 236.456 52.2686C235.354 52.2686 234.461 53.164 234.461 54.2686C234.461 55.3731 235.354 56.2686 236.456 56.2686Z" fill="#E0E0E8"/>
<path d="M3.98982 27.5171C6.19334 27.5171 7.97964 25.7262 7.97964 23.5171C7.97964 21.308 6.19334 19.5171 3.98982 19.5171C1.7863 19.5171 0 21.308 0 23.5171C0 25.7262 1.7863 27.5171 3.98982 27.5171Z" fill="#F3F3F6"/>
<path d="M45.1788 82.4546C47.3823 82.4546 49.1686 80.6637 49.1686 78.4546C49.1686 76.2455 47.3823 74.4546 45.1788 74.4546C42.9753 74.4546 41.189 76.2455 41.189 78.4546C41.189 80.6637 42.9753 82.4546 45.1788 82.4546Z" fill="#F3F3F6"/>
<path fill-rule="evenodd" clip-rule="evenodd" d="M135.775 143.694C120.284 143.694 107.725 132.422 107.725 118.518C107.725 104.614 120.284 93.3424 135.775 93.3424C139.723 93.3424 143.48 94.0743 146.888 95.3952C146.331 93.1534 146.038 90.8224 146.038 88.4301C146.038 70.7956 161.966 56.5 181.614 56.5C194.397 56.5 205.605 62.5509 211.877 71.6355C213.834 71.3725 215.836 71.237 217.874 71.237C240.167 71.237 258.239 87.4569 258.239 107.465C258.239 126.856 241.266 142.688 219.927 143.648L219.927 143.694H135.775Z" fill="#F3F3F6"/>
<path fill-rule="evenodd" clip-rule="evenodd" d="M196.238 93.5C198.835 93.5 199.324 94.2949 200.792 95.7949L224.02 117.163C226.371 119.316 226.371 122.806 224.02 124.959C221.93 126.872 218.686 127.085 216.339 125.597L215.506 124.959L202.37 112.931L202.37 164.229C202.37 167.233 199.625 169.669 196.238 169.669C193.228 169.669 190.724 167.745 190.205 165.206L190.106 164.229L190.105 111.91L175.855 124.959C173.765 126.872 170.521 127.085 168.175 125.597L167.341 124.959C165.251 123.045 165.019 120.075 166.644 117.927L167.341 117.163L191.423 95.1145C192.667 93.9762 194.318 93.4398 195.947 93.5054C196.043 93.502 196.14 93.5 196.238 93.5Z" fill="#E0E0E8"/>
<g filter="url(#filter0_d_2515_7862)">
<rect x="220.72" y="44.3608" width="47" height="50" rx="4" transform="rotate(-23.6591 220.72 44.3608)" fill="white"/>
<rect x="225.989" y="46.4194" width="39" height="34" rx="4" transform="rotate(-23.6591 225.989 46.4194)" fill="#E0E0E8"/>
</g>
<g filter="url(#filter1_d_2515_7862)">
<rect width="46.9103" height="49.9682" rx="4" transform="matrix(0.865473 0.500956 -0.499045 0.866576 252.356 117.5)" fill="white"/>
<rect width="38.9103" height="33.9682" rx="4" transform="matrix(0.865473 0.500956 -0.499045 0.866576 253.822 122.97)" fill="#E0E0E8"/>
</g>
<g filter="url(#filter2_d_2515_7862)">
<rect width="46.8884" height="49.9915" rx="4" transform="matrix(0.965761 0.259435 -0.258204 0.96609 112.653 43.5)" fill="white"/>
<rect width="38.8884" height="33.9915" rx="4" transform="matrix(0.965761 0.259435 -0.258204 0.96609 115.483 48.4023)" fill="#E0E0E8"/>
</g>
</g>
<defs>
<filter id="filter0_d_2515_7862" x="197.72" y="0.5" width="117.114" height="118.658" filterUnits="userSpaceOnUse" color-interpolation-filters="sRGB">
<feFlood flood-opacity="0" result="BackgroundImageFix"/>
<feColorMatrix in="SourceAlpha" type="matrix" values="0 0 0 0 0 0 0 0 0 0 0 0 0 0 0 0 0 0 127 0" result="hardAlpha"/>
<feOffset dx="4" dy="2"/>
<feGaussianBlur stdDeviation="13.5"/>
<feColorMatrix type="matrix" values="0 0 0 0 0 0 0 0 0 0.247059 0 0 0 0 1 0 0 0 0.15 0"/>
<feBlend mode="normal" in2="BackgroundImageFix" result="effect1_dropShadow_2515_7862"/>
<feBlend mode="normal" in="SourceGraphic" in2="effect1_dropShadow_2515_7862" result="shape"/>
</filter>
<filter id="filter1_d_2515_7862" x="204.42" y="92.5" width="119.536" height="120.801" filterUnits="userSpaceOnUse" color-interpolation-filters="sRGB">
<feFlood flood-opacity="0" result="BackgroundImageFix"/>
<feColorMatrix in="SourceAlpha" type="matrix" values="0 0 0 0 0 0 0 0 0 0 0 0 0 0 0 0 0 0 127 0" result="hardAlpha"/>
<feOffset dx="4" dy="2"/>
<feGaussianBlur stdDeviation="13.5"/>
<feColorMatrix type="matrix" values="0 0 0 0 0 0 0 0 0 0.247059 0 0 0 0 1 0 0 0 0.15 0"/>
<feBlend mode="normal" in2="BackgroundImageFix" result="effect1_dropShadow_2515_7862"/>
<feBlend mode="normal" in="SourceGraphic" in2="effect1_dropShadow_2515_7862" result="shape"/>
</filter>
<filter id="filter2_d_2515_7862" x="76.7451" y="18.5" width="112.191" height="114.461" filterUnits="userSpaceOnUse" color-interpolation-filters="sRGB">
<feFlood flood-opacity="0" result="BackgroundImageFix"/>
<feColorMatrix in="SourceAlpha" type="matrix" values="0 0 0 0 0 0 0 0 0 0 0 0 0 0 0 0 0 0 127 0" result="hardAlpha"/>
<feOffset dx="4" dy="2"/>
<feGaussianBlur stdDeviation="13.5"/>
<feColorMatrix type="matrix" values="0 0 0 0 0 0 0 0 0 0.247059 0 0 0 0 1 0 0 0 0.15 0"/>
<feBlend mode="normal" in2="BackgroundImageFix" result="effect1_dropShadow_2515_7862"/>
<feBlend mode="normal" in="SourceGraphic" in2="effect1_dropShadow_2515_7862" result="shape"/>
</filter>
<clipPath id="clip0_2515_7862">
<rect width="392" height="194" fill="white" transform="translate(0 0.5)"/>
</clipPath>
</defs>
</svg>
