<svg width="351" height="291" viewBox="0 0 351 291" fill="none" xmlns="http://www.w3.org/2000/svg">
<path d="M212 171C251.765 171 284 138.765 284 99C284 59.2355 251.765 27 212 27C172.235 27 140 59.2355 140 99C140 138.765 172.235 171 212 171Z" fill="#E0E0E8"/>
<g filter="url(#filter0_d_1_7)">
<path d="M155.5 53.5C161.023 53.5 165.5 49.0228 165.5 43.5C165.5 37.9772 161.023 33.5 155.5 33.5C149.977 33.5 145.5 37.9772 145.5 43.5C145.5 49.0228 149.977 53.5 155.5 53.5Z" fill="black"/>
</g>
<path d="M155.5 53.5C161.023 53.5 165.5 49.0228 165.5 43.5C165.5 37.9772 161.023 33.5 155.5 33.5C149.977 33.5 145.5 37.9772 145.5 43.5C145.5 49.0228 149.977 53.5 155.5 53.5Z" fill="white" stroke="#E0E0E8"/>
<path d="M297.5 26.5C301.918 26.5 305.5 22.9183 305.5 18.5C305.5 14.0817 301.918 10.5 297.5 10.5C293.082 10.5 289.5 14.0817 289.5 18.5C289.5 22.9183 293.082 26.5 297.5 26.5Z" fill="#ECECF1"/>
<path d="M238.5 197.5C242.918 197.5 246.5 193.918 246.5 189.5C246.5 185.082 242.918 181.5 238.5 181.5C234.082 181.5 230.5 185.082 230.5 189.5C230.5 193.918 234.082 197.5 238.5 197.5Z" fill="#ECECF1"/>
<g filter="url(#filter1_d_1_7)">
<path d="M206.5 221.5C209.261 221.5 211.5 219.261 211.5 216.5C211.5 213.739 209.261 211.5 206.5 211.5C203.739 211.5 201.5 213.739 201.5 216.5C201.5 219.261 203.739 221.5 206.5 221.5Z" fill="black"/>
</g>
<path d="M206.5 221.5C209.261 221.5 211.5 219.261 211.5 216.5C211.5 213.739 209.261 211.5 206.5 211.5C203.739 211.5 201.5 213.739 201.5 216.5C201.5 219.261 203.739 221.5 206.5 221.5Z" fill="white" stroke="#E0E0E8"/>
<g filter="url(#filter2_d_1_7)">
<path d="M96.5 166.5C99.2614 166.5 101.5 164.261 101.5 161.5C101.5 158.739 99.2614 156.5 96.5 156.5C93.7386 156.5 91.5 158.739 91.5 161.5C91.5 164.261 93.7386 166.5 96.5 166.5Z" fill="black"/>
</g>
<path d="M96.5 166.5C99.2614 166.5 101.5 164.261 101.5 161.5C101.5 158.739 99.2614 156.5 96.5 156.5C93.7386 156.5 91.5 158.739 91.5 161.5C91.5 164.261 93.7386 166.5 96.5 166.5Z" fill="white" stroke="#E0E0E8"/>
<g filter="url(#filter3_d_1_7)">
<path d="M54.5 72.5C57.2614 72.5 59.5 70.2614 59.5 67.5C59.5 64.7386 57.2614 62.5 54.5 62.5C51.7386 62.5 49.5 64.7386 49.5 67.5C49.5 70.2614 51.7386 72.5 54.5 72.5Z" fill="black"/>
</g>
<path d="M54.5 72.5C57.2614 72.5 59.5 70.2614 59.5 67.5C59.5 64.7386 57.2614 62.5 54.5 62.5C51.7386 62.5 49.5 64.7386 49.5 67.5C49.5 70.2614 51.7386 72.5 54.5 72.5Z" fill="white" stroke="#E0E0E8"/>
<path d="M101.5 88.5C104.261 88.5 106.5 86.2614 106.5 83.5C106.5 80.7386 104.261 78.5 101.5 78.5C98.7386 78.5 96.5 80.7386 96.5 83.5C96.5 86.2614 98.7386 88.5 101.5 88.5Z" fill="#ECECF1"/>
<path d="M74.5 141.5C77.2614 141.5 79.5 139.261 79.5 136.5C79.5 133.739 77.2614 131.5 74.5 131.5C71.7386 131.5 69.5 133.739 69.5 136.5C69.5 139.261 71.7386 141.5 74.5 141.5Z" fill="#ECECF1"/>
<path d="M5.5 116.5C8.26142 116.5 10.5 114.261 10.5 111.5C10.5 108.739 8.26142 106.5 5.5 106.5C2.73858 106.5 0.5 108.739 0.5 111.5C0.5 114.261 2.73858 116.5 5.5 116.5Z" fill="#ECECF1"/>
<path d="M131.5 125.5C134.261 125.5 136.5 123.261 136.5 120.5C136.5 117.739 134.261 115.5 131.5 115.5C128.739 115.5 126.5 117.739 126.5 120.5C126.5 123.261 128.739 125.5 131.5 125.5Z" fill="#ECECF1"/>
<path d="M196.5 72.5C199.261 72.5 201.5 70.2614 201.5 67.5C201.5 64.7386 199.261 62.5 196.5 62.5C193.739 62.5 191.5 64.7386 191.5 67.5C191.5 70.2614 193.739 72.5 196.5 72.5Z" fill="#ECECF1"/>
<path d="M244.5 10.5C247.261 10.5 249.5 8.26142 249.5 5.5C249.5 2.73858 247.261 0.5 244.5 0.5C241.739 0.5 239.5 2.73858 239.5 5.5C239.5 8.26142 241.739 10.5 244.5 10.5Z" fill="#ECECF1"/>
<path d="M136.803 166.5C115.599 90.5541 42.5464 63.8476 21.3301 109.346C0.11372 154.845 98.635 87.9299 135.69 105.209C172.745 122.488 173.036 205.093 258.135 162.306" stroke="#131C26" stroke-width="3" stroke-linecap="round" stroke-linejoin="round" stroke-dasharray="5 10"/>
<path fill-rule="evenodd" clip-rule="evenodd" d="M333.9 59.6702C338.288 58.2042 343.1 59.1884 346.552 62.2021C346.58 62.2253 346.607 62.2492 346.634 62.2735C346.826 62.4444 347.013 62.621 347.196 62.8039C350.676 66.2838 351.889 71.432 350.331 76.0959L321.682 162.122C320.257 166.393 316.723 169.621 312.341 170.655C307.959 171.688 303.355 170.38 300.174 167.198L284.784 151.832L268.661 160.221C266.164 161.519 263.228 159.902 262.855 157.248L262.817 156.565L263.512 130.56L242.796 109.82C239.917 106.926 238.583 102.866 239.14 98.8684L239.364 97.6722C240.397 93.3019 243.613 89.7747 247.87 88.3443L333.9 59.6702ZM342.953 71.3093L271.509 130.867L270.992 149.992L283.699 143.387C285.025 142.697 286.603 142.813 287.804 143.636L288.37 144.106L305.828 161.54C307.052 162.763 308.821 163.266 310.504 162.868C312.188 162.471 313.546 161.231 314.093 159.592L342.742 73.5644C342.989 72.8248 343.055 72.0537 342.953 71.3093ZM334.574 67.8776L250.409 95.9308C248.783 96.4773 247.547 97.8325 247.15 99.5118C246.753 101.191 247.252 102.956 248.462 104.173L267.806 123.538L334.574 67.8776Z" fill="#131C26"/>
<defs>
<filter id="filter0_d_1_7" x="102.5" y="8.5" width="114" height="114" filterUnits="userSpaceOnUse" color-interpolation-filters="sRGB">
<feFlood flood-opacity="0" result="BackgroundImageFix"/>
<feColorMatrix in="SourceAlpha" type="matrix" values="0 0 0 0 0 0 0 0 0 0 0 0 0 0 0 0 0 0 127 0" result="hardAlpha"/>
<feOffset dx="4" dy="22"/>
<feGaussianBlur stdDeviation="23.5"/>
<feColorMatrix type="matrix" values="0 0 0 0 0 0 0 0 0 0.247059 0 0 0 0 1 0 0 0 0.05 0"/>
<feBlend mode="normal" in2="BackgroundImageFix" result="effect1_dropShadow_1_7"/>
<feBlend mode="normal" in="SourceGraphic" in2="effect1_dropShadow_1_7" result="shape"/>
</filter>
<filter id="filter1_d_1_7" x="158.5" y="186.5" width="104" height="104" filterUnits="userSpaceOnUse" color-interpolation-filters="sRGB">
<feFlood flood-opacity="0" result="BackgroundImageFix"/>
<feColorMatrix in="SourceAlpha" type="matrix" values="0 0 0 0 0 0 0 0 0 0 0 0 0 0 0 0 0 0 127 0" result="hardAlpha"/>
<feOffset dx="4" dy="22"/>
<feGaussianBlur stdDeviation="23.5"/>
<feColorMatrix type="matrix" values="0 0 0 0 0 0 0 0 0 0.247059 0 0 0 0 1 0 0 0 0.05 0"/>
<feBlend mode="normal" in2="BackgroundImageFix" result="effect1_dropShadow_1_7"/>
<feBlend mode="normal" in="SourceGraphic" in2="effect1_dropShadow_1_7" result="shape"/>
</filter>
<filter id="filter2_d_1_7" x="48.5" y="131.5" width="104" height="104" filterUnits="userSpaceOnUse" color-interpolation-filters="sRGB">
<feFlood flood-opacity="0" result="BackgroundImageFix"/>
<feColorMatrix in="SourceAlpha" type="matrix" values="0 0 0 0 0 0 0 0 0 0 0 0 0 0 0 0 0 0 127 0" result="hardAlpha"/>
<feOffset dx="4" dy="22"/>
<feGaussianBlur stdDeviation="23.5"/>
<feColorMatrix type="matrix" values="0 0 0 0 0 0 0 0 0 0.247059 0 0 0 0 1 0 0 0 0.05 0"/>
<feBlend mode="normal" in2="BackgroundImageFix" result="effect1_dropShadow_1_7"/>
<feBlend mode="normal" in="SourceGraphic" in2="effect1_dropShadow_1_7" result="shape"/>
</filter>
<filter id="filter3_d_1_7" x="6.5" y="37.5" width="104" height="104" filterUnits="userSpaceOnUse" color-interpolation-filters="sRGB">
<feFlood flood-opacity="0" result="BackgroundImageFix"/>
<feColorMatrix in="SourceAlpha" type="matrix" values="0 0 0 0 0 0 0 0 0 0 0 0 0 0 0 0 0 0 127 0" result="hardAlpha"/>
<feOffset dx="4" dy="22"/>
<feGaussianBlur stdDeviation="23.5"/>
<feColorMatrix type="matrix" values="0 0 0 0 0 0 0 0 0 0.247059 0 0 0 0 1 0 0 0 0.05 0"/>
<feBlend mode="normal" in2="BackgroundImageFix" result="effect1_dropShadow_1_7"/>
<feBlend mode="normal" in="SourceGraphic" in2="effect1_dropShadow_1_7" result="shape"/>
</filter>
</defs>
</svg>
