<svg width="727" height="567" viewBox="0 0 727 567" fill="none" xmlns="http://www.w3.org/2000/svg">
<path fill-rule="evenodd" clip-rule="evenodd" d="M61.4998 538C138.342 543.818 189.388 545.819 214.64 544.002C237.284 542.373 254.82 540.311 267.245 537.817C243.058 532.449 217.569 528.618 190.778 526.324C163.986 524.03 120.893 527.922 61.4998 538Z" fill="#E6E6ED"/>
<path d="M78 496C82.6944 496 86.5 492.194 86.5 487.5C86.5 482.806 82.6944 479 78 479C73.3056 479 69.5 482.806 69.5 487.5C69.5 492.194 73.3056 496 78 496Z" fill="#E0E0E8"/>
<path d="M253 160C257.694 160 261.5 156.194 261.5 151.5C261.5 146.806 257.694 143 253 143C248.306 143 244.5 146.806 244.5 151.5C244.5 156.194 248.306 160 253 160Z" fill="#E0E0E8"/>
<path d="M619 267C628.113 267 635.5 259.613 635.5 250.5C635.5 241.387 628.113 234 619 234C609.887 234 602.5 241.387 602.5 250.5C602.5 259.613 609.887 267 619 267Z" fill="#E0E0E8"/>
<path d="M126.5 400C132.023 400 136.5 395.523 136.5 390C136.5 384.477 132.023 380 126.5 380C120.977 380 116.5 384.477 116.5 390C116.5 395.523 120.977 400 126.5 400Z" fill="#E0E0E8"/>
<path fill-rule="evenodd" clip-rule="evenodd" d="M184.5 170.503C184.5 190.665 168.166 207 148.007 207C127.848 207 111.5 190.665 111.5 170.503C111.5 150.342 127.848 134 148.007 134C168.166 134 184.5 150.342 184.5 170.503Z" stroke="#E0E0E8"/>
<path fill-rule="evenodd" clip-rule="evenodd" d="M231.5 327.001C231.5 330.312 228.814 333 225.5 333C222.186 333 219.5 330.312 219.5 327.001C219.5 323.688 222.186 321 225.5 321C228.814 321 231.5 323.688 231.5 327.001Z" fill="#E0E0E0"/>
<path fill-rule="evenodd" clip-rule="evenodd" d="M419.5 272.001C419.5 275.312 422.186 278 425.5 278C428.814 278 431.5 275.312 431.5 272.001C431.5 268.688 428.814 266 425.5 266C422.186 266 419.5 268.688 419.5 272.001Z" fill="#E0E0E0"/>
<path fill-rule="evenodd" clip-rule="evenodd" d="M351.522 69.0335C351.522 69.0335 350.415 69.0837 348.259 69.1196C346.082 69.1507 342.878 69.1938 338.68 69.2536C330.264 69.3876 317.85 69.7131 301.88 70.5051C285.913 71.3473 266.391 72.7686 243.828 75.372C232.558 76.7455 220.511 78.308 207.809 80.4423C195.098 82.4977 181.716 85.0556 167.788 88.2644C153.858 91.4659 139.36 95.2992 124.538 100.19C109.744 105.122 94.5311 110.977 79.6899 118.899C72.2693 122.847 65.0167 127.437 58.1805 132.792C51.4035 138.168 45.0052 144.488 40.5731 152.272C40.0384 153.25 39.461 154.215 38.957 155.212L37.717 158.337L37.0924 159.907C36.922 160.438 36.8226 160.998 36.683 161.541L35.8997 164.836C35.3863 169.296 35.2206 173.953 36.5599 178.37C38.7061 187.362 44.5721 195.11 51.2994 201.63C65.0427 214.68 82.5697 223.766 100.745 231.387C119.024 238.972 138.404 244.877 158.356 249.814C198.301 259.655 240.641 265.448 284.117 268.54C327.635 271.545 370.308 271.519 411.358 269.045C452.403 266.52 491.87 261.495 528.829 253.544C547.293 249.531 565.127 244.76 582.091 239.017C599.062 233.318 615.124 226.439 629.701 218.045C636.906 213.723 643.73 209.005 649.771 203.587C655.782 198.182 661.058 191.987 664.307 184.876L665.386 182.17C665.739 181.267 666.148 180.387 666.314 179.432L666.981 176.628C667.083 176.161 667.23 175.699 667.293 175.228L667.407 173.8C667.93 170.002 667.547 166.21 666.581 162.611C665.59 159.005 663.836 155.717 661.946 152.599C659.878 149.584 657.665 146.711 655.152 144.162C650.209 138.992 644.693 134.646 639.097 130.782C633.494 126.918 627.779 123.534 622.081 120.524C610.721 114.418 599.49 109.697 588.901 105.588C567.659 97.4862 548.774 92.1814 533.282 88.2476C517.771 84.3282 505.592 81.8589 497.327 80.2581C493.2 79.4254 490.034 78.8918 487.914 78.4826C485.791 78.0854 484.71 77.8557 484.71 77.8557C484.71 77.8557 489.087 78.5042 497.369 80.0308C505.654 81.555 517.849 83.955 533.386 87.8121C548.911 91.6813 567.827 96.9239 589.126 104.983C599.746 109.07 611.009 113.772 622.419 119.873C628.141 122.881 633.886 126.267 639.53 130.138C645.164 134.015 650.725 138.377 655.734 143.595C658.278 146.168 660.531 149.077 662.637 152.138C664.572 155.313 666.368 158.668 667.395 162.376C668.396 166.071 668.796 170.005 668.264 173.895L668.15 175.362C668.081 175.848 667.937 176.319 667.835 176.798L667.151 179.676C666.979 180.655 666.567 181.557 666.205 182.481L665.105 185.251C661.794 192.521 656.444 198.804 650.384 204.277C644.289 209.758 637.419 214.515 630.179 218.873C615.531 227.331 599.422 234.249 582.411 239.979C565.409 245.753 547.544 250.548 529.047 254.585C492.031 262.579 452.519 267.63 411.424 270.176C370.327 272.67 327.611 272.698 284.038 269.691C240.509 266.594 198.115 260.789 158.091 250.914C138.099 245.959 118.677 240.032 100.331 232.404C82.0893 224.74 64.4795 215.621 50.5682 202.396C43.7652 195.789 37.7738 187.898 35.5614 178.626C34.1937 174.075 34.3546 169.265 34.8965 164.666L35.7057 161.273C35.8501 160.711 35.9542 160.137 36.1316 159.589L36.7705 157.981L38.0483 154.772C38.5642 153.75 39.1534 152.767 39.7023 151.767C44.2408 143.818 50.7339 137.434 57.5771 132.012C64.4795 126.618 71.7866 122.015 79.2474 118.052C94.1667 110.111 109.429 104.263 124.266 99.3406C139.128 94.4617 153.655 90.6476 167.609 87.4676C181.565 84.2804 194.963 81.744 207.693 79.7173C220.412 77.6093 232.47 76.0707 243.755 74.7331C266.344 72.1848 285.882 70.8281 301.859 70.0576C317.838 69.3326 330.259 69.0837 338.678 69.0215C342.876 69.012 346.08 69.0048 348.257 69C350.415 69.0024 351.522 69.0335 351.522 69.0335Z" stroke="#E0E0E0" stroke-width="0.591"/>
<path fill-rule="evenodd" clip-rule="evenodd" d="M250.2 236.448C249.45 236.568 246.22 237.087 239.266 238.198C232.103 239.367 221.548 241.208 208.081 244.199C194.643 247.254 178.218 251.315 159.785 258.014C150.594 261.408 140.867 265.407 131.066 270.68C126.156 273.289 121.256 276.277 116.493 279.719C111.741 283.17 107.113 287.111 103.097 291.825C101.137 294.211 99.2612 296.743 97.8067 299.564C96.2576 302.329 95.1768 305.394 94.5406 308.562C94.4176 309.363 94.2308 310.158 94.1551 310.969L94.0132 313.415C94.0274 315.049 94.219 316.696 94.3632 318.34C94.7937 319.934 95.0278 321.604 95.6238 323.164L96.5485 325.502L97.0144 326.676L97.6317 327.78C100.772 333.778 105.495 338.96 110.805 343.513C116.112 348.107 122.159 351.969 128.467 355.543C141.115 362.695 155.149 368.209 169.801 373.055C184.485 377.857 199.929 381.717 215.883 385.01C247.818 391.536 281.882 395.539 317.284 397.311C352.689 399.034 389.477 398.614 426.936 395.374C464.382 392.083 500.81 386.263 534.94 376.484C551.957 371.506 568.427 365.547 583.598 357.667C591.136 353.661 598.354 349.166 604.768 343.789C606.44 342.529 607.845 340.969 609.387 339.579C610.898 338.149 612.177 336.505 613.578 334.985C616.047 331.688 618.435 328.272 619.812 324.405C623.071 316.826 622.257 308.096 618.844 300.946C615.261 293.798 609.708 287.987 603.746 283.105C591.675 273.361 577.955 266.801 564.562 261.343C551.11 255.899 537.688 251.795 524.676 248.377C511.654 244.967 499.011 242.283 486.876 240.118C438.296 231.504 398.272 229.934 370.755 229.337C343.437 229.185 329.502 229.106 327.943 229.097C327.943 229.097 343.183 228.9 370.757 229.068C398.286 229.582 438.331 231.077 486.961 239.636C499.108 241.786 511.768 244.455 524.806 247.859C537.84 251.265 551.285 255.362 564.77 260.805C578.199 266.271 591.961 272.826 604.122 282.63C610.127 287.543 615.749 293.4 619.398 300.672C622.889 307.94 623.724 316.91 620.398 324.641C618.993 328.586 616.574 332.052 614.07 335.396C612.658 336.932 611.359 338.598 609.836 340.04C608.282 341.447 606.863 343.021 605.179 344.293C598.716 349.713 591.467 354.23 583.901 358.255C568.673 366.173 552.17 372.145 535.122 377.137C500.941 386.942 464.474 392.772 426.993 396.065C389.5 399.31 352.686 399.725 317.253 397.992C281.82 396.211 247.728 392.191 215.758 385.636C199.787 382.334 184.324 378.46 169.619 373.635C154.941 368.773 140.879 363.235 128.19 356.047C121.864 352.454 115.79 348.573 110.45 343.94C105.112 339.349 100.347 334.116 97.1634 328.03L96.5391 326.906L96.0684 325.713L95.1295 323.337C94.5264 321.751 94.2852 320.051 93.8548 318.424C93.7034 316.749 93.5118 315.071 93.5 313.405L93.649 310.912C93.727 310.088 93.9162 309.279 94.044 308.463C94.6943 305.235 95.7988 302.122 97.3716 299.324C98.8497 296.47 100.746 293.911 102.731 291.506C106.787 286.756 111.448 282.801 116.226 279.34C121.017 275.888 125.934 272.898 130.863 270.289C140.699 265.018 150.445 261.031 159.655 257.649C178.123 250.977 194.57 246.949 208.024 243.932C221.505 240.982 232.072 239.185 239.243 238.061C246.418 236.936 250.2 236.448 250.2 236.448Z" stroke="#E0E0E0" stroke-width="0.591"/>
<path d="M534.5 436.499C534.332 436.546 534.781 433.523 532.68 428.493C530.644 423.452 525.204 417.184 516.635 411.519C499.412 400.151 470.632 390.604 434.398 384.768C416.263 381.808 396.201 379.771 374.612 378.891C353.026 378.007 329.898 378.235 305.678 380.165C293.572 381.125 281.193 382.527 268.633 384.531C256.082 386.549 243.323 389.06 230.581 392.579C224.205 394.303 217.836 396.297 211.533 398.621C205.231 400.94 198.971 403.568 192.94 406.753C186.926 409.942 181.084 413.684 176.084 418.453C171.108 423.115 167.053 429.43 166.956 436.48C167.039 443.537 171.089 449.857 176.06 454.526C181.058 459.297 186.9 463.041 192.916 466.236C198.949 469.42 205.209 472.05 211.514 474.372C217.819 476.696 224.188 478.69 230.569 480.416C243.311 483.938 256.075 486.449 268.628 488.469C281.189 490.473 293.569 491.875 305.678 492.835C329.901 494.765 353.033 494.993 374.62 494.106C396.211 493.226 416.272 491.192 434.407 488.232C470.641 482.394 499.419 472.847 516.639 461.476C525.207 455.811 530.644 449.546 532.68 444.507C534.781 439.475 534.332 436.454 534.5 436.499ZM534.5 436.499C534.476 436.831 534.439 437.39 534.353 438.6C534.353 439.304 534.15 440.144 533.902 441.147C533.727 442.173 533.287 443.286 532.767 444.542C530.748 449.615 525.311 455.925 516.739 461.626C499.509 473.065 470.717 482.669 434.462 488.552C416.315 491.536 396.241 493.589 374.636 494.486C353.035 495.389 329.889 495.176 305.645 493.257C293.524 492.299 281.132 490.9 268.56 488.901C255.992 486.883 243.214 484.372 230.451 480.848C224.061 479.124 217.678 477.127 211.358 474.796C205.039 472.472 198.763 469.835 192.703 466.639C186.663 463.433 180.791 459.672 175.744 454.853C173.252 452.432 170.926 449.75 169.285 446.622C167.602 443.539 166.524 440.058 166.5 436.48C166.526 432.901 167.616 429.425 169.299 426.347C170.949 423.222 173.273 420.542 175.767 418.123C180.817 413.309 186.687 409.553 192.727 406.349C198.784 403.153 205.058 400.521 211.377 398.197C217.697 395.868 224.075 393.871 230.465 392.147C243.226 388.626 256.002 386.115 268.567 384.097C281.137 382.098 293.527 380.701 305.645 379.743C329.884 377.824 353.028 377.611 374.629 378.514C396.232 379.411 416.303 381.464 434.45 384.448C470.705 390.328 499.502 399.93 516.734 411.37C525.306 417.073 530.746 423.383 532.767 428.455C533.285 429.714 533.727 430.827 533.902 431.851C534.15 432.854 534.353 433.696 534.353 434.4C534.439 435.61 534.476 436.169 534.5 436.499Z" stroke="#E0E0E0" stroke-width="0.591"/>
<path fill-rule="evenodd" clip-rule="evenodd" d="M179.625 470C179.625 470 189.545 499.84 217.928 507.92C246.312 516 173.562 516 173.562 516L167.5 479.487L179.625 470Z" fill="#AE1164"/>
<path fill-rule="evenodd" clip-rule="evenodd" d="M326.776 525.918C324.968 522.077 312.178 512.41 288.15 510.349C281.013 513.802 272.938 514.175 265.557 511.393L260.792 510.84C257.427 510.449 254.046 510.241 250.663 510.218L219.5 510L262.658 535L266.587 526.612L290.821 527.331C291.817 526.188 293.371 525.922 294.663 526.612C298.008 528.396 301.594 529.579 305.319 529.579H328.5L326.776 525.918Z" fill="#F4B65F"/>
<path fill-rule="evenodd" clip-rule="evenodd" d="M184.199 334.718C182.086 341.359 179.359 347.945 174.871 353.273C170.381 358.6 163.892 362.564 156.93 362.705C153.384 375.246 155.5 389.274 162.586 400.21C155.585 407.045 145.15 409.023 135.368 409C130.862 408.989 126.187 408.575 122.266 406.356C115.826 402.713 112.816 395.054 111.496 387.771C110.236 380.81 109.745 373.195 109.657 366.105C109.559 358.304 111.618 351.251 109.321 343.477C107.526 337.402 104.039 331.753 103.558 325.436C103.179 320.451 104.723 315.525 106.563 310.878C108.053 307.114 109.839 303.307 112.905 300.667C115.771 298.198 119.491 296.978 123.158 296.056C132.234 293.774 142.454 293.085 151.761 292.217C161.743 291.287 172.009 293.362 180.835 298.121C186.85 301.362 191.311 303.765 190.376 310.261C189.247 318.115 186.642 327.038 184.199 334.718Z" fill="#FDDEB3"/>
<path fill-rule="evenodd" clip-rule="evenodd" d="M150 332C148.002 332 147.998 329 150 329C151.998 329 152.002 332 150 332Z" fill="#0A2A3C"/>
<path fill-rule="evenodd" clip-rule="evenodd" d="M131.37 324.377C131.551 317.89 125.247 311.855 118.93 312.912C112.613 313.969 108.624 322.397 112.155 327.81C114.206 330.953 117.896 332.516 120.631 335.069C125.673 339.774 126.961 347.255 127.475 354.181C128.065 362.12 127.989 370.294 125.307 377.776C122.626 385.258 116.95 391.996 109.393 394.161C102.255 396.208 94.4907 394.022 87.2708 395.747C75.6825 398.517 68.1852 412.633 72.2867 423.962C56.1886 424.439 39.9824 420.376 25.9604 412.348C19.3801 408.58 13.1968 403.878 8.6487 397.76C-3.48467 381.446 -1.40283 357.083 10.4924 340.588C22.3877 324.094 42.2612 314.895 62.2486 312.257C67.0979 311.617 72.1873 311.257 76.3691 308.686C86.3135 302.568 86.041 288.112 90.963 277.428C97.2506 263.783 112.789 256.441 127.642 256.023C142.494 255.605 156.883 260.904 170.615 266.656C172.214 259.838 180.467 256.258 187.162 258.006C193.857 259.755 198.912 265.446 202.176 271.623C210.656 287.661 208.866 308.702 197.804 323.032C193.832 328.178 187.231 337.01 180.82 337.692C182.014 333.781 170.756 321.612 165.832 316.16C162.962 312.983 159.892 300.625 156.927 299.247C154.258 298.005 146.56 307.244 143.668 309.207C137.999 313.055 130.673 317.498 131.37 324.377Z" fill="#131C26"/>
<path fill-rule="evenodd" clip-rule="evenodd" d="M160.254 398.172C160.254 398.172 173.468 439.39 182.892 452.538C185.464 456.127 186.154 460.767 184.848 465.004L173.045 503.298C173.045 503.298 236.843 506.681 243.5 508.372V536H92.9323C92.9323 536 87.0502 502.296 74.2986 445.789C60.4289 384.332 87.2047 391.938 111.651 395.069C111.651 395.069 144.134 409.759 160.254 398.172Z" fill="#B7397C"/>
<path fill-rule="evenodd" clip-rule="evenodd" d="M306.772 526.884C304.959 523.035 302.628 522.158 299.811 519.307C291.283 510.677 278.748 508.648 268.11 513.798C268.11 513.798 252.805 515.112 245.406 512.323L242.5 511.228V535.991H251.597C258.612 535.991 265.729 536.419 271.063 531.458L273.286 530.77C274.285 529.622 273.286 530.77 274.582 531.461C277.934 533.25 281.53 530.555 285.263 530.555H308.5L306.772 526.884Z" fill="#FDDEB3"/>
<path d="M205.5 506C205.5 506 151.69 501.975 145.618 504.969C145.618 504.969 132.162 449.532 112.5 423" stroke="#8B0E50"/>
<path d="M159.858 345.603C159.858 345.603 167.784 342.832 168.817 343.037C168.817 343.037 168.61 334.175 170.499 329.401" stroke="#FCAE42"/>
<path d="M79.5 459C79.5 459 95.8668 521.36 120.5 532" stroke="#8B0E50"/>
<path d="M171.5 502L180.5 474" stroke="#8B0E50"/>
<path fill-rule="evenodd" clip-rule="evenodd" d="M157.04 363.014C153.397 363.85 149.157 362.908 144.321 360.189C139.484 357.47 134.676 353.324 129.896 347.753L137.185 358.109L141.029 367.546L157.04 363.014Z" fill="#FDCE8D"/>
<path fill-rule="evenodd" clip-rule="evenodd" d="M250.349 533.437L270.698 529.99C271.661 531.366 269.784 532.515 265.068 533.437C260.352 534.36 253.555 534.907 244.677 535.079L250.349 533.437Z" fill="#FDCE8D"/>
<g filter="url(#filter0_d_424_63291)">
<path d="M272.548 131.188L336.853 148.419C342.188 149.848 345.354 155.331 343.924 160.666L323.681 236.214C322.252 241.549 316.768 244.715 311.434 243.286L247.129 226.055C241.794 224.626 238.628 219.142 240.058 213.808L260.301 138.259C261.73 132.925 267.214 129.759 272.548 131.188Z" fill="black"/>
</g>
<path d="M272.548 131.188L336.853 148.419C342.188 149.848 345.354 155.331 343.924 160.666L323.681 236.214C322.252 241.549 316.768 244.715 311.434 243.286L247.129 226.055C241.794 224.626 238.628 219.142 240.058 213.808L260.301 138.259C261.73 132.925 267.214 129.759 272.548 131.188Z" fill="white"/>
<path fill-rule="evenodd" clip-rule="evenodd" d="M278.991 144.854L324.713 157.105C330.048 158.534 333.214 164.018 331.784 169.352L321.709 206.954C320.279 212.289 314.796 215.454 309.461 214.025L263.74 201.774C258.405 200.344 255.239 194.861 256.669 189.526L266.744 151.925C268.173 146.59 273.657 143.424 278.991 144.854Z" fill="#ECECF1"/>
<g filter="url(#filter1_d_424_63291)">
<path d="M486.858 126.099L600.253 73.1769C605.255 70.8353 611.205 72.9989 613.541 78.0035C613.542 78.0055 613.543 78.0075 613.538 78.0123L674.547 208.96C676.873 213.967 674.709 219.914 669.709 222.254L556.315 275.176C551.313 277.518 545.362 275.354 543.027 270.349C543.026 270.347 543.025 270.345 543.03 270.341L482.02 139.392C479.694 134.386 481.859 128.439 486.858 126.099Z" fill="black"/>
</g>
<path d="M486.858 126.099L600.253 73.1769C605.255 70.8353 611.205 72.9989 613.541 78.0035C613.542 78.0055 613.543 78.0075 613.538 78.0123L674.547 208.96C676.873 213.967 674.709 219.914 669.709 222.254L556.315 275.176C551.313 277.518 545.362 275.354 543.027 270.349C543.026 270.347 543.025 270.345 543.03 270.341L482.02 139.392C479.694 134.386 481.859 128.439 486.858 126.099Z" fill="white"/>
<path fill-rule="evenodd" clip-rule="evenodd" d="M509.189 135.842L593.357 96.5607C598.359 94.219 604.309 96.3826 606.645 101.387C606.646 101.389 606.647 101.391 606.642 101.396L639.869 172.713C642.195 177.72 640.03 183.666 635.031 186.007L550.863 225.289C545.861 227.63 539.91 225.467 537.575 220.462C537.574 220.46 537.573 220.458 537.578 220.453L504.35 149.136C502.025 144.129 504.189 138.183 509.189 135.842Z" fill="#F3F3F6"/>
<g filter="url(#filter2_d_424_63291)">
<path d="M445.436 327.687L498.929 354.92C503.853 357.42 505.812 363.441 503.306 368.363C503.305 368.365 503.304 368.367 503.297 368.366L471.187 431.335C468.674 436.249 462.655 438.205 457.733 435.706L404.24 408.472C399.315 405.973 397.357 399.951 399.863 395.03C399.864 395.028 399.865 395.026 399.871 395.027L431.982 332.058C434.495 327.143 440.513 325.188 445.436 327.687Z" fill="black"/>
</g>
<path d="M445.436 327.687L498.929 354.92C503.853 357.42 505.812 363.441 503.306 368.363C503.305 368.365 503.304 368.367 503.297 368.366L471.187 431.335C468.674 436.249 462.655 438.205 457.733 435.706L404.24 408.472C399.315 405.973 397.357 399.951 399.863 395.03C399.864 395.028 399.865 395.026 399.871 395.027L431.982 332.058C434.495 327.143 440.513 325.188 445.436 327.687Z" fill="white"/>
<path fill-rule="evenodd" clip-rule="evenodd" d="M448.783 340.697L486.428 359.863C491.352 362.362 493.311 368.383 490.805 373.305C490.804 373.307 490.803 373.309 490.796 373.308L475.165 403.962C472.651 408.877 466.633 410.833 461.71 408.334L424.065 389.169C419.141 386.669 417.182 380.648 419.688 375.726C419.689 375.724 419.69 375.722 419.697 375.723L435.329 345.069C437.842 340.154 443.861 338.198 448.783 340.697Z" fill="#F3F3F6"/>
<path d="M626.696 41.9998C624.424 41.9998 622.582 40.158 622.582 37.8859C622.582 35.6138 624.424 33.772 626.696 33.772C628.968 33.772 630.81 35.6138 630.81 37.8859C630.81 40.158 628.968 41.9998 626.696 41.9998Z" fill="#E0E0E8"/>
<path d="M266.614 405.228C264.342 405.228 262.5 403.386 262.5 401.114C262.5 398.842 264.342 397 266.614 397C268.886 397 270.728 398.842 270.728 401.114C270.728 403.386 268.886 405.228 266.614 405.228Z" fill="#E0E0E8"/>
<path d="M653.231 63.9937C651.3 63.9937 649.734 62.4281 649.734 60.4968C649.734 58.5656 651.3 57 653.231 57C655.162 57 656.728 58.5656 656.728 60.4968C656.728 62.4281 655.162 63.9937 653.231 63.9937Z" fill="white"/>
<g filter="url(#filter3_d_424_63291)">
<path d="M578.231 31.9937C576.3 31.9937 574.734 30.4281 574.734 28.4968C574.734 26.5656 576.3 25 578.231 25C580.162 25 581.728 26.5656 581.728 28.4968C581.728 30.4281 580.162 31.9937 578.231 31.9937Z" fill="black"/>
</g>
<path d="M578.231 31.9937C576.3 31.9937 574.734 30.4281 574.734 28.4968C574.734 26.5656 576.3 25 578.231 25C580.162 25 581.728 26.5656 581.728 28.4968C581.728 30.4281 580.162 31.9937 578.231 31.9937Z" fill="white" stroke="#E0E0E8"/>
<g filter="url(#filter4_d_424_63291)">
<path d="M338.614 266.228C340.886 266.228 342.728 264.386 342.728 262.114C342.728 259.842 340.886 258 338.614 258C336.342 258 334.5 259.842 334.5 262.114C334.5 264.386 336.342 266.228 338.614 266.228Z" fill="black"/>
</g>
<path d="M338.614 266.228C340.886 266.228 342.728 264.386 342.728 262.114C342.728 259.842 340.886 258 338.614 258C336.342 258 334.5 259.842 334.5 262.114C334.5 264.386 336.342 266.228 338.614 266.228Z" fill="white" stroke="#E0E0E8"/>
<path d="M561.614 303.228C563.886 303.228 565.728 301.386 565.728 299.114C565.728 296.842 563.886 295 561.614 295C559.342 295 557.5 296.842 557.5 299.114C557.5 301.386 559.342 303.228 561.614 303.228Z" fill="#AE1164"/>
<path d="M211.997 447.994C213.928 447.994 215.494 446.428 215.494 444.497C215.494 442.566 213.928 441 211.997 441C210.066 441 208.5 442.566 208.5 444.497C208.5 446.428 210.066 447.994 211.997 447.994Z" fill="#AE1164"/>
<path d="M656.997 56.9937C658.928 56.9937 660.494 55.4281 660.494 53.4968C660.494 51.5656 658.928 50 656.997 50C655.066 50 653.5 51.5656 653.5 53.4968C653.5 55.4281 655.066 56.9937 656.997 56.9937Z" fill="#E0E0E8"/>
<path d="M96.9968 139.994C98.9281 139.994 100.494 138.428 100.494 136.497C100.494 134.566 98.9281 133 96.9968 133C95.0656 133 93.5 134.566 93.5 136.497C93.5 138.428 95.0656 139.994 96.9968 139.994Z" fill="#AE1164"/>
<path d="M644.997 110.994C646.928 110.994 648.494 109.428 648.494 107.497C648.494 105.566 646.928 104 644.997 104C643.066 104 641.5 105.566 641.5 107.497C641.5 109.428 643.066 110.994 644.997 110.994Z" fill="#E0E0E8"/>
<path fill-rule="evenodd" clip-rule="evenodd" d="M75.1015 434.644C89.7682 472.662 101.578 499.841 110.53 516.18C118.558 530.833 131.222 534.987 148.522 528.644C134.699 523.293 124.892 510.96 119.101 491.644C113.311 472.328 98.6442 453.328 75.1015 434.644Z" fill="#AE1164"/>
<path fill-rule="evenodd" clip-rule="evenodd" d="M185.268 532.704C208.325 533.874 225.114 534.025 235.634 533.156C245.068 532.378 250.137 526.78 250.84 516.364C244.885 522.286 236.242 524.52 224.91 523.065C213.578 521.611 200.364 524.824 185.268 532.704Z" fill="#AE1164"/>
<path fill-rule="evenodd" clip-rule="evenodd" d="M304.643 185.143C305.064 185.143 305.414 185.446 305.486 185.846L305.5 186V189.429C305.5 190.765 304.48 191.864 303.176 191.988L302.929 192H299.5C299.027 192 298.643 191.616 298.643 191.143C298.643 190.722 298.946 190.372 299.346 190.3L299.5 190.286H302.929C303.349 190.286 303.699 189.982 303.772 189.583L303.786 189.429V186C303.786 185.527 304.169 185.143 304.643 185.143ZM282.357 185.143C282.778 185.143 283.128 185.446 283.2 185.846L283.214 186V189.429C283.214 189.849 283.518 190.199 283.917 190.272L284.071 190.286H287.5C287.973 190.286 288.357 190.669 288.357 191.143C288.357 191.564 288.054 191.914 287.654 191.986L287.5 192H284.071C282.735 192 281.636 190.98 281.512 189.676L281.5 189.429V186C281.5 185.527 281.884 185.143 282.357 185.143ZM293.5 181.712C296.15 181.712 298.562 183.238 299.697 185.633C299.9 186.061 299.717 186.572 299.289 186.775C298.861 186.977 298.35 186.795 298.148 186.367C297.297 184.571 295.487 183.426 293.5 183.426C291.513 183.426 289.703 184.571 288.852 186.367C288.65 186.795 288.139 186.977 287.711 186.775C287.283 186.572 287.1 186.061 287.303 185.633C288.438 183.238 290.85 181.712 293.5 181.712ZM302.929 168C304.265 168 305.364 169.02 305.488 170.324L305.5 170.571V174C305.5 174.473 305.116 174.857 304.643 174.857C304.222 174.857 303.872 174.554 303.8 174.154L303.786 174V170.571C303.786 170.151 303.482 169.801 303.083 169.728L302.929 169.714H299.5C299.027 169.714 298.643 169.331 298.643 168.857C298.643 168.436 298.946 168.086 299.346 168.014L299.5 168H302.929ZM287.5 168C287.973 168 288.357 168.384 288.357 168.857C288.357 169.278 288.054 169.628 287.654 169.7L287.5 169.714H284.071C283.651 169.714 283.301 170.018 283.228 170.417L283.214 170.571V174C283.214 174.473 282.831 174.857 282.357 174.857C281.936 174.857 281.586 174.554 281.514 174.154L281.5 174V170.571C281.5 169.235 282.52 168.136 283.824 168.012L284.071 168H287.5ZM293.5 171.429C291.133 171.429 289.214 173.347 289.214 175.714C289.214 178.081 291.133 180 293.5 180C295.867 180 297.786 178.081 297.786 175.714C297.786 173.347 295.867 171.429 293.5 171.429ZM293.5 173.143C294.92 173.143 296.071 174.294 296.071 175.714C296.071 177.134 294.92 178.286 293.5 178.286C292.08 178.286 290.929 177.134 290.929 175.714C290.929 174.294 292.08 173.143 293.5 173.143Z" fill="#131C26"/>
<path fill-rule="evenodd" clip-rule="evenodd" d="M464.87 362.801C465.749 362.801 466.474 363.463 466.573 364.316L466.584 364.516V378.23C466.584 379.109 465.923 379.834 465.07 379.933L464.87 379.944L457.564 379.943L458.592 382.515L459.727 382.516C460.201 382.516 460.584 382.899 460.584 383.373C460.584 383.793 460.281 384.143 459.881 384.216L459.727 384.23H449.442C448.968 384.23 448.584 383.846 448.584 383.373C448.584 382.952 448.888 382.602 449.288 382.529L449.442 382.516L450.575 382.515L451.603 379.943L444.299 379.944C443.42 379.944 442.695 379.282 442.596 378.43L442.584 378.23V364.516C442.584 363.569 443.352 362.801 444.299 362.801C444.772 362.801 445.156 363.185 445.156 363.658C445.156 364.079 444.853 364.429 444.453 364.502L444.299 364.516V378.23H464.87V364.516L464.716 364.502C464.316 364.429 464.013 364.079 464.013 363.658C464.013 363.185 464.397 362.801 464.87 362.801ZM455.717 379.943H453.45L452.421 382.515H456.746L455.717 379.943ZM454.653 365.22C455.732 363.849 457.168 363.34 458.606 363.82C460.264 364.375 461.442 366.141 461.442 368.116C461.442 370.385 460.167 372.279 458.096 373.818C457.395 374.338 456.649 374.782 455.902 375.152C455.812 375.196 455.726 375.238 455.644 375.277L455.204 375.475L454.883 375.605C454.69 375.676 454.479 375.676 454.286 375.605L453.964 375.475L453.525 375.277L453.267 375.152C452.52 374.782 451.774 374.338 451.073 373.818C449.002 372.279 447.727 370.385 447.727 368.116C447.727 366.145 448.905 364.383 450.563 363.829C452 363.349 453.436 363.855 454.516 365.223L454.583 365.313L454.653 365.22ZM458.063 365.446C457.112 365.128 456.116 365.683 455.366 367.352C455.064 368.027 454.106 368.027 453.803 367.353C453.054 365.689 452.058 365.137 451.106 365.455C450.172 365.767 449.442 366.86 449.442 368.116C449.442 369.746 450.417 371.195 452.096 372.442C452.707 372.896 453.367 373.288 454.027 373.615C454.08 373.641 454.131 373.666 454.18 373.69L454.584 373.876L455.142 373.615C455.802 373.288 456.462 372.896 457.073 372.442C458.752 371.195 459.727 369.746 459.727 368.116C459.727 366.855 458.997 365.759 458.063 365.446Z" fill="#AE1164"/>
<path fill-rule="evenodd" clip-rule="evenodd" d="M589.299 147.516C591.666 147.516 593.584 149.434 593.584 151.801V183.23C593.584 185.597 591.666 187.516 589.299 187.516H557.87C555.503 187.516 553.584 185.597 553.584 183.23L553.584 169.544L553.572 169.453C553.562 169.338 553.566 169.226 553.583 169.116L553.584 151.801C553.584 149.434 555.503 147.516 557.87 147.516H589.299ZM559.21 170.373C558.284 170.373 557.359 170.432 556.441 170.549L556.441 183.23C556.441 184.019 557.081 184.658 557.87 184.658L578.623 184.658C576.227 176.093 568.282 170.132 559.21 170.373ZM578.306 177.134L578.214 177.165C579.755 179.387 580.911 181.913 581.576 184.658L589.299 184.658C590.088 184.658 590.727 184.019 590.727 183.23L590.727 176.881C586.646 175.741 582.325 175.832 578.306 177.134ZM589.299 150.373H557.87C557.081 150.373 556.441 151.012 556.441 151.801L556.441 167.671C557.356 167.568 558.271 167.516 559.172 167.516C565.878 167.338 572.057 170.14 576.326 174.802C580.935 173.061 585.957 172.761 590.728 173.928L590.727 151.801C590.727 151.012 590.088 150.373 589.299 150.373ZM579.299 154.658C583.243 154.658 586.441 157.856 586.441 161.801C586.441 165.746 583.243 168.944 579.299 168.944C575.354 168.944 572.156 165.746 572.156 161.801C572.156 157.856 575.354 154.658 579.299 154.658ZM579.299 157.516C576.932 157.516 575.013 159.434 575.013 161.801C575.013 164.168 576.932 166.087 579.299 166.087C581.666 166.087 583.584 164.168 583.584 161.801C583.584 159.434 581.666 157.516 579.299 157.516Z" fill="#AE1164"/>
<path fill-rule="evenodd" clip-rule="evenodd" d="M275.5 533H349.5L347.5 539H273.5L275.5 533Z" fill="#E6E6ED"/>
<path d="M349.5 530H275.5V536H349.5V530Z" fill="#71767C"/>
<path d="M327.5 530H275.5V536H327.5V530Z" fill="#131C26"/>
<defs>
<filter id="filter0_d_424_63291" x="216.715" y="105.845" width="158.553" height="166.784" filterUnits="userSpaceOnUse" color-interpolation-filters="sRGB">
<feFlood flood-opacity="0" result="BackgroundImageFix"/>
<feColorMatrix in="SourceAlpha" type="matrix" values="0 0 0 0 0 0 0 0 0 0 0 0 0 0 0 0 0 0 127 0" result="hardAlpha"/>
<feOffset dx="4" dy="2"/>
<feGaussianBlur stdDeviation="13.5"/>
<feColorMatrix type="matrix" values="0 0 0 0 0 0 0 0 0 0.247059 0 0 0 0 1 0 0 0 0.15 0"/>
<feBlend mode="normal" in2="BackgroundImageFix" result="effect1_dropShadow_424_63291"/>
<feBlend mode="normal" in="SourceGraphic" in2="effect1_dropShadow_424_63291" result="shape"/>
</filter>
<filter id="filter1_d_424_63291" x="438.085" y="47.2324" width="288.396" height="297.888" filterUnits="userSpaceOnUse" color-interpolation-filters="sRGB">
<feFlood flood-opacity="0" result="BackgroundImageFix"/>
<feColorMatrix in="SourceAlpha" type="matrix" values="0 0 0 0 0 0 0 0 0 0 0 0 0 0 0 0 0 0 127 0" result="hardAlpha"/>
<feOffset dx="4" dy="22"/>
<feGaussianBlur stdDeviation="23.5"/>
<feColorMatrix type="matrix" values="0 0 0 0 0 0 0 0 0 0.247059 0 0 0 0 1 0 0 0 0.05 0"/>
<feBlend mode="normal" in2="BackgroundImageFix" result="effect1_dropShadow_424_63291"/>
<feBlend mode="normal" in="SourceGraphic" in2="effect1_dropShadow_424_63291" result="shape"/>
</filter>
<filter id="filter2_d_424_63291" x="355.772" y="301.6" width="199.625" height="204.193" filterUnits="userSpaceOnUse" color-interpolation-filters="sRGB">
<feFlood flood-opacity="0" result="BackgroundImageFix"/>
<feColorMatrix in="SourceAlpha" type="matrix" values="0 0 0 0 0 0 0 0 0 0 0 0 0 0 0 0 0 0 127 0" result="hardAlpha"/>
<feOffset dx="4" dy="22"/>
<feGaussianBlur stdDeviation="23.5"/>
<feColorMatrix type="matrix" values="0 0 0 0 0 0 0 0 0 0.247059 0 0 0 0 1 0 0 0 0.05 0"/>
<feBlend mode="normal" in2="BackgroundImageFix" result="effect1_dropShadow_424_63291"/>
<feBlend mode="normal" in="SourceGraphic" in2="effect1_dropShadow_424_63291" result="shape"/>
</filter>
<filter id="filter3_d_424_63291" x="531.734" y="0" width="100.994" height="100.994" filterUnits="userSpaceOnUse" color-interpolation-filters="sRGB">
<feFlood flood-opacity="0" result="BackgroundImageFix"/>
<feColorMatrix in="SourceAlpha" type="matrix" values="0 0 0 0 0 0 0 0 0 0 0 0 0 0 0 0 0 0 127 0" result="hardAlpha"/>
<feOffset dx="4" dy="22"/>
<feGaussianBlur stdDeviation="23.5"/>
<feColorMatrix type="matrix" values="0 0 0 0 0 0 0 0 0 0.247059 0 0 0 0 1 0 0 0 0.05 0"/>
<feBlend mode="normal" in2="BackgroundImageFix" result="effect1_dropShadow_424_63291"/>
<feBlend mode="normal" in="SourceGraphic" in2="effect1_dropShadow_424_63291" result="shape"/>
</filter>
<filter id="filter4_d_424_63291" x="291.5" y="233" width="102.228" height="102.228" filterUnits="userSpaceOnUse" color-interpolation-filters="sRGB">
<feFlood flood-opacity="0" result="BackgroundImageFix"/>
<feColorMatrix in="SourceAlpha" type="matrix" values="0 0 0 0 0 0 0 0 0 0 0 0 0 0 0 0 0 0 127 0" result="hardAlpha"/>
<feOffset dx="4" dy="22"/>
<feGaussianBlur stdDeviation="23.5"/>
<feColorMatrix type="matrix" values="0 0 0 0 0 0 0 0 0 0.247059 0 0 0 0 1 0 0 0 0.05 0"/>
<feBlend mode="normal" in2="BackgroundImageFix" result="effect1_dropShadow_424_63291"/>
<feBlend mode="normal" in="SourceGraphic" in2="effect1_dropShadow_424_63291" result="shape"/>
</filter>
</defs>
</svg>
