<svg width="633" height="438" viewBox="0 0 633 438" fill="none" xmlns="http://www.w3.org/2000/svg">
<path d="M170 304C175.523 304 180 299.523 180 294C180 288.477 175.523 284 170 284C164.477 284 160 288.477 160 294C160 299.523 164.477 304 170 304Z" fill="#E0E0E8"/>
<path fill-rule="evenodd" clip-rule="evenodd" d="M457 127L456.367 141.369V153L448.04 151.993C448.04 151.993 443.45 134.527 448.04 127H457Z" stroke="#0A2A3C" stroke-width="0.998"/>
<path fill-rule="evenodd" clip-rule="evenodd" d="M442 154.118L453.048 156.862C452.077 161.925 448.719 169.211 447.749 174.273C447.389 176.148 447.043 178.155 447.789 179.912C448.387 181.321 449.603 182.353 450.778 183.331L467.53 187.556C464.168 197.357 456.748 209.455 452.713 218.996C468.728 221.499 484.558 225.178 500.037 230C504.618 203.629 511.683 177.694 521.108 152.653C522.401 149.218 523.754 145.732 523.969 142.066C524.168 138.69 523.387 135.331 522.346 132.114C517.883 118.326 508.364 106.248 496.021 98.708C490.488 95.3296 484.199 92.7995 477.725 93.0125C459.454 93.6153 464.373 107.262 462.016 119.845C459.53 133.11 452.457 145.561 442 154.118Z" fill="#FDDEB3"/>
<path fill-rule="evenodd" clip-rule="evenodd" d="M491.78 177.57L476.458 183.91L452.342 181.475L467.5 186.951L478.396 193.982L491.78 177.57Z" fill="#FDCE8D"/>
<path fill-rule="evenodd" clip-rule="evenodd" d="M456.954 154.476H443.342L450.541 155.985L458.342 159.476L456.954 154.476Z" fill="#FDCE8D"/>
<path fill-rule="evenodd" clip-rule="evenodd" d="M549.731 385.435L462.841 385.989L427.56 384C423.024 384.914 419.092 387.652 416.732 391.541L388 398.326L395.978 407.282C397.382 408.86 399.346 409.851 401.476 410.055C412.616 411.124 448.628 413.877 462.841 406.466C520.278 415.377 562.861 419.169 590.591 417.842C600.675 417.36 614.811 410.854 633 398.326L552.846 385.435H549.731Z" fill="#ECECF1"/>
<path fill-rule="evenodd" clip-rule="evenodd" d="M467.707 127C483.395 127.001 495 137.872 495 137.872L489.341 145.894C485.727 151.016 479.841 154 473.642 154C472.754 154 471.86 153.939 470.964 153.815L465.668 153.074C461.916 144.966 465.668 127.062 465.668 127.062C466.355 127.021 467.034 127 467.707 127ZM467.706 127V128.217C467.369 128.217 467.03 128.222 466.692 128.233C466.024 131.843 463.848 145.126 466.529 151.966L471.137 152.61C471.965 152.724 472.807 152.784 473.642 152.784C479.491 152.784 484.983 149.947 488.335 145.197L493.36 138.072C490.528 135.734 480.432 128.217 467.707 128.217L467.706 127Z" fill="#0A2A3C"/>
<path d="M494 139L511.155 142.733C515.471 143.956 517.956 148.598 516.653 153" stroke="#0A2A3C" stroke-width="0.998"/>
<path d="M464 136L457 135" stroke="#0A2A3C" stroke-width="0.998"/>
<path fill-rule="evenodd" clip-rule="evenodd" d="M474.5 142C472.502 142 472.498 139 474.5 139C476.498 139 476.502 142 474.5 142Z" fill="#0A2A3C"/>
<path d="M311.5 299C273.668 299 243 268.332 243 230.5C243 192.668 273.668 162 311.5 162C349.332 162 380 192.668 380 230.5C380 268.332 349.332 299 311.5 299Z" fill="#F3F3F6"/>
<path d="M472 169C472 169 465.132 172.764 463 173" stroke="#0A2A3C" stroke-width="0.998"/>
<path fill-rule="evenodd" clip-rule="evenodd" d="M444.109 82.0773C444.449 79.5399 445.777 77.0087 448.056 75.7959C451.89 73.7563 456.527 76.0243 460.256 78.2489C465.481 81.3673 470.706 84.4844 475.93 87.6028C476.968 86.3912 475.652 84.6545 474.512 83.5372C473.371 82.42 472.436 80.2972 473.826 79.5027C474.468 79.134 475.279 79.3326 475.986 79.5635C484.339 82.2834 491.835 88.1254 500.625 88.4234C503.799 88.5314 507.029 87.8958 510.124 88.5996C512.955 89.2414 515.411 90.9496 517.686 92.7385C520.898 95.2647 523.987 98.1174 525.82 101.749C527.654 105.38 528.038 109.943 525.914 113.415C530.292 111.52 535.522 112.041 539.753 114.244C543.982 116.448 547.258 120.192 549.456 124.393C551.141 127.617 552.252 131.235 551.951 134.853C551.705 137.815 550.525 140.643 548.944 143.171C543.316 152.175 532.173 157.481 521.547 156.216C522.888 156.375 519.227 166.024 518.761 166.829C517.757 168.563 513.518 175.16 511.607 172.283C510.666 170.866 509.89 169.343 509.299 167.751C507.472 168.925 505.052 169.141 503.043 168.306C501.034 167.471 499.495 165.61 499.065 163.498C500.195 164.653 501.965 165.015 503.576 164.8C508.455 164.15 512.565 159.082 512.879 154.284C513.115 150.669 510.684 147.376 507.83 145.104C507.131 144.548 506.388 144.024 505.546 143.718C504.739 143.423 503.871 143.339 503.015 143.256C498.919 142.861 495.612 142.734 492.202 140.228C489.143 137.979 486.842 134.776 485.364 131.325C483.253 126.395 482.682 120.958 482.548 115.606C481.929 116.547 480.864 117.098 479.808 117.508C471.905 120.574 462.54 117.564 456.408 111.758C450.277 105.951 446.919 97.8269 444.896 89.671C444.281 87.1844 443.769 84.6148 444.109 82.0773Z" fill="#131C26"/>
<path fill-rule="evenodd" clip-rule="evenodd" d="M519.879 226.934L540.539 235.174C548.556 238.371 555.374 243.992 560.038 251.259C579.89 282.195 633.187 368.457 630.93 399.52C630.93 399.52 606.677 415.469 558.863 411.307L552.728 378.023L540.539 393.536H446.225H420.687L387.009 376.556L378 271.239L405.949 226.934L438.288 216L480.058 224.802L519.879 226.934Z" fill="#B3D3FF"/>
<path fill-rule="evenodd" clip-rule="evenodd" d="M414.701 261.5L382.436 301.002C360.406 307.814 363.403 329.992 391.428 367.537C401.619 381.189 428.476 388.343 472 389C436.529 378.497 415.898 363.587 410.108 344.271C404.317 324.955 405.848 297.365 414.701 261.5Z" fill="#8DBDFF"/>
<path fill-rule="evenodd" clip-rule="evenodd" d="M524 284C538.667 322.019 550.476 349.197 559.428 365.537C567.456 380.189 580.12 384.344 597.42 378C583.597 372.649 573.791 360.316 568 341C562.209 321.684 547.543 302.684 524 284Z" fill="#8DBDFF"/>
<path fill-rule="evenodd" clip-rule="evenodd" d="M557.852 407.931C580.909 409.101 597.698 409.252 608.218 408.384C617.652 407.605 622.721 402.008 623.424 391.592C617.469 397.513 608.826 399.747 597.494 398.293C586.162 396.839 572.948 400.052 557.852 407.931Z" fill="#8DBDFF"/>
<path fill-rule="evenodd" clip-rule="evenodd" d="M548.731 377.435L461.841 377.989L426.56 376C422.024 376.914 418.092 379.652 415.732 383.541H415.731L387 390.326L394.978 399.282C396.382 400.86 398.346 401.851 400.476 402.055C411.616 403.124 447.628 405.877 461.841 398.466L558 410L551.846 377.435H548.731Z" fill="#FDDEB3"/>
<path d="M167 255C100.726 255 47 201.274 47 135C47 68.7258 100.726 15 167 15C233.274 15 287 68.7258 287 135C287 201.274 233.274 255 167 255Z" fill="#F3F3F6"/>
<path fill-rule="evenodd" clip-rule="evenodd" d="M396.755 195.089L450.298 174L456.562 188.071C457.696 190.615 446.546 182.876 444 184.022L448.5 182.012L444 185.19L433 192.424C433 192.424 413.655 212.149 397 208C397 208 398.562 336.055 387.157 380.117C379.82 408.46 368.963 420.899 354.585 417.434L354.585 417.433C353.662 417.21 353.023 416.368 353.056 415.419C355.42 350.369 361.196 299.398 370.386 262.507C379.649 225.32 388.439 202.847 396.755 195.089Z" fill="#ECECF1"/>
<path fill-rule="evenodd" clip-rule="evenodd" d="M395.755 190.089L449.297 169L455.562 183.071C456.695 185.615 455.554 188.594 453.009 189.74L452.232 190.089L450.226 187.67L441.999 205.993C441.999 205.993 424.899 210.142 408.245 205.993C408.245 205.993 397.562 331.055 386.156 375.117C378.82 403.46 367.962 415.899 353.584 412.434L353.585 412.433C352.662 412.21 352.023 411.368 352.056 410.419C354.42 345.369 360.196 294.398 369.385 257.507C378.649 220.32 387.438 197.847 395.755 190.089Z" fill="#FDDEB3"/>
<g filter="url(#filter0_d_423_63021)">
<path d="M503.031 213L464 220.675L468.937 236L524 229.719L503.031 213Z" fill="black"/>
</g>
<path d="M503.031 213L464 220.675L468.937 236L524 229.719L503.031 213Z" fill="white" stroke="#E0E0E8"/>
<g filter="url(#filter1_d_423_63021)">
<path d="M464 221.075L455.279 212L433 213.502L444.174 230L464 221.075Z" fill="black"/>
</g>
<path d="M464 221.075L455.279 212L433 213.502L444.174 230L464 221.075Z" fill="white" stroke="#E0E0E8"/>
<path d="M524 290C524 290 544.616 360.04 568 378H552.283" stroke="#3474CC"/>
<path fill-rule="evenodd" clip-rule="evenodd" d="M440.592 204.234C440.592 204.234 442.313 200.066 445.757 191.73L437.905 200.498L413.403 204.234C424.082 206.338 433.145 206.338 440.592 204.234Z" fill="#FDCE8D"/>
<path fill-rule="evenodd" clip-rule="evenodd" d="M455.592 399.234C455.592 399.234 457.313 395.066 460.757 386.73L452.905 395.498L428.403 399.234C439.082 401.338 448.145 401.338 455.592 399.234Z" fill="#FDCE8D"/>
<path fill-rule="evenodd" clip-rule="evenodd" d="M555.55 406.921C555.55 406.921 550.669 404.114 540.905 398.498L467.5 396.414C518.754 405.523 548.104 409.025 555.55 406.921Z" fill="#FDCE8D"/>
<path fill-rule="evenodd" clip-rule="evenodd" d="M366.233 405.639C366.233 405.639 369.995 401.448 377.517 393.065L394.817 321.697C375.252 369.937 365.724 397.918 366.233 405.639Z" fill="#FDCE8D"/>
<g filter="url(#filter2_d_423_63021)">
<path d="M217 304C283.274 304 337 250.274 337 184C337 117.726 283.274 64 217 64C150.726 64 97 117.726 97 184C97 250.274 150.726 304 217 304Z" fill="black"/>
</g>
<path d="M217 304C283.274 304 337 250.274 337 184C337 117.726 283.274 64 217 64C150.726 64 97 117.726 97 184C97 250.274 150.726 304 217 304Z" fill="white" stroke="#E0E0E8"/>
<path d="M216.5 290C275.318 290 323 242.318 323 183.5C323 124.682 275.318 77 216.5 77C157.682 77 110 124.682 110 183.5C110 242.318 157.682 290 216.5 290Z" stroke="#A0A4A8" stroke-width="2" stroke-dasharray="2 2"/>
<path d="M217 266C262.287 266 299 229.287 299 184C299 138.713 262.287 102 217 102C171.713 102 135 138.713 135 184C135 229.287 171.713 266 217 266Z" stroke="#A0A4A8" stroke-width="2" stroke-dasharray="2 2"/>
<path d="M217 231C242.957 231 264 209.957 264 184C264 158.043 242.957 137 217 137C191.043 137 170 158.043 170 184C170 209.957 191.043 231 217 231Z" stroke="#A0A4A8" stroke-width="2" stroke-dasharray="2 2"/>
<path d="M217 205C228.598 205 238 195.598 238 184C238 172.402 228.598 163 217 163C205.402 163 196 172.402 196 184C196 195.598 205.402 205 217 205Z" fill="#B3D3FF"/>
<path d="M30.0314 248C32.3035 248 34.1453 246.158 34.1453 243.886C34.1453 241.614 32.3035 239.772 30.0314 239.772C27.7593 239.772 25.9175 241.614 25.9175 243.886C25.9175 246.158 27.7593 248 30.0314 248Z" fill="#E0E0E8"/>
<g filter="url(#filter3_d_423_63021)">
<path d="M344.032 248C346.304 248 348.146 246.158 348.146 243.886C348.146 241.614 346.304 239.772 344.032 239.772C341.76 239.772 339.918 241.614 339.918 243.886C339.918 246.158 341.76 248 344.032 248Z" fill="black"/>
</g>
<path d="M344.032 248C346.304 248 348.146 246.158 348.146 243.886C348.146 241.614 346.304 239.772 344.032 239.772C341.76 239.772 339.918 241.614 339.918 243.886C339.918 246.158 341.76 248 344.032 248Z" fill="white" stroke="#E0E0E8"/>
<path d="M366.196 71.9998C363.924 71.9998 362.082 70.158 362.082 67.8859C362.082 65.6138 363.924 63.772 366.196 63.772C368.468 63.772 370.31 65.6138 370.31 67.8859C370.31 70.158 368.468 71.9998 366.196 71.9998Z" fill="#E0E0E8"/>
<path d="M318.114 120.228C315.842 120.228 314 118.386 314 116.114C314 113.842 315.842 112 318.114 112C320.386 112 322.228 113.842 322.228 116.114C322.228 118.386 320.386 120.228 318.114 120.228Z" fill="#E0E0E8"/>
<path d="M392.731 13.9937C390.8 13.9937 389.234 12.4281 389.234 10.4968C389.234 8.56559 390.8 7 392.731 7C394.662 7 396.228 8.56559 396.228 10.4968C396.228 12.4281 394.662 13.9937 392.731 13.9937Z" fill="white"/>
<g filter="url(#filter4_d_423_63021)">
<path d="M317.731 61.9937C315.8 61.9937 314.234 60.4281 314.234 58.4968C314.234 56.5656 315.8 55 317.731 55C319.662 55 321.228 56.5656 321.228 58.4968C321.228 60.4281 319.662 61.9937 317.731 61.9937Z" fill="black"/>
</g>
<path d="M317.731 61.9937C315.8 61.9937 314.234 60.4281 314.234 58.4968C314.234 56.5656 315.8 55 317.731 55C319.662 55 321.228 56.5656 321.228 58.4968C321.228 60.4281 319.662 61.9937 317.731 61.9937Z" fill="white" stroke="#E0E0E8"/>
<g filter="url(#filter5_d_423_63021)">
<path d="M78.1139 296.228C80.386 296.228 82.2279 294.386 82.2279 292.114C82.2279 289.842 80.386 288 78.1139 288C75.8419 288 74 289.842 74 292.114C74 294.386 75.8419 296.228 78.1139 296.228Z" fill="black"/>
</g>
<path d="M78.1139 296.228C80.386 296.228 82.2279 294.386 82.2279 292.114C82.2279 289.842 80.386 288 78.1139 288C75.8419 288 74 289.842 74 292.114C74 294.386 75.8419 296.228 78.1139 296.228Z" fill="white" stroke="#E0E0E8"/>
<path d="M301.114 333.228C303.386 333.228 305.228 331.386 305.228 329.114C305.228 326.842 303.386 325 301.114 325C298.842 325 297 326.842 297 329.114C297 331.386 298.842 333.228 301.114 333.228Z" fill="#E0E0E8"/>
<path d="M272.5 53C277.194 53 281 49.1944 281 44.5C281 39.8056 277.194 36 272.5 36C267.806 36 264 39.8056 264 44.5C264 49.1944 267.806 53 272.5 53Z" fill="#E0E0E8"/>
<path d="M3.49684 189.994C5.42808 189.994 6.99367 188.428 6.99367 186.497C6.99367 184.566 5.42808 183 3.49684 183C1.56559 183 0 184.566 0 186.497C0 188.428 1.56559 189.994 3.49684 189.994Z" fill="#E0E0E8"/>
<path d="M396.497 6.99367C398.428 6.99367 399.994 5.42808 399.994 3.49684C399.994 1.56559 398.428 0 396.497 0C394.566 0 393 1.56559 393 3.49684C393 5.42808 394.566 6.99367 396.497 6.99367Z" fill="#E0E0E8"/>
<path d="M78.4968 237.994C80.4281 237.994 81.9937 236.428 81.9937 234.497C81.9937 232.566 80.4281 231 78.4968 231C76.5656 231 75 232.566 75 234.497C75 236.428 76.5656 237.994 78.4968 237.994Z" fill="#E0E0E8"/>
<path d="M384.497 140.994C386.428 140.994 387.994 139.428 387.994 137.497C387.994 135.566 386.428 134 384.497 134C382.566 134 381 135.566 381 137.497C381 139.428 382.566 140.994 384.497 140.994Z" fill="#E0E0E8"/>
<path d="M115.5 46.5L213.969 183.04" stroke="#131C26" stroke-width="6"/>
<path fill-rule="evenodd" clip-rule="evenodd" d="M126.765 22.9829L133.819 32.6911L126.765 52.9373L119.712 43.2291L126.765 22.9829Z" fill="#71767C"/>
<path fill-rule="evenodd" clip-rule="evenodd" d="M136.242 84.2251L129.02 74.6415L107.597 75.4673L114.818 85.0509L136.242 84.2251Z" fill="#131C26"/>
<path fill-rule="evenodd" clip-rule="evenodd" d="M126.442 71.8174L119.22 62.2338L97.7964 63.0596L105.018 72.6432L126.442 71.8174Z" fill="#131C26"/>
<path fill-rule="evenodd" clip-rule="evenodd" d="M116.934 58.4536L109.712 48.87L88.2881 49.6958L95.5098 59.2794L116.934 58.4536Z" fill="#131C26"/>
<path fill-rule="evenodd" clip-rule="evenodd" d="M135.765 35.9829L142.819 45.6911L135.765 65.9373L128.712 56.2291L135.765 35.9829Z" fill="#71767C"/>
<path fill-rule="evenodd" clip-rule="evenodd" d="M145.765 48.9829L152.819 58.6911L145.765 78.9373L138.712 69.2291L145.765 48.9829Z" fill="#71767C"/>
<g style="mix-blend-mode:multiply">
<path d="M48.4326 168.158L216.082 183.421" stroke="#E0E0E8" stroke-width="6"/>
</g>
<path fill-rule="evenodd" clip-rule="evenodd" d="M38.0747 144.228L50.029 145.273L60.6816 163.879L48.7272 162.834L38.0747 144.228Z" fill="#E6E6ED"/>
<path fill-rule="evenodd" clip-rule="evenodd" d="M90.5122 177.253L78.5414 176.416L65.1094 193.127L77.0802 193.964L90.5122 177.253Z" fill="#E6E6ED"/>
<path fill-rule="evenodd" clip-rule="evenodd" d="M74.7183 176.51L62.7475 175.673L49.3155 192.383L61.2863 193.22L74.7183 176.51Z" fill="#E6E6ED"/>
<path fill-rule="evenodd" clip-rule="evenodd" d="M58.3945 174.918L46.4238 174.081L32.9918 190.791L44.9625 191.628L58.3945 174.918Z" fill="#E6E6ED"/>
<path fill-rule="evenodd" clip-rule="evenodd" d="M53.7905 145.964L65.7449 147.01L76.3974 165.616L64.4431 164.57L53.7905 145.964Z" fill="#E6E6ED"/>
<path fill-rule="evenodd" clip-rule="evenodd" d="M70.1626 146.945L82.1169 147.991L92.7695 166.597L80.8151 165.551L70.1626 146.945Z" fill="#E6E6ED"/>
<path fill-rule="evenodd" clip-rule="evenodd" d="M217.827 185.797C216.94 186.547 215.844 187.047 214.54 187.297L194.327 173.508L210.647 160.292L219.874 182.789C219.396 184.045 218.713 185.047 217.827 185.797Z" fill="#131C26"/>
<defs>
<filter id="filter0_d_423_63021" x="421" y="188" width="154" height="117" filterUnits="userSpaceOnUse" color-interpolation-filters="sRGB">
<feFlood flood-opacity="0" result="BackgroundImageFix"/>
<feColorMatrix in="SourceAlpha" type="matrix" values="0 0 0 0 0 0 0 0 0 0 0 0 0 0 0 0 0 0 127 0" result="hardAlpha"/>
<feOffset dx="4" dy="22"/>
<feGaussianBlur stdDeviation="23.5"/>
<feColorMatrix type="matrix" values="0 0 0 0 0 0 0 0 0 0.247059 0 0 0 0 1 0 0 0 0.05 0"/>
<feBlend mode="normal" in2="BackgroundImageFix" result="effect1_dropShadow_423_63021"/>
<feBlend mode="normal" in="SourceGraphic" in2="effect1_dropShadow_423_63021" result="shape"/>
</filter>
<filter id="filter1_d_423_63021" x="390" y="187" width="125" height="112" filterUnits="userSpaceOnUse" color-interpolation-filters="sRGB">
<feFlood flood-opacity="0" result="BackgroundImageFix"/>
<feColorMatrix in="SourceAlpha" type="matrix" values="0 0 0 0 0 0 0 0 0 0 0 0 0 0 0 0 0 0 127 0" result="hardAlpha"/>
<feOffset dx="4" dy="22"/>
<feGaussianBlur stdDeviation="23.5"/>
<feColorMatrix type="matrix" values="0 0 0 0 0 0 0 0 0 0.247059 0 0 0 0 1 0 0 0 0.05 0"/>
<feBlend mode="normal" in2="BackgroundImageFix" result="effect1_dropShadow_423_63021"/>
<feBlend mode="normal" in="SourceGraphic" in2="effect1_dropShadow_423_63021" result="shape"/>
</filter>
<filter id="filter2_d_423_63021" x="54" y="39" width="334" height="334" filterUnits="userSpaceOnUse" color-interpolation-filters="sRGB">
<feFlood flood-opacity="0" result="BackgroundImageFix"/>
<feColorMatrix in="SourceAlpha" type="matrix" values="0 0 0 0 0 0 0 0 0 0 0 0 0 0 0 0 0 0 127 0" result="hardAlpha"/>
<feOffset dx="4" dy="22"/>
<feGaussianBlur stdDeviation="23.5"/>
<feColorMatrix type="matrix" values="0 0 0 0 0 0 0 0 0 0.247059 0 0 0 0 1 0 0 0 0.05 0"/>
<feBlend mode="normal" in2="BackgroundImageFix" result="effect1_dropShadow_423_63021"/>
<feBlend mode="normal" in="SourceGraphic" in2="effect1_dropShadow_423_63021" result="shape"/>
</filter>
<filter id="filter3_d_423_63021" x="296.918" y="214.772" width="102.228" height="102.228" filterUnits="userSpaceOnUse" color-interpolation-filters="sRGB">
<feFlood flood-opacity="0" result="BackgroundImageFix"/>
<feColorMatrix in="SourceAlpha" type="matrix" values="0 0 0 0 0 0 0 0 0 0 0 0 0 0 0 0 0 0 127 0" result="hardAlpha"/>
<feOffset dx="4" dy="22"/>
<feGaussianBlur stdDeviation="23.5"/>
<feColorMatrix type="matrix" values="0 0 0 0 0 0 0 0 0 0.247059 0 0 0 0 1 0 0 0 0.05 0"/>
<feBlend mode="normal" in2="BackgroundImageFix" result="effect1_dropShadow_423_63021"/>
<feBlend mode="normal" in="SourceGraphic" in2="effect1_dropShadow_423_63021" result="shape"/>
</filter>
<filter id="filter4_d_423_63021" x="271.234" y="30" width="100.994" height="100.994" filterUnits="userSpaceOnUse" color-interpolation-filters="sRGB">
<feFlood flood-opacity="0" result="BackgroundImageFix"/>
<feColorMatrix in="SourceAlpha" type="matrix" values="0 0 0 0 0 0 0 0 0 0 0 0 0 0 0 0 0 0 127 0" result="hardAlpha"/>
<feOffset dx="4" dy="22"/>
<feGaussianBlur stdDeviation="23.5"/>
<feColorMatrix type="matrix" values="0 0 0 0 0 0 0 0 0 0.247059 0 0 0 0 1 0 0 0 0.05 0"/>
<feBlend mode="normal" in2="BackgroundImageFix" result="effect1_dropShadow_423_63021"/>
<feBlend mode="normal" in="SourceGraphic" in2="effect1_dropShadow_423_63021" result="shape"/>
</filter>
<filter id="filter5_d_423_63021" x="31" y="263" width="102.228" height="102.228" filterUnits="userSpaceOnUse" color-interpolation-filters="sRGB">
<feFlood flood-opacity="0" result="BackgroundImageFix"/>
<feColorMatrix in="SourceAlpha" type="matrix" values="0 0 0 0 0 0 0 0 0 0 0 0 0 0 0 0 0 0 127 0" result="hardAlpha"/>
<feOffset dx="4" dy="22"/>
<feGaussianBlur stdDeviation="23.5"/>
<feColorMatrix type="matrix" values="0 0 0 0 0 0 0 0 0 0.247059 0 0 0 0 1 0 0 0 0.05 0"/>
<feBlend mode="normal" in2="BackgroundImageFix" result="effect1_dropShadow_423_63021"/>
<feBlend mode="normal" in="SourceGraphic" in2="effect1_dropShadow_423_63021" result="shape"/>
</filter>
</defs>
</svg>
