<svg xmlns="http://www.w3.org/2000/svg" width="32" height="32">
    <title>selected (1)</title>
    <g id="Page-1" stroke="none" stroke-width="1" fill="none" fill-rule="evenodd">
        <g id="selected-(1)" fill="#71767C" fill-rule="nonzero">
            <path d="M6.25165591,3.31290802 C11.9999726,-1.10430267 20.0000275,-1.10430267 25.7483441,3.31290802 C31.4966608,7.73011871 33.5564479,15.4604587 30.7681881,22.1522822 C30.5907497,22.5781342 30.1746573,22.8555292 29.7133175,22.8555292 L29.7133175,22.8555292 L2.28668249,22.8555292 C1.82534267,22.8555292 1.40925031,22.5781342 1.23181192,22.1522822 C-1.55644789,15.4604587 0.503339247,7.73011871 6.25165591,3.31290802 Z M24.3557235,5.12518836 C19.428595,1.33900777 12.5714051,1.33900777 7.64427649,5.12518836 C3.02509346,8.67473268 1.18465757,14.7202169 2.94189415,20.1882309 L2.94189415,20.1882309 L3.0729127,20.5699763 L15.3509161,20.5692144 L21.876736,9.69474896 C22.2014539,9.15355251 22.9034161,8.97806197 23.4446124,9.30277984 C23.9256759,9.59141799 24.1177866,10.1781256 23.926479,10.6850412 L23.8365815,10.8706562 L18.0160613,20.5692144 L28.9248018,20.5699763 L29.0581059,20.1882309 C30.756768,14.9024841 29.0936049,9.07712337 24.808349,5.48834876 L24.808349,5.48834876 L24.3557235,5.12518836 Z" id="Combined-Shape"></path>
        </g>
    </g>
</svg>