<svg xmlns="http://www.w3.org/2000/svg" width="32" height="32"><path d="M16.3333333,23.3333333 C18.7265672,23.3333333 20.6666667,25.2734328 20.6666667,27.6666667 C20.6666667,30.0599006 18.7265672,32 16.3333333,32 C13.9400994,32 12,30.0599006 12,27.6666667 C12,25.2734328 13.9400994,23.3333333 16.3333333,23.3333333 Z M16.3333333,11.6666667 C18.7265672,11.6666667 20.6666667,13.6067661 20.6666667,16 C20.6666667,18.3932339 18.7265672,20.3333333 16.3333333,20.3333333 C13.9400994,20.3333333 12,18.3932339 12,16 C12,13.6067661 13.9400994,11.6666667 16.3333333,11.6666667 Z M16.3333333,0 C18.7265672,0 20.6666667,1.94009942 20.6666667,4.33333333 C20.6666667,6.72656725 18.7265672,8.66666667 16.3333333,8.66666667 C13.9400994,8.66666667 12,6.72656725 12,4.33333333 C12,1.94009942 13.9400994,0 16.3333333,0 Z" /></svg>